G04 #@! TF.GenerationSoftware,KiCad,Pcbnew,(6.0.7)*
G04 #@! TF.CreationDate,2022-08-12T11:37:01-07:00*
G04 #@! TF.ProjectId,mlx90640-breakout,6d6c7839-3036-4343-902d-627265616b6f,rev?*
G04 #@! TF.SameCoordinates,Original*
G04 #@! TF.FileFunction,Copper,L1,Top*
G04 #@! TF.FilePolarity,Positive*
%FSLAX46Y46*%
G04 Gerber Fmt 4.6, Leading zero omitted, Abs format (unit mm)*
G04 Created by KiCad (PCBNEW (6.0.7)) date 2022-08-12 11:37:01*
%MOMM*%
%LPD*%
G01*
G04 APERTURE LIST*
G04 Aperture macros list*
%AMRoundRect*
0 Rectangle with rounded corners*
0 $1 Rounding radius*
0 $2 $3 $4 $5 $6 $7 $8 $9 X,Y pos of 4 corners*
0 Add a 4 corners polygon primitive as box body*
4,1,4,$2,$3,$4,$5,$6,$7,$8,$9,$2,$3,0*
0 Add four circle primitives for the rounded corners*
1,1,$1+$1,$2,$3*
1,1,$1+$1,$4,$5*
1,1,$1+$1,$6,$7*
1,1,$1+$1,$8,$9*
0 Add four rect primitives between the rounded corners*
20,1,$1+$1,$2,$3,$4,$5,0*
20,1,$1+$1,$4,$5,$6,$7,0*
20,1,$1+$1,$6,$7,$8,$9,0*
20,1,$1+$1,$8,$9,$2,$3,0*%
%AMFreePoly0*
4,1,21,0.108156,0.332870,0.205725,0.283156,0.283156,0.205725,0.332870,0.108156,0.350000,0.000000,0.332870,-0.108156,0.283156,-0.205725,0.205725,-0.283156,0.108156,-0.332870,0.000000,-0.350000,-0.108156,-0.332870,-0.205725,-0.283156,-0.283156,-0.205725,-0.332870,-0.108156,-0.350000,0.000000,-0.332870,0.108156,-0.283156,0.205725,-0.205725,0.283156,-0.108156,0.332870,0.000000,0.350000,
0.108156,0.332870,0.108156,0.332870,$1*%
G04 Aperture macros list end*
G04 #@! TA.AperFunction,EtchedComponent*
%ADD10C,1.600000*%
G04 #@! TD*
G04 #@! TA.AperFunction,SMDPad,CuDef*
%ADD11R,1.000000X1.000000*%
G04 #@! TD*
G04 #@! TA.AperFunction,SMDPad,CuDef*
%ADD12RoundRect,0.250000X-0.250000X-0.475000X0.250000X-0.475000X0.250000X0.475000X-0.250000X0.475000X0*%
G04 #@! TD*
G04 #@! TA.AperFunction,SMDPad,CuDef*
%ADD13R,0.600000X1.350000*%
G04 #@! TD*
G04 #@! TA.AperFunction,SMDPad,CuDef*
%ADD14R,1.200000X2.000000*%
G04 #@! TD*
G04 #@! TA.AperFunction,ComponentPad*
%ADD15FreePoly0,90.000000*%
G04 #@! TD*
G04 #@! TA.AperFunction,ComponentPad*
%ADD16C,0.700000*%
G04 #@! TD*
G04 #@! TA.AperFunction,ComponentPad*
%ADD17FreePoly0,0.000000*%
G04 #@! TD*
G04 #@! TA.AperFunction,Conductor*
%ADD18C,0.250000*%
G04 #@! TD*
G04 APERTURE END LIST*
D10*
X113627739Y-65573956D02*
G75*
G03*
X113627739Y-65573956I-1000J0D01*
G01*
X108228891Y-65574990D02*
G75*
G03*
X108228891Y-65574990I-100J0D01*
G01*
X113624347Y-63340119D02*
G75*
G03*
X113624347Y-63340119I-100J0D01*
G01*
X108228804Y-63340120D02*
G75*
G03*
X108228804Y-63340120I-10J0D01*
G01*
X109825110Y-61728793D02*
G75*
G03*
X109825110Y-61728793I-100J0D01*
G01*
X112059981Y-67124249D02*
G75*
G03*
X112059981Y-67124249I-100J0D01*
G01*
X112059890Y-61728796D02*
G75*
G03*
X112059890Y-61728796I-10J0D01*
G01*
X109827044Y-67126741D02*
G75*
G03*
X109827044Y-67126741I-1000J0D01*
G01*
D11*
X113997999Y-74483001D03*
X107901999Y-74483001D03*
D12*
X109938999Y-59878001D03*
X111838999Y-59878001D03*
D13*
X109443999Y-78428001D03*
X110443999Y-78428001D03*
X111443999Y-78428001D03*
X112443999Y-78428001D03*
D14*
X113743999Y-82103001D03*
X108143999Y-82103001D03*
D11*
X109933999Y-74483001D03*
D12*
X109999999Y-64450001D03*
X111899999Y-64450001D03*
D11*
X111965999Y-74483001D03*
D15*
X113626739Y-65573956D03*
D16*
X108228791Y-65574990D03*
X108228794Y-63340120D03*
X113624247Y-63340119D03*
D17*
X109826044Y-67126741D03*
D16*
X109825010Y-61728793D03*
X112059880Y-61728796D03*
X112059881Y-67124249D03*
D18*
X109933999Y-74483001D02*
X109933999Y-72197001D01*
X109933999Y-74483001D02*
X109933999Y-76007001D01*
X109825010Y-61728793D02*
X109825010Y-59991990D01*
X109868291Y-64323001D02*
X109761855Y-64216565D01*
X108181563Y-65567437D02*
X109425999Y-64323001D01*
X109933999Y-72197001D02*
X108252271Y-70515273D01*
X109825010Y-59991990D02*
X109938999Y-59878001D01*
X109425999Y-64323001D02*
X109868291Y-64323001D01*
X109933999Y-76007001D02*
X110443999Y-76517001D01*
X110443999Y-76517001D02*
X110443999Y-78428001D01*
X108252271Y-70515273D02*
X108252271Y-65567437D01*
X109761855Y-64216565D02*
X109761855Y-61752273D01*
X110441999Y-71308001D02*
X109833366Y-70699368D01*
X109833366Y-70699368D02*
X109833366Y-67167002D01*
X111965999Y-74483001D02*
X111965999Y-71943001D01*
X111965999Y-76007001D02*
X111965999Y-74483001D01*
X111443999Y-76529001D02*
X111965999Y-76007001D01*
X111330999Y-71308001D02*
X110441999Y-71308001D01*
X111443999Y-78428001D02*
X111443999Y-76529001D01*
X111163417Y-65847001D02*
X113396219Y-65847001D01*
X111965999Y-71943001D02*
X111330999Y-71308001D01*
X109833598Y-67176820D02*
X111163417Y-65847001D01*
X113396219Y-65847001D02*
X113650219Y-65593001D01*
X112443999Y-76672001D02*
X112981999Y-76134001D01*
X114538771Y-67211229D02*
X112067435Y-67211229D01*
X113647727Y-63396065D02*
X114722063Y-63396065D01*
X112981999Y-76134001D02*
X113743999Y-76134001D01*
X115013999Y-66736001D02*
X114538771Y-67211229D01*
X112443999Y-78428001D02*
X112443999Y-76672001D01*
X112067203Y-70012205D02*
X112067203Y-67164510D01*
X113997999Y-71943001D02*
X112067203Y-70012205D01*
X113997999Y-75880001D02*
X113997999Y-74483001D01*
X113743999Y-76134001D02*
X113997999Y-75880001D01*
X114722063Y-63396065D02*
X115013999Y-63688001D01*
X115013999Y-63688001D02*
X115013999Y-66736001D01*
X113997999Y-74483001D02*
X113997999Y-71943001D01*
X107901999Y-73086001D02*
X107901999Y-74483001D01*
X113235999Y-59497001D02*
X112854999Y-59878001D01*
X106250999Y-63053001D02*
X106250999Y-63281436D01*
X111838999Y-64297436D02*
X112067434Y-64069001D01*
X108143999Y-78428001D02*
X109443999Y-78428001D01*
X113235999Y-58735001D02*
X113235999Y-59497001D01*
X112067434Y-59318871D02*
X111483564Y-58735001D01*
X109443999Y-78428001D02*
X108163999Y-78428001D01*
X107901999Y-78166001D02*
X107901999Y-74483001D01*
X112854999Y-59878001D02*
X111838999Y-59878001D01*
X108143999Y-82103001D02*
X108143999Y-78428001D01*
X108163999Y-78428001D02*
X107901999Y-78166001D01*
X106250999Y-71435001D02*
X107901999Y-73086001D01*
X106250999Y-71435001D02*
X106250999Y-63053001D01*
X111483564Y-58735001D02*
X113235999Y-58735001D01*
X112067434Y-64069001D02*
X112067434Y-59318871D01*
X113743999Y-82103001D02*
X108143999Y-82103001D01*
X107114434Y-58735001D02*
X106250999Y-59598436D01*
X106250999Y-63281436D02*
X106276564Y-63307001D01*
X106250999Y-59598436D02*
X106250999Y-63053001D01*
X111483564Y-58735001D02*
X107114434Y-58735001D01*
X106276564Y-63307001D02*
X108252273Y-63307001D01*
G04 #@! TA.AperFunction,Conductor*
G36*
X109174636Y-58628503D02*
G01*
X109221129Y-58682159D01*
X109231233Y-58752433D01*
X109201739Y-58817013D01*
X109195688Y-58823519D01*
X109089694Y-58929698D01*
X108996884Y-59080263D01*
X108941202Y-59248140D01*
X108930499Y-59352601D01*
X108930499Y-60403401D01*
X108930836Y-60406647D01*
X108930836Y-60406651D01*
X108940617Y-60500915D01*
X108941473Y-60509167D01*
X108943656Y-60515709D01*
X108943656Y-60515711D01*
X108979993Y-60624626D01*
X108982578Y-60695576D01*
X108949565Y-60753598D01*
X108818735Y-60884428D01*
X108687400Y-61071994D01*
X108685077Y-61076976D01*
X108685074Y-61076981D01*
X108592954Y-61274534D01*
X108590631Y-61279516D01*
X108531368Y-61500689D01*
X108511411Y-61728793D01*
X108511890Y-61734268D01*
X108511890Y-61734279D01*
X108526760Y-61904235D01*
X108512772Y-61973840D01*
X108463373Y-62024832D01*
X108390259Y-62040738D01*
X108234270Y-62027091D01*
X108234269Y-62027091D01*
X108228794Y-62026612D01*
X108000706Y-62046567D01*
X107995393Y-62047991D01*
X107995391Y-62047991D01*
X107784858Y-62104403D01*
X107784856Y-62104404D01*
X107779548Y-62105826D01*
X107774568Y-62108148D01*
X107774566Y-62108149D01*
X107577021Y-62200266D01*
X107577018Y-62200268D01*
X107572040Y-62202589D01*
X107384487Y-62333914D01*
X107222588Y-62495813D01*
X107091263Y-62683366D01*
X107088942Y-62688344D01*
X107088940Y-62688347D01*
X106997283Y-62884906D01*
X106994500Y-62890874D01*
X106993078Y-62896182D01*
X106993077Y-62896184D01*
X106946474Y-63070108D01*
X106935241Y-63112032D01*
X106915286Y-63340120D01*
X106935241Y-63568208D01*
X106936665Y-63573521D01*
X106936665Y-63573523D01*
X106981317Y-63740165D01*
X106994500Y-63789366D01*
X107091263Y-63996874D01*
X107222588Y-64184427D01*
X107384487Y-64346326D01*
X107395857Y-64354287D01*
X107440184Y-64409743D01*
X107447493Y-64480363D01*
X107415462Y-64543723D01*
X107395855Y-64560713D01*
X107384426Y-64568715D01*
X107222516Y-64730625D01*
X107091181Y-64918191D01*
X107088858Y-64923173D01*
X107088855Y-64923178D01*
X106996735Y-65120731D01*
X106994412Y-65125713D01*
X106992990Y-65131021D01*
X106992989Y-65131023D01*
X106966863Y-65228527D01*
X106935149Y-65346886D01*
X106915192Y-65574990D01*
X106935149Y-65803094D01*
X106936573Y-65808407D01*
X106936573Y-65808409D01*
X106955861Y-65880391D01*
X106994412Y-66024267D01*
X106996734Y-66029248D01*
X106996735Y-66029249D01*
X107088855Y-66226802D01*
X107088858Y-66226807D01*
X107091181Y-66231789D01*
X107222516Y-66419355D01*
X107384426Y-66581265D01*
X107562746Y-66706126D01*
X107565042Y-66707734D01*
X107609370Y-66763191D01*
X107618771Y-66810947D01*
X107618771Y-70436506D01*
X107618244Y-70447689D01*
X107616569Y-70455182D01*
X107616818Y-70463108D01*
X107616818Y-70463109D01*
X107618709Y-70523259D01*
X107618771Y-70527218D01*
X107618771Y-70555129D01*
X107619268Y-70559063D01*
X107619268Y-70559064D01*
X107619276Y-70559129D01*
X107620209Y-70570966D01*
X107621598Y-70615162D01*
X107624138Y-70623904D01*
X107627249Y-70634612D01*
X107631258Y-70653973D01*
X107633797Y-70674070D01*
X107636716Y-70681441D01*
X107636716Y-70681443D01*
X107650075Y-70715185D01*
X107653920Y-70726415D01*
X107664042Y-70761256D01*
X107666253Y-70768866D01*
X107670286Y-70775685D01*
X107670288Y-70775690D01*
X107676564Y-70786301D01*
X107685259Y-70804049D01*
X107692719Y-70822890D01*
X107697381Y-70829306D01*
X107697381Y-70829307D01*
X107718707Y-70858660D01*
X107725223Y-70868580D01*
X107747729Y-70906635D01*
X107762050Y-70920956D01*
X107774890Y-70935989D01*
X107786799Y-70952380D01*
X107792905Y-70957431D01*
X107820876Y-70980571D01*
X107829655Y-70988561D01*
X109263594Y-72422500D01*
X109297620Y-72484812D01*
X109300499Y-72511595D01*
X109300499Y-73402619D01*
X109280497Y-73470740D01*
X109226841Y-73517233D01*
X109218730Y-73520600D01*
X109195706Y-73529232D01*
X109195703Y-73529233D01*
X109187294Y-73532386D01*
X109070738Y-73619740D01*
X109018826Y-73689007D01*
X109018513Y-73689424D01*
X108961654Y-73731939D01*
X108890836Y-73736965D01*
X108828542Y-73702905D01*
X108816861Y-73689424D01*
X108770285Y-73627278D01*
X108757723Y-73614716D01*
X108655648Y-73538215D01*
X108640053Y-73529677D01*
X108519605Y-73484523D01*
X108504350Y-73480896D01*
X108453485Y-73475370D01*
X108446671Y-73475001D01*
X108174114Y-73475001D01*
X108158875Y-73479476D01*
X108157670Y-73480866D01*
X108155999Y-73488549D01*
X108155999Y-75472885D01*
X108160474Y-75488124D01*
X108161864Y-75489329D01*
X108169547Y-75491000D01*
X108446668Y-75491000D01*
X108453489Y-75490630D01*
X108504351Y-75485106D01*
X108519603Y-75481480D01*
X108640053Y-75436325D01*
X108655648Y-75427787D01*
X108757723Y-75351286D01*
X108770285Y-75338724D01*
X108816861Y-75276578D01*
X108873720Y-75234063D01*
X108944539Y-75229037D01*
X109006832Y-75263097D01*
X109018511Y-75276575D01*
X109070738Y-75346262D01*
X109187294Y-75433616D01*
X109195703Y-75436769D01*
X109195706Y-75436770D01*
X109218730Y-75445402D01*
X109275494Y-75488044D01*
X109300193Y-75554606D01*
X109300499Y-75563383D01*
X109300499Y-75928234D01*
X109299972Y-75939417D01*
X109298297Y-75946910D01*
X109298546Y-75954836D01*
X109298546Y-75954837D01*
X109300437Y-76014987D01*
X109300499Y-76018946D01*
X109300499Y-76046857D01*
X109300996Y-76050791D01*
X109300996Y-76050792D01*
X109301004Y-76050857D01*
X109301937Y-76062694D01*
X109303326Y-76106890D01*
X109307718Y-76122006D01*
X109308977Y-76126340D01*
X109312986Y-76145701D01*
X109315525Y-76165798D01*
X109318444Y-76173169D01*
X109318444Y-76173171D01*
X109331803Y-76206913D01*
X109335648Y-76218143D01*
X109345770Y-76252984D01*
X109347981Y-76260594D01*
X109352014Y-76267413D01*
X109352016Y-76267418D01*
X109358292Y-76278029D01*
X109366987Y-76295777D01*
X109374447Y-76314618D01*
X109379109Y-76321034D01*
X109379109Y-76321035D01*
X109400435Y-76350388D01*
X109406951Y-76360308D01*
X109416036Y-76375669D01*
X109429457Y-76398363D01*
X109443778Y-76412684D01*
X109456618Y-76427717D01*
X109468527Y-76444108D01*
X109500412Y-76470485D01*
X109502592Y-76472289D01*
X109511373Y-76480279D01*
X109773595Y-76742502D01*
X109807620Y-76804814D01*
X109810499Y-76831597D01*
X109810499Y-77122965D01*
X109790497Y-77191086D01*
X109736841Y-77237579D01*
X109719997Y-77243861D01*
X109700875Y-77249476D01*
X109699670Y-77250866D01*
X109697999Y-77258549D01*
X109697999Y-77471143D01*
X109689981Y-77515372D01*
X109645028Y-77635283D01*
X109645026Y-77635289D01*
X109642254Y-77642685D01*
X109635499Y-77704867D01*
X109635499Y-79151135D01*
X109642254Y-79213317D01*
X109645026Y-79220713D01*
X109645028Y-79220719D01*
X109689981Y-79340630D01*
X109697999Y-79384859D01*
X109697999Y-79592885D01*
X109702474Y-79608124D01*
X109703864Y-79609329D01*
X109711547Y-79611000D01*
X109788668Y-79611000D01*
X109795489Y-79610630D01*
X109846351Y-79605106D01*
X109861603Y-79601480D01*
X109899057Y-79587439D01*
X109969864Y-79582256D01*
X109987515Y-79587439D01*
X110033683Y-79604746D01*
X110095865Y-79611501D01*
X110792133Y-79611501D01*
X110796745Y-79611000D01*
X110846465Y-79605599D01*
X110846467Y-79605599D01*
X110854315Y-79604746D01*
X110861708Y-79601974D01*
X110861710Y-79601974D01*
X110899770Y-79587706D01*
X110970577Y-79582523D01*
X110988228Y-79587706D01*
X111026288Y-79601974D01*
X111026290Y-79601974D01*
X111033683Y-79604746D01*
X111041531Y-79605599D01*
X111041533Y-79605599D01*
X111091253Y-79611000D01*
X111095865Y-79611501D01*
X111792133Y-79611501D01*
X111796745Y-79611000D01*
X111846465Y-79605599D01*
X111846467Y-79605599D01*
X111854315Y-79604746D01*
X111861708Y-79601974D01*
X111861710Y-79601974D01*
X111899770Y-79587706D01*
X111970577Y-79582523D01*
X111988228Y-79587706D01*
X112026288Y-79601974D01*
X112026290Y-79601974D01*
X112033683Y-79604746D01*
X112041531Y-79605599D01*
X112041533Y-79605599D01*
X112091253Y-79611000D01*
X112095865Y-79611501D01*
X112792133Y-79611501D01*
X112854315Y-79604746D01*
X112990704Y-79553616D01*
X113107260Y-79466262D01*
X113194614Y-79349706D01*
X113245744Y-79213317D01*
X113252499Y-79151135D01*
X113252499Y-77704867D01*
X113245744Y-77642685D01*
X113194614Y-77506296D01*
X113107260Y-77389740D01*
X113108864Y-77388538D01*
X113080378Y-77336371D01*
X113077499Y-77309588D01*
X113077499Y-76986596D01*
X113097501Y-76918475D01*
X113114404Y-76897500D01*
X113207500Y-76804405D01*
X113269812Y-76770380D01*
X113296595Y-76767501D01*
X113665232Y-76767501D01*
X113676415Y-76768028D01*
X113683908Y-76769703D01*
X113691834Y-76769454D01*
X113691835Y-76769454D01*
X113751985Y-76767563D01*
X113755944Y-76767501D01*
X113783855Y-76767501D01*
X113787790Y-76767004D01*
X113787855Y-76766996D01*
X113799692Y-76766063D01*
X113831950Y-76765049D01*
X113835969Y-76764923D01*
X113843888Y-76764674D01*
X113863342Y-76759022D01*
X113882699Y-76755014D01*
X113894929Y-76753469D01*
X113894930Y-76753469D01*
X113902796Y-76752475D01*
X113910167Y-76749556D01*
X113910169Y-76749556D01*
X113943911Y-76736197D01*
X113955141Y-76732352D01*
X113989982Y-76722230D01*
X113989983Y-76722230D01*
X113997592Y-76720019D01*
X114004411Y-76715986D01*
X114004416Y-76715984D01*
X114015027Y-76709708D01*
X114032775Y-76701013D01*
X114051616Y-76693553D01*
X114087386Y-76667565D01*
X114097306Y-76661049D01*
X114128534Y-76642581D01*
X114128537Y-76642579D01*
X114135361Y-76638543D01*
X114149682Y-76624222D01*
X114164716Y-76611381D01*
X114174693Y-76604132D01*
X114181106Y-76599473D01*
X114209297Y-76565396D01*
X114217287Y-76556617D01*
X114390246Y-76383658D01*
X114398536Y-76376114D01*
X114405017Y-76372001D01*
X114451658Y-76322333D01*
X114454412Y-76319492D01*
X114474133Y-76299771D01*
X114476611Y-76296576D01*
X114484317Y-76287554D01*
X114509157Y-76261102D01*
X114514585Y-76255322D01*
X114524345Y-76237569D01*
X114535198Y-76221046D01*
X114537450Y-76218143D01*
X114547612Y-76205042D01*
X114565175Y-76164458D01*
X114570382Y-76153828D01*
X114591694Y-76115061D01*
X114593665Y-76107384D01*
X114593667Y-76107379D01*
X114596731Y-76095443D01*
X114603137Y-76076731D01*
X114608032Y-76065420D01*
X114611180Y-76058146D01*
X114612420Y-76050318D01*
X114612422Y-76050311D01*
X114618098Y-76014477D01*
X114620504Y-76002857D01*
X114629527Y-75967712D01*
X114629527Y-75967711D01*
X114631499Y-75960031D01*
X114631499Y-75939777D01*
X114633050Y-75920066D01*
X114634979Y-75907887D01*
X114636219Y-75900058D01*
X114632058Y-75856039D01*
X114631499Y-75844182D01*
X114631499Y-75563383D01*
X114651501Y-75495262D01*
X114705157Y-75448769D01*
X114713268Y-75445402D01*
X114736292Y-75436770D01*
X114736295Y-75436769D01*
X114744704Y-75433616D01*
X114861260Y-75346262D01*
X114948614Y-75229706D01*
X114999744Y-75093317D01*
X115006499Y-75031135D01*
X115006499Y-73934867D01*
X114999744Y-73872685D01*
X114948614Y-73736296D01*
X114861260Y-73619740D01*
X114744704Y-73532386D01*
X114736295Y-73529233D01*
X114736292Y-73529232D01*
X114713268Y-73520600D01*
X114656504Y-73477958D01*
X114631805Y-73411396D01*
X114631499Y-73402619D01*
X114631499Y-72021768D01*
X114632026Y-72010585D01*
X114633701Y-72003092D01*
X114631561Y-71935001D01*
X114631499Y-71931044D01*
X114631499Y-71903145D01*
X114630995Y-71899154D01*
X114630062Y-71887312D01*
X114628922Y-71851037D01*
X114628673Y-71843112D01*
X114626460Y-71835494D01*
X114626460Y-71835493D01*
X114623022Y-71823660D01*
X114619011Y-71804296D01*
X114617466Y-71792065D01*
X114616473Y-71784204D01*
X114613556Y-71776837D01*
X114613555Y-71776832D01*
X114600197Y-71743093D01*
X114596353Y-71731866D01*
X114586229Y-71697023D01*
X114584017Y-71689408D01*
X114573706Y-71671973D01*
X114565011Y-71654225D01*
X114557551Y-71635384D01*
X114531563Y-71599614D01*
X114525047Y-71589694D01*
X114506579Y-71558466D01*
X114506577Y-71558463D01*
X114502541Y-71551639D01*
X114488220Y-71537318D01*
X114475379Y-71522284D01*
X114468130Y-71512307D01*
X114463471Y-71505894D01*
X114429394Y-71477703D01*
X114420615Y-71469713D01*
X112737608Y-69786705D01*
X112703582Y-69724393D01*
X112700703Y-69697610D01*
X112700703Y-68338638D01*
X112720705Y-68270517D01*
X112754432Y-68235425D01*
X112899735Y-68133683D01*
X112899738Y-68133681D01*
X112904246Y-68130524D01*
X113066156Y-67968614D01*
X113108323Y-67908394D01*
X113115280Y-67898458D01*
X113170737Y-67854130D01*
X113218493Y-67844729D01*
X114460004Y-67844729D01*
X114471187Y-67845256D01*
X114478680Y-67846931D01*
X114486606Y-67846682D01*
X114486607Y-67846682D01*
X114546757Y-67844791D01*
X114550716Y-67844729D01*
X114578627Y-67844729D01*
X114582562Y-67844232D01*
X114582627Y-67844224D01*
X114594464Y-67843291D01*
X114626722Y-67842277D01*
X114630741Y-67842151D01*
X114638660Y-67841902D01*
X114658114Y-67836250D01*
X114677471Y-67832242D01*
X114689701Y-67830697D01*
X114689702Y-67830697D01*
X114697568Y-67829703D01*
X114704939Y-67826784D01*
X114704941Y-67826784D01*
X114738683Y-67813425D01*
X114749913Y-67809580D01*
X114784754Y-67799458D01*
X114784755Y-67799458D01*
X114792364Y-67797247D01*
X114799183Y-67793214D01*
X114799188Y-67793212D01*
X114809799Y-67786936D01*
X114827547Y-67778241D01*
X114846388Y-67770781D01*
X114882158Y-67744793D01*
X114892078Y-67738277D01*
X114923306Y-67719809D01*
X114923309Y-67719807D01*
X114930133Y-67715771D01*
X114944454Y-67701450D01*
X114959488Y-67688609D01*
X114969464Y-67681361D01*
X114975878Y-67676701D01*
X115004059Y-67642636D01*
X115012049Y-67633855D01*
X115406257Y-67239648D01*
X115414536Y-67232114D01*
X115421017Y-67228001D01*
X115467643Y-67178349D01*
X115470397Y-67175508D01*
X115490134Y-67155771D01*
X115492614Y-67152574D01*
X115500319Y-67143552D01*
X115525158Y-67117101D01*
X115530585Y-67111322D01*
X115534404Y-67104376D01*
X115534406Y-67104373D01*
X115540347Y-67093567D01*
X115551198Y-67077048D01*
X115558757Y-67067302D01*
X115563613Y-67061042D01*
X115566758Y-67053773D01*
X115566761Y-67053769D01*
X115581173Y-67020464D01*
X115586390Y-67009814D01*
X115607694Y-66971061D01*
X115612732Y-66951438D01*
X115619136Y-66932735D01*
X115624032Y-66921421D01*
X115624032Y-66921420D01*
X115627180Y-66914146D01*
X115628419Y-66906323D01*
X115628422Y-66906313D01*
X115634098Y-66870477D01*
X115636504Y-66858857D01*
X115645527Y-66823712D01*
X115645527Y-66823711D01*
X115647499Y-66816031D01*
X115647499Y-66795777D01*
X115649050Y-66776066D01*
X115650979Y-66763887D01*
X115652219Y-66756058D01*
X115648058Y-66712039D01*
X115647499Y-66700182D01*
X115647499Y-63766768D01*
X115648026Y-63755585D01*
X115649701Y-63748092D01*
X115647561Y-63680001D01*
X115647499Y-63676044D01*
X115647499Y-63648145D01*
X115646995Y-63644154D01*
X115646062Y-63632312D01*
X115644922Y-63596037D01*
X115644673Y-63588112D01*
X115642461Y-63580498D01*
X115642460Y-63580493D01*
X115639022Y-63568660D01*
X115635011Y-63549296D01*
X115633466Y-63537065D01*
X115632473Y-63529204D01*
X115629556Y-63521837D01*
X115629555Y-63521832D01*
X115616197Y-63488093D01*
X115612353Y-63476866D01*
X115602229Y-63442023D01*
X115600017Y-63434408D01*
X115589706Y-63416973D01*
X115581011Y-63399225D01*
X115573551Y-63380384D01*
X115567355Y-63371855D01*
X115547563Y-63344614D01*
X115541047Y-63334694D01*
X115522577Y-63303464D01*
X115518541Y-63296639D01*
X115512935Y-63291032D01*
X115504219Y-63282316D01*
X115491378Y-63267282D01*
X115484130Y-63257306D01*
X115484129Y-63257305D01*
X115479471Y-63250894D01*
X115445406Y-63222713D01*
X115436625Y-63214723D01*
X115225710Y-63003807D01*
X115218176Y-62995528D01*
X115214063Y-62989047D01*
X115164410Y-62942420D01*
X115161569Y-62939666D01*
X115141833Y-62919930D01*
X115138636Y-62917450D01*
X115129614Y-62909745D01*
X115097384Y-62879479D01*
X115090438Y-62875660D01*
X115090435Y-62875658D01*
X115079629Y-62869717D01*
X115063110Y-62858866D01*
X115062646Y-62858506D01*
X115047104Y-62846451D01*
X115039835Y-62843306D01*
X115039831Y-62843303D01*
X115006526Y-62828891D01*
X114995876Y-62823674D01*
X114957123Y-62802370D01*
X114937500Y-62797332D01*
X114918797Y-62790928D01*
X114907483Y-62786032D01*
X114907482Y-62786032D01*
X114900208Y-62782884D01*
X114867124Y-62777644D01*
X114802972Y-62747232D01*
X114772640Y-62706443D01*
X114764187Y-62688315D01*
X114764183Y-62688308D01*
X114761857Y-62683320D01*
X114684721Y-62573158D01*
X114633681Y-62500265D01*
X114633679Y-62500262D01*
X114630522Y-62495754D01*
X114468612Y-62333844D01*
X114281047Y-62202509D01*
X114276065Y-62200186D01*
X114276060Y-62200183D01*
X114078506Y-62108063D01*
X114078505Y-62108063D01*
X114073524Y-62105740D01*
X114068216Y-62104318D01*
X114068214Y-62104317D01*
X113857666Y-62047901D01*
X113857664Y-62047901D01*
X113852351Y-62046477D01*
X113635411Y-62027497D01*
X113629722Y-62026999D01*
X113624247Y-62026520D01*
X113618772Y-62026999D01*
X113618761Y-62026999D01*
X113494795Y-62037845D01*
X113425190Y-62023857D01*
X113374198Y-61974458D01*
X113358292Y-61901343D01*
X113372909Y-61734271D01*
X113373388Y-61728796D01*
X113353433Y-61500708D01*
X113294174Y-61279550D01*
X113197411Y-61072042D01*
X113066086Y-60884489D01*
X112904187Y-60722590D01*
X112868133Y-60697345D01*
X112823806Y-60641889D01*
X112816497Y-60571269D01*
X112820812Y-60554467D01*
X112834135Y-60514297D01*
X112837004Y-60500915D01*
X112846671Y-60406563D01*
X112846999Y-60400147D01*
X112846999Y-60150116D01*
X112842524Y-60134877D01*
X112841134Y-60133672D01*
X112833451Y-60132001D01*
X112111114Y-60132001D01*
X112095875Y-60136476D01*
X112094670Y-60137866D01*
X112092999Y-60145549D01*
X112092999Y-60296932D01*
X112072997Y-60365053D01*
X112019341Y-60411546D01*
X111977981Y-60422453D01*
X111934744Y-60426236D01*
X111831792Y-60435243D01*
X111826479Y-60436667D01*
X111826477Y-60436667D01*
X111743610Y-60458871D01*
X111672633Y-60457181D01*
X111613838Y-60417387D01*
X111585890Y-60352122D01*
X111584999Y-60337164D01*
X111584999Y-59750001D01*
X111605001Y-59681880D01*
X111658657Y-59635387D01*
X111710999Y-59624001D01*
X112828883Y-59624001D01*
X112844122Y-59619526D01*
X112845327Y-59618136D01*
X112846998Y-59610453D01*
X112846998Y-59355906D01*
X112846661Y-59349387D01*
X112836742Y-59253795D01*
X112833850Y-59240401D01*
X112782411Y-59086217D01*
X112776238Y-59073039D01*
X112690936Y-58935194D01*
X112681900Y-58923793D01*
X112581607Y-58823674D01*
X112547528Y-58761391D01*
X112552531Y-58690571D01*
X112595028Y-58633698D01*
X112661527Y-58608830D01*
X112670625Y-58608501D01*
X116665499Y-58608501D01*
X116733620Y-58628503D01*
X116780113Y-58682159D01*
X116791499Y-58734501D01*
X116791499Y-82865501D01*
X116771497Y-82933622D01*
X116717841Y-82980115D01*
X116665499Y-82991501D01*
X114977999Y-82991501D01*
X114909878Y-82971499D01*
X114863385Y-82917843D01*
X114851999Y-82865501D01*
X114851999Y-82375116D01*
X114847524Y-82359877D01*
X114846134Y-82358672D01*
X114838451Y-82357001D01*
X112654115Y-82357001D01*
X112638876Y-82361476D01*
X112637671Y-82362866D01*
X112636000Y-82370549D01*
X112636000Y-82865501D01*
X112615998Y-82933622D01*
X112562342Y-82980115D01*
X112510000Y-82991501D01*
X109377999Y-82991501D01*
X109309878Y-82971499D01*
X109263385Y-82917843D01*
X109251999Y-82865501D01*
X109251999Y-82375116D01*
X109247524Y-82359877D01*
X109246134Y-82358672D01*
X109238451Y-82357001D01*
X107054115Y-82357001D01*
X107038876Y-82361476D01*
X107037671Y-82362866D01*
X107036000Y-82370549D01*
X107036000Y-82865501D01*
X107015998Y-82933622D01*
X106962342Y-82980115D01*
X106910000Y-82991501D01*
X105234499Y-82991501D01*
X105166378Y-82971499D01*
X105119885Y-82917843D01*
X105108499Y-82865501D01*
X105108499Y-81830886D01*
X107035999Y-81830886D01*
X107040474Y-81846125D01*
X107041864Y-81847330D01*
X107049547Y-81849001D01*
X107871884Y-81849001D01*
X107887123Y-81844526D01*
X107888328Y-81843136D01*
X107889999Y-81835453D01*
X107889999Y-81830886D01*
X108397999Y-81830886D01*
X108402474Y-81846125D01*
X108403864Y-81847330D01*
X108411547Y-81849001D01*
X109233883Y-81849001D01*
X109249122Y-81844526D01*
X109250327Y-81843136D01*
X109251998Y-81835453D01*
X109251998Y-81830886D01*
X112635999Y-81830886D01*
X112640474Y-81846125D01*
X112641864Y-81847330D01*
X112649547Y-81849001D01*
X113471884Y-81849001D01*
X113487123Y-81844526D01*
X113488328Y-81843136D01*
X113489999Y-81835453D01*
X113489999Y-81830886D01*
X113997999Y-81830886D01*
X114002474Y-81846125D01*
X114003864Y-81847330D01*
X114011547Y-81849001D01*
X114833883Y-81849001D01*
X114849122Y-81844526D01*
X114850327Y-81843136D01*
X114851998Y-81835453D01*
X114851998Y-81058332D01*
X114851628Y-81051511D01*
X114846104Y-81000649D01*
X114842478Y-80985397D01*
X114797323Y-80864947D01*
X114788785Y-80849352D01*
X114712284Y-80747277D01*
X114699723Y-80734716D01*
X114597648Y-80658215D01*
X114582053Y-80649677D01*
X114461605Y-80604523D01*
X114446350Y-80600896D01*
X114395485Y-80595370D01*
X114388671Y-80595001D01*
X114016114Y-80595001D01*
X114000875Y-80599476D01*
X113999670Y-80600866D01*
X113997999Y-80608549D01*
X113997999Y-81830886D01*
X113489999Y-81830886D01*
X113489999Y-80613117D01*
X113485524Y-80597878D01*
X113484134Y-80596673D01*
X113476451Y-80595002D01*
X113099330Y-80595002D01*
X113092509Y-80595372D01*
X113041647Y-80600896D01*
X113026395Y-80604522D01*
X112905945Y-80649677D01*
X112890350Y-80658215D01*
X112788275Y-80734716D01*
X112775714Y-80747277D01*
X112699213Y-80849352D01*
X112690675Y-80864947D01*
X112645521Y-80985395D01*
X112641894Y-81000650D01*
X112636368Y-81051515D01*
X112635999Y-81058329D01*
X112635999Y-81830886D01*
X109251998Y-81830886D01*
X109251998Y-81058332D01*
X109251628Y-81051511D01*
X109246104Y-81000649D01*
X109242478Y-80985397D01*
X109197323Y-80864947D01*
X109188785Y-80849352D01*
X109112284Y-80747277D01*
X109099723Y-80734716D01*
X108997648Y-80658215D01*
X108982053Y-80649677D01*
X108861605Y-80604523D01*
X108846350Y-80600896D01*
X108795485Y-80595370D01*
X108788671Y-80595001D01*
X108416114Y-80595001D01*
X108400875Y-80599476D01*
X108399670Y-80600866D01*
X108397999Y-80608549D01*
X108397999Y-81830886D01*
X107889999Y-81830886D01*
X107889999Y-80613117D01*
X107885524Y-80597878D01*
X107884134Y-80596673D01*
X107876451Y-80595002D01*
X107499330Y-80595002D01*
X107492509Y-80595372D01*
X107441647Y-80600896D01*
X107426395Y-80604522D01*
X107305945Y-80649677D01*
X107290350Y-80658215D01*
X107188275Y-80734716D01*
X107175714Y-80747277D01*
X107099213Y-80849352D01*
X107090675Y-80864947D01*
X107045521Y-80985395D01*
X107041894Y-81000650D01*
X107036368Y-81051515D01*
X107035999Y-81058329D01*
X107035999Y-81830886D01*
X105108499Y-81830886D01*
X105108499Y-79147670D01*
X108636000Y-79147670D01*
X108636370Y-79154491D01*
X108641894Y-79205353D01*
X108645520Y-79220605D01*
X108690675Y-79341055D01*
X108699213Y-79356650D01*
X108775714Y-79458725D01*
X108788275Y-79471286D01*
X108890350Y-79547787D01*
X108905945Y-79556325D01*
X109026393Y-79601479D01*
X109041648Y-79605106D01*
X109092513Y-79610632D01*
X109099327Y-79611001D01*
X109171884Y-79611001D01*
X109187123Y-79606526D01*
X109188328Y-79605136D01*
X109189999Y-79597453D01*
X109189999Y-78700116D01*
X109185524Y-78684877D01*
X109184134Y-78683672D01*
X109176451Y-78682001D01*
X108654115Y-78682001D01*
X108638876Y-78686476D01*
X108637671Y-78687866D01*
X108636000Y-78695549D01*
X108636000Y-79147670D01*
X105108499Y-79147670D01*
X105108499Y-78155886D01*
X108635999Y-78155886D01*
X108640474Y-78171125D01*
X108641864Y-78172330D01*
X108649547Y-78174001D01*
X109171884Y-78174001D01*
X109187123Y-78169526D01*
X109188328Y-78168136D01*
X109189999Y-78160453D01*
X109189999Y-77263117D01*
X109185524Y-77247878D01*
X109184134Y-77246673D01*
X109176451Y-77245002D01*
X109099330Y-77245002D01*
X109092509Y-77245372D01*
X109041647Y-77250896D01*
X109026395Y-77254522D01*
X108905945Y-77299677D01*
X108890350Y-77308215D01*
X108788275Y-77384716D01*
X108775714Y-77397277D01*
X108699213Y-77499352D01*
X108690675Y-77514947D01*
X108645521Y-77635395D01*
X108641894Y-77650650D01*
X108636368Y-77701515D01*
X108635999Y-77708329D01*
X108635999Y-78155886D01*
X105108499Y-78155886D01*
X105108499Y-75027670D01*
X106894000Y-75027670D01*
X106894370Y-75034491D01*
X106899894Y-75085353D01*
X106903520Y-75100605D01*
X106948675Y-75221055D01*
X106957213Y-75236650D01*
X107033714Y-75338725D01*
X107046275Y-75351286D01*
X107148350Y-75427787D01*
X107163945Y-75436325D01*
X107284393Y-75481479D01*
X107299648Y-75485106D01*
X107350513Y-75490632D01*
X107357327Y-75491001D01*
X107629884Y-75491001D01*
X107645123Y-75486526D01*
X107646328Y-75485136D01*
X107647999Y-75477453D01*
X107647999Y-74755116D01*
X107643524Y-74739877D01*
X107642134Y-74738672D01*
X107634451Y-74737001D01*
X106912115Y-74737001D01*
X106896876Y-74741476D01*
X106895671Y-74742866D01*
X106894000Y-74750549D01*
X106894000Y-75027670D01*
X105108499Y-75027670D01*
X105108499Y-74210886D01*
X106893999Y-74210886D01*
X106898474Y-74226125D01*
X106899864Y-74227330D01*
X106907547Y-74229001D01*
X107629884Y-74229001D01*
X107645123Y-74224526D01*
X107646328Y-74223136D01*
X107647999Y-74215453D01*
X107647999Y-73493117D01*
X107643524Y-73477878D01*
X107642134Y-73476673D01*
X107634451Y-73475002D01*
X107357330Y-73475002D01*
X107350509Y-73475372D01*
X107299647Y-73480896D01*
X107284395Y-73484522D01*
X107163945Y-73529677D01*
X107148350Y-73538215D01*
X107046275Y-73614716D01*
X107033714Y-73627277D01*
X106957213Y-73729352D01*
X106948675Y-73744947D01*
X106903521Y-73865395D01*
X106899894Y-73880650D01*
X106894368Y-73931515D01*
X106893999Y-73938329D01*
X106893999Y-74210886D01*
X105108499Y-74210886D01*
X105108499Y-58734501D01*
X105128501Y-58666380D01*
X105182157Y-58619887D01*
X105234499Y-58608501D01*
X109106515Y-58608501D01*
X109174636Y-58628503D01*
G37*
G04 #@! TD.AperFunction*
M02*
