G04 #@! TF.GenerationSoftware,KiCad,Pcbnew,(6.0.7)*
G04 #@! TF.CreationDate,2022-08-12T11:37:01-07:00*
G04 #@! TF.ProjectId,mlx90640-breakout,6d6c7839-3036-4343-902d-627265616b6f,rev?*
G04 #@! TF.SameCoordinates,Original*
G04 #@! TF.FileFunction,Legend,Top*
G04 #@! TF.FilePolarity,Positive*
%FSLAX46Y46*%
G04 Gerber Fmt 4.6, Leading zero omitted, Abs format (unit mm)*
G04 Created by KiCad (PCBNEW (6.0.7)) date 2022-08-12 11:37:01*
%MOMM*%
%LPD*%
G01*
G04 APERTURE LIST*
%ADD10C,0.050000*%
%ADD11C,0.100000*%
%ADD12C,0.075000*%
%ADD13C,0.120000*%
%ADD14C,0.203200*%
G04 APERTURE END LIST*
D10*
X116275284Y-82707715D02*
X116260999Y-82693429D01*
X116246713Y-82664858D01*
X116246713Y-82593429D01*
X116260999Y-82564858D01*
X116275284Y-82550572D01*
X116303856Y-82536286D01*
X116332427Y-82536286D01*
X116375284Y-82550572D01*
X116546713Y-82722001D01*
X116546713Y-82536286D01*
X116246713Y-82350572D02*
X116246713Y-82322001D01*
X116260999Y-82293429D01*
X116275284Y-82279143D01*
X116303856Y-82264858D01*
X116360999Y-82250572D01*
X116432427Y-82250572D01*
X116489570Y-82264858D01*
X116518141Y-82279143D01*
X116532427Y-82293429D01*
X116546713Y-82322001D01*
X116546713Y-82350572D01*
X116532427Y-82379143D01*
X116518141Y-82393429D01*
X116489570Y-82407715D01*
X116432427Y-82422001D01*
X116360999Y-82422001D01*
X116303856Y-82407715D01*
X116275284Y-82393429D01*
X116260999Y-82379143D01*
X116246713Y-82350572D01*
X116275284Y-82136286D02*
X116260999Y-82122001D01*
X116246713Y-82093429D01*
X116246713Y-82022001D01*
X116260999Y-81993429D01*
X116275284Y-81979143D01*
X116303856Y-81964858D01*
X116332427Y-81964858D01*
X116375284Y-81979143D01*
X116546713Y-82150572D01*
X116546713Y-81964858D01*
X116275284Y-81850572D02*
X116260999Y-81836286D01*
X116246713Y-81807715D01*
X116246713Y-81736286D01*
X116260999Y-81707715D01*
X116275284Y-81693429D01*
X116303856Y-81679143D01*
X116332427Y-81679143D01*
X116375284Y-81693429D01*
X116546713Y-81864858D01*
X116546713Y-81679143D01*
X116432427Y-81550572D02*
X116432427Y-81322001D01*
X116246713Y-81122001D02*
X116246713Y-81093429D01*
X116260999Y-81064858D01*
X116275284Y-81050572D01*
X116303856Y-81036286D01*
X116360999Y-81022001D01*
X116432427Y-81022001D01*
X116489570Y-81036286D01*
X116518141Y-81050572D01*
X116532427Y-81064858D01*
X116546713Y-81093429D01*
X116546713Y-81122001D01*
X116532427Y-81150572D01*
X116518141Y-81164858D01*
X116489570Y-81179143D01*
X116432427Y-81193429D01*
X116360999Y-81193429D01*
X116303856Y-81179143D01*
X116275284Y-81164858D01*
X116260999Y-81150572D01*
X116246713Y-81122001D01*
X116375284Y-80850572D02*
X116360999Y-80879143D01*
X116346713Y-80893429D01*
X116318141Y-80907715D01*
X116303856Y-80907715D01*
X116275284Y-80893429D01*
X116260999Y-80879143D01*
X116246713Y-80850572D01*
X116246713Y-80793429D01*
X116260999Y-80764858D01*
X116275284Y-80750572D01*
X116303856Y-80736286D01*
X116318141Y-80736286D01*
X116346713Y-80750572D01*
X116360999Y-80764858D01*
X116375284Y-80793429D01*
X116375284Y-80850572D01*
X116389570Y-80879143D01*
X116403856Y-80893429D01*
X116432427Y-80907715D01*
X116489570Y-80907715D01*
X116518141Y-80893429D01*
X116532427Y-80879143D01*
X116546713Y-80850572D01*
X116546713Y-80793429D01*
X116532427Y-80764858D01*
X116518141Y-80750572D01*
X116489570Y-80736286D01*
X116432427Y-80736286D01*
X116403856Y-80750572D01*
X116389570Y-80764858D01*
X116375284Y-80793429D01*
D11*
X106014427Y-67834001D02*
X105614427Y-67834001D01*
X105671570Y-67834001D02*
X105642999Y-67805429D01*
X105614427Y-67748286D01*
X105614427Y-67662572D01*
X105642999Y-67605429D01*
X105700141Y-67576858D01*
X106014427Y-67576858D01*
X105700141Y-67576858D02*
X105642999Y-67548286D01*
X105614427Y-67491143D01*
X105614427Y-67405429D01*
X105642999Y-67348286D01*
X105700141Y-67319715D01*
X106014427Y-67319715D01*
X106014427Y-66948286D02*
X105985856Y-67005429D01*
X105928713Y-67034001D01*
X105414427Y-67034001D01*
X106014427Y-66776858D02*
X105614427Y-66462572D01*
X105614427Y-66776858D02*
X106014427Y-66462572D01*
X106014427Y-66205429D02*
X106014427Y-66091143D01*
X105985856Y-66034001D01*
X105957284Y-66005429D01*
X105871570Y-65948286D01*
X105757284Y-65919715D01*
X105528713Y-65919715D01*
X105471570Y-65948286D01*
X105442999Y-65976858D01*
X105414427Y-66034001D01*
X105414427Y-66148286D01*
X105442999Y-66205429D01*
X105471570Y-66234001D01*
X105528713Y-66262572D01*
X105671570Y-66262572D01*
X105728713Y-66234001D01*
X105757284Y-66205429D01*
X105785856Y-66148286D01*
X105785856Y-66034001D01*
X105757284Y-65976858D01*
X105728713Y-65948286D01*
X105671570Y-65919715D01*
X105414427Y-65548286D02*
X105414427Y-65491143D01*
X105442999Y-65434001D01*
X105471570Y-65405429D01*
X105528713Y-65376858D01*
X105642999Y-65348286D01*
X105785856Y-65348286D01*
X105900141Y-65376858D01*
X105957284Y-65405429D01*
X105985856Y-65434001D01*
X106014427Y-65491143D01*
X106014427Y-65548286D01*
X105985856Y-65605429D01*
X105957284Y-65634001D01*
X105900141Y-65662572D01*
X105785856Y-65691143D01*
X105642999Y-65691143D01*
X105528713Y-65662572D01*
X105471570Y-65634001D01*
X105442999Y-65605429D01*
X105414427Y-65548286D01*
X105414427Y-64834001D02*
X105414427Y-64948286D01*
X105442999Y-65005429D01*
X105471570Y-65034001D01*
X105557284Y-65091143D01*
X105671570Y-65119715D01*
X105900141Y-65119715D01*
X105957284Y-65091143D01*
X105985856Y-65062572D01*
X106014427Y-65005429D01*
X106014427Y-64891143D01*
X105985856Y-64834001D01*
X105957284Y-64805429D01*
X105900141Y-64776858D01*
X105757284Y-64776858D01*
X105700141Y-64805429D01*
X105671570Y-64834001D01*
X105642999Y-64891143D01*
X105642999Y-65005429D01*
X105671570Y-65062572D01*
X105700141Y-65091143D01*
X105757284Y-65119715D01*
X105614427Y-64262572D02*
X106014427Y-64262572D01*
X105385856Y-64405429D02*
X105814427Y-64548286D01*
X105814427Y-64176858D01*
X105414427Y-63834001D02*
X105414427Y-63776858D01*
X105442999Y-63719715D01*
X105471570Y-63691143D01*
X105528713Y-63662572D01*
X105642999Y-63634001D01*
X105785856Y-63634001D01*
X105900141Y-63662572D01*
X105957284Y-63691143D01*
X105985856Y-63719715D01*
X106014427Y-63776858D01*
X106014427Y-63834001D01*
X105985856Y-63891143D01*
X105957284Y-63919715D01*
X105900141Y-63948286D01*
X105785856Y-63976858D01*
X105642999Y-63976858D01*
X105528713Y-63948286D01*
X105471570Y-63919715D01*
X105442999Y-63891143D01*
X105414427Y-63834001D01*
X105785856Y-63376858D02*
X105785856Y-62919715D01*
X106014427Y-62634001D02*
X105414427Y-62634001D01*
X105642999Y-62634001D02*
X105614427Y-62576858D01*
X105614427Y-62462572D01*
X105642999Y-62405429D01*
X105671570Y-62376858D01*
X105728713Y-62348286D01*
X105900141Y-62348286D01*
X105957284Y-62376858D01*
X105985856Y-62405429D01*
X106014427Y-62462572D01*
X106014427Y-62576858D01*
X105985856Y-62634001D01*
X106014427Y-62091143D02*
X105614427Y-62091143D01*
X105728713Y-62091143D02*
X105671570Y-62062572D01*
X105642999Y-62034001D01*
X105614427Y-61976858D01*
X105614427Y-61919715D01*
X105985856Y-61491143D02*
X106014427Y-61548286D01*
X106014427Y-61662572D01*
X105985856Y-61719715D01*
X105928713Y-61748286D01*
X105700141Y-61748286D01*
X105642999Y-61719715D01*
X105614427Y-61662572D01*
X105614427Y-61548286D01*
X105642999Y-61491143D01*
X105700141Y-61462572D01*
X105757284Y-61462572D01*
X105814427Y-61748286D01*
X106014427Y-60948286D02*
X105700141Y-60948286D01*
X105642999Y-60976858D01*
X105614427Y-61034001D01*
X105614427Y-61148286D01*
X105642999Y-61205429D01*
X105985856Y-60948286D02*
X106014427Y-61005429D01*
X106014427Y-61148286D01*
X105985856Y-61205429D01*
X105928713Y-61234001D01*
X105871570Y-61234001D01*
X105814427Y-61205429D01*
X105785856Y-61148286D01*
X105785856Y-61005429D01*
X105757284Y-60948286D01*
X106014427Y-60662572D02*
X105414427Y-60662572D01*
X105785856Y-60605429D02*
X106014427Y-60434001D01*
X105614427Y-60434001D02*
X105842999Y-60662572D01*
X106014427Y-60091143D02*
X105985856Y-60148286D01*
X105957284Y-60176858D01*
X105900141Y-60205429D01*
X105728713Y-60205429D01*
X105671570Y-60176858D01*
X105642999Y-60148286D01*
X105614427Y-60091143D01*
X105614427Y-60005429D01*
X105642999Y-59948286D01*
X105671570Y-59919715D01*
X105728713Y-59891143D01*
X105900141Y-59891143D01*
X105957284Y-59919715D01*
X105985856Y-59948286D01*
X106014427Y-60005429D01*
X106014427Y-60091143D01*
X105614427Y-59376858D02*
X106014427Y-59376858D01*
X105614427Y-59634001D02*
X105928713Y-59634001D01*
X105985856Y-59605429D01*
X106014427Y-59548286D01*
X106014427Y-59462572D01*
X105985856Y-59405429D01*
X105957284Y-59376858D01*
X105614427Y-59176858D02*
X105614427Y-58948286D01*
X105414427Y-59091143D02*
X105928713Y-59091143D01*
X105985856Y-59062572D01*
X106014427Y-59005429D01*
X106014427Y-58948286D01*
D12*
X113402760Y-73542381D02*
X113474189Y-73566191D01*
X113593237Y-73566191D01*
X113640856Y-73542381D01*
X113664665Y-73518572D01*
X113688475Y-73470953D01*
X113688475Y-73423334D01*
X113664665Y-73375715D01*
X113640856Y-73351905D01*
X113593237Y-73328096D01*
X113497999Y-73304286D01*
X113450379Y-73280477D01*
X113426570Y-73256667D01*
X113402760Y-73209048D01*
X113402760Y-73161429D01*
X113426570Y-73113810D01*
X113450379Y-73090001D01*
X113497999Y-73066191D01*
X113617046Y-73066191D01*
X113688475Y-73090001D01*
X114188475Y-73518572D02*
X114164665Y-73542381D01*
X114093237Y-73566191D01*
X114045618Y-73566191D01*
X113974189Y-73542381D01*
X113926570Y-73494762D01*
X113902760Y-73447143D01*
X113878951Y-73351905D01*
X113878951Y-73280477D01*
X113902760Y-73185239D01*
X113926570Y-73137620D01*
X113974189Y-73090001D01*
X114045618Y-73066191D01*
X114093237Y-73066191D01*
X114164665Y-73090001D01*
X114188475Y-73113810D01*
X114640856Y-73566191D02*
X114402760Y-73566191D01*
X114402760Y-73066191D01*
X107521046Y-73090001D02*
X107473427Y-73066191D01*
X107401999Y-73066191D01*
X107330570Y-73090001D01*
X107282951Y-73137620D01*
X107259141Y-73185239D01*
X107235332Y-73280477D01*
X107235332Y-73351905D01*
X107259141Y-73447143D01*
X107282951Y-73494762D01*
X107330570Y-73542381D01*
X107401999Y-73566191D01*
X107449618Y-73566191D01*
X107521046Y-73542381D01*
X107544856Y-73518572D01*
X107544856Y-73351905D01*
X107449618Y-73351905D01*
X107759141Y-73566191D02*
X107759141Y-73066191D01*
X108044856Y-73566191D01*
X108044856Y-73066191D01*
X108282951Y-73566191D02*
X108282951Y-73066191D01*
X108401999Y-73066191D01*
X108473427Y-73090001D01*
X108521046Y-73137620D01*
X108544856Y-73185239D01*
X108568665Y-73280477D01*
X108568665Y-73351905D01*
X108544856Y-73447143D01*
X108521046Y-73494762D01*
X108473427Y-73542381D01*
X108401999Y-73566191D01*
X108282951Y-73566191D01*
D11*
X113042332Y-60782858D02*
X113023284Y-60801905D01*
X112966141Y-60820953D01*
X112928046Y-60820953D01*
X112870903Y-60801905D01*
X112832808Y-60763810D01*
X112813760Y-60725715D01*
X112794713Y-60649524D01*
X112794713Y-60592381D01*
X112813760Y-60516191D01*
X112832808Y-60478096D01*
X112870903Y-60440001D01*
X112928046Y-60420953D01*
X112966141Y-60420953D01*
X113023284Y-60440001D01*
X113042332Y-60459048D01*
X113423284Y-60820953D02*
X113194713Y-60820953D01*
X113308999Y-60820953D02*
X113308999Y-60420953D01*
X113270903Y-60478096D01*
X113232808Y-60516191D01*
X113194713Y-60535239D01*
D12*
X113577332Y-77765191D02*
X113577332Y-78122334D01*
X113553522Y-78193762D01*
X113505903Y-78241381D01*
X113434475Y-78265191D01*
X113386856Y-78265191D01*
X114077332Y-78265191D02*
X113791618Y-78265191D01*
X113934475Y-78265191D02*
X113934475Y-77765191D01*
X113886856Y-77836620D01*
X113839237Y-77884239D01*
X113791618Y-77908048D01*
X109267332Y-73066191D02*
X109433999Y-73566191D01*
X109600665Y-73066191D01*
X109767332Y-73566191D02*
X109767332Y-73066191D01*
X109886379Y-73066191D01*
X109957808Y-73090001D01*
X110005427Y-73137620D01*
X110029237Y-73185239D01*
X110053046Y-73280477D01*
X110053046Y-73351905D01*
X110029237Y-73447143D01*
X110005427Y-73494762D01*
X109957808Y-73542381D01*
X109886379Y-73566191D01*
X109767332Y-73566191D01*
X110267332Y-73566191D02*
X110267332Y-73066191D01*
X110386379Y-73066191D01*
X110457808Y-73090001D01*
X110505427Y-73137620D01*
X110529237Y-73185239D01*
X110553046Y-73280477D01*
X110553046Y-73351905D01*
X110529237Y-73447143D01*
X110505427Y-73494762D01*
X110457808Y-73542381D01*
X110386379Y-73566191D01*
X110267332Y-73566191D01*
X110899999Y-63414143D02*
X110885713Y-63428429D01*
X110842856Y-63442715D01*
X110814284Y-63442715D01*
X110771427Y-63428429D01*
X110742856Y-63399858D01*
X110728570Y-63371286D01*
X110714284Y-63314143D01*
X110714284Y-63271286D01*
X110728570Y-63214143D01*
X110742856Y-63185572D01*
X110771427Y-63157001D01*
X110814284Y-63142715D01*
X110842856Y-63142715D01*
X110885713Y-63157001D01*
X110899999Y-63171286D01*
X111014284Y-63171286D02*
X111028570Y-63157001D01*
X111057141Y-63142715D01*
X111128570Y-63142715D01*
X111157141Y-63157001D01*
X111171427Y-63171286D01*
X111185713Y-63199858D01*
X111185713Y-63228429D01*
X111171427Y-63271286D01*
X110999999Y-63442715D01*
X111185713Y-63442715D01*
X111358856Y-73542381D02*
X111430284Y-73566191D01*
X111549332Y-73566191D01*
X111596951Y-73542381D01*
X111620760Y-73518572D01*
X111644570Y-73470953D01*
X111644570Y-73423334D01*
X111620760Y-73375715D01*
X111596951Y-73351905D01*
X111549332Y-73328096D01*
X111454094Y-73304286D01*
X111406475Y-73280477D01*
X111382665Y-73256667D01*
X111358856Y-73209048D01*
X111358856Y-73161429D01*
X111382665Y-73113810D01*
X111406475Y-73090001D01*
X111454094Y-73066191D01*
X111573141Y-73066191D01*
X111644570Y-73090001D01*
X111858856Y-73566191D02*
X111858856Y-73066191D01*
X111977903Y-73066191D01*
X112049332Y-73090001D01*
X112096951Y-73137620D01*
X112120760Y-73185239D01*
X112144570Y-73280477D01*
X112144570Y-73351905D01*
X112120760Y-73447143D01*
X112096951Y-73494762D01*
X112049332Y-73542381D01*
X111977903Y-73566191D01*
X111858856Y-73566191D01*
X112335046Y-73423334D02*
X112573141Y-73423334D01*
X112287427Y-73566191D02*
X112454094Y-73066191D01*
X112620760Y-73566191D01*
D13*
X114697999Y-73783001D02*
X114697999Y-75183001D01*
X114697999Y-75183001D02*
X113297999Y-75183001D01*
X113297999Y-75183001D02*
X113297999Y-73783001D01*
X113297999Y-73783001D02*
X114697999Y-73783001D01*
X108601999Y-75183001D02*
X107201999Y-75183001D01*
X108601999Y-73783001D02*
X108601999Y-75183001D01*
X107201999Y-73783001D02*
X108601999Y-73783001D01*
X107201999Y-75183001D02*
X107201999Y-73783001D01*
X110627747Y-59143001D02*
X111150251Y-59143001D01*
X110627747Y-60613001D02*
X111150251Y-60613001D01*
D14*
X107943999Y-80428001D02*
X107943999Y-78778001D01*
X113943999Y-78778001D02*
X113943999Y-80428001D01*
X107943999Y-78778001D02*
X108693999Y-78778001D01*
X109443999Y-83028001D02*
X112443999Y-83028001D01*
X113193999Y-78778001D02*
X113943999Y-78778001D01*
X108545599Y-78128001D02*
G75*
G03*
X108545599Y-78128001I-101600J0D01*
G01*
D13*
X110633999Y-73783001D02*
X110633999Y-75183001D01*
X110633999Y-75183001D02*
X109233999Y-75183001D01*
X109233999Y-75183001D02*
X109233999Y-73783001D01*
X109233999Y-73783001D02*
X110633999Y-73783001D01*
X110688747Y-63715001D02*
X111211251Y-63715001D01*
X110688747Y-65185001D02*
X111211251Y-65185001D01*
X112665999Y-75183001D02*
X111265999Y-75183001D01*
X111265999Y-73783001D02*
X112665999Y-73783001D01*
X111265999Y-75183001D02*
X111265999Y-73783001D01*
X112665999Y-73783001D02*
X112665999Y-75183001D01*
M02*
