G04 #@! TF.GenerationSoftware,KiCad,Pcbnew,(6.0.7)*
G04 #@! TF.CreationDate,2022-08-12T11:37:01-07:00*
G04 #@! TF.ProjectId,mlx90640-breakout,6d6c7839-3036-4343-902d-627265616b6f,rev?*
G04 #@! TF.SameCoordinates,Original*
G04 #@! TF.FileFunction,Copper,L2,Bot*
G04 #@! TF.FilePolarity,Positive*
%FSLAX46Y46*%
G04 Gerber Fmt 4.6, Leading zero omitted, Abs format (unit mm)*
G04 Created by KiCad (PCBNEW (6.0.7)) date 2022-08-12 11:37:01*
%MOMM*%
%LPD*%
G01*
G04 APERTURE LIST*
G04 Aperture macros list*
%AMFreePoly0*
4,1,21,0.108156,0.332870,0.205725,0.283156,0.283156,0.205725,0.332870,0.108156,0.350000,0.000000,0.332870,-0.108156,0.283156,-0.205725,0.205725,-0.283156,0.108156,-0.332870,0.000000,-0.350000,-0.108156,-0.332870,-0.205725,-0.283156,-0.283156,-0.205725,-0.332870,-0.108156,-0.350000,0.000000,-0.332870,0.108156,-0.283156,0.205725,-0.205725,0.283156,-0.108156,0.332870,0.000000,0.350000,
0.108156,0.332870,0.108156,0.332870,$1*%
G04 Aperture macros list end*
G04 #@! TA.AperFunction,EtchedComponent*
%ADD10C,0.010000*%
G04 #@! TD*
G04 #@! TA.AperFunction,ComponentPad*
%ADD11FreePoly0,90.000000*%
G04 #@! TD*
G04 #@! TA.AperFunction,ComponentPad*
%ADD12C,0.700000*%
G04 #@! TD*
G04 #@! TA.AperFunction,ComponentPad*
%ADD13FreePoly0,0.000000*%
G04 #@! TD*
G04 APERTURE END LIST*
G36*
X111844079Y-76591201D02*
G01*
X111666279Y-76591201D01*
X111666279Y-75499001D01*
X111844079Y-75499001D01*
X111844079Y-76591201D01*
G37*
D10*
X111844079Y-76591201D02*
X111666279Y-76591201D01*
X111666279Y-75499001D01*
X111844079Y-75499001D01*
X111844079Y-76591201D01*
G36*
X109801919Y-75676801D02*
G01*
X109619039Y-75676801D01*
X109619039Y-75499001D01*
X109801919Y-75499001D01*
X109801919Y-75676801D01*
G37*
X109801919Y-75676801D02*
X109619039Y-75676801D01*
X109619039Y-75499001D01*
X109801919Y-75499001D01*
X109801919Y-75676801D01*
G36*
X110676804Y-75883811D02*
G01*
X110627726Y-75946379D01*
X110584833Y-76001303D01*
X110547925Y-76048845D01*
X110516806Y-76089265D01*
X110491278Y-76122825D01*
X110471143Y-76149787D01*
X110456203Y-76170413D01*
X110446261Y-76184963D01*
X110441120Y-76193699D01*
X110440341Y-76196699D01*
X110444046Y-76201815D01*
X110453313Y-76214170D01*
X110467519Y-76232945D01*
X110486040Y-76257321D01*
X110508252Y-76286477D01*
X110533531Y-76319593D01*
X110561254Y-76355850D01*
X110588941Y-76392007D01*
X110618329Y-76430413D01*
X110645795Y-76466414D01*
X110670725Y-76499197D01*
X110692502Y-76527948D01*
X110710514Y-76551853D01*
X110724144Y-76570099D01*
X110732778Y-76581873D01*
X110735792Y-76586317D01*
X110731480Y-76588012D01*
X110717768Y-76589383D01*
X110695413Y-76590395D01*
X110665171Y-76591012D01*
X110631268Y-76591201D01*
X110525050Y-76591201D01*
X110431454Y-76470836D01*
X110407698Y-76440279D01*
X110385811Y-76412112D01*
X110366613Y-76387394D01*
X110350926Y-76367181D01*
X110339569Y-76352529D01*
X110333363Y-76344497D01*
X110332593Y-76343489D01*
X110329714Y-76343213D01*
X110324103Y-76347276D01*
X110315231Y-76356292D01*
X110302571Y-76370877D01*
X110285594Y-76391644D01*
X110263770Y-76419209D01*
X110236572Y-76454187D01*
X110229109Y-76463853D01*
X110130891Y-76591201D01*
X110024825Y-76591201D01*
X109993245Y-76591027D01*
X109965417Y-76590542D01*
X109942829Y-76589799D01*
X109926966Y-76588852D01*
X109919316Y-76587753D01*
X109918844Y-76587391D01*
X109921865Y-76582722D01*
X109930495Y-76570803D01*
X109944133Y-76552429D01*
X109962183Y-76528393D01*
X109984044Y-76499489D01*
X110009119Y-76466511D01*
X110036809Y-76430252D01*
X110066514Y-76391508D01*
X110068630Y-76388754D01*
X110103347Y-76343499D01*
X110132286Y-76305584D01*
X110155920Y-76274337D01*
X110174720Y-76249088D01*
X110189160Y-76229166D01*
X110199712Y-76213901D01*
X110206848Y-76202622D01*
X110211042Y-76194658D01*
X110212766Y-76189340D01*
X110212491Y-76185995D01*
X110212055Y-76185227D01*
X110207615Y-76179348D01*
X110197686Y-76166369D01*
X110182991Y-76147231D01*
X110164252Y-76122872D01*
X110142193Y-76094233D01*
X110117537Y-76062254D01*
X110091006Y-76027873D01*
X110087669Y-76023549D01*
X110061244Y-75989250D01*
X110036879Y-75957483D01*
X110015251Y-75929140D01*
X109997036Y-75905114D01*
X109982911Y-75886299D01*
X109973552Y-75873586D01*
X109969635Y-75867870D01*
X109969559Y-75867666D01*
X109974392Y-75866817D01*
X109987911Y-75866085D01*
X110008638Y-75865506D01*
X110035099Y-75865118D01*
X110065819Y-75864958D01*
X110077509Y-75864963D01*
X110185459Y-75865165D01*
X110254039Y-75956100D01*
X110273923Y-75982335D01*
X110291769Y-76005629D01*
X110306676Y-76024828D01*
X110317741Y-76038773D01*
X110324063Y-76046310D01*
X110325159Y-76047314D01*
X110328870Y-76043565D01*
X110337882Y-76032901D01*
X110351286Y-76016448D01*
X110368168Y-75995331D01*
X110387619Y-75970674D01*
X110398819Y-75956350D01*
X110469939Y-75865107D01*
X110580855Y-75864934D01*
X110691772Y-75864761D01*
X110676804Y-75883811D01*
G37*
X110676804Y-75883811D02*
X110627726Y-75946379D01*
X110584833Y-76001303D01*
X110547925Y-76048845D01*
X110516806Y-76089265D01*
X110491278Y-76122825D01*
X110471143Y-76149787D01*
X110456203Y-76170413D01*
X110446261Y-76184963D01*
X110441120Y-76193699D01*
X110440341Y-76196699D01*
X110444046Y-76201815D01*
X110453313Y-76214170D01*
X110467519Y-76232945D01*
X110486040Y-76257321D01*
X110508252Y-76286477D01*
X110533531Y-76319593D01*
X110561254Y-76355850D01*
X110588941Y-76392007D01*
X110618329Y-76430413D01*
X110645795Y-76466414D01*
X110670725Y-76499197D01*
X110692502Y-76527948D01*
X110710514Y-76551853D01*
X110724144Y-76570099D01*
X110732778Y-76581873D01*
X110735792Y-76586317D01*
X110731480Y-76588012D01*
X110717768Y-76589383D01*
X110695413Y-76590395D01*
X110665171Y-76591012D01*
X110631268Y-76591201D01*
X110525050Y-76591201D01*
X110431454Y-76470836D01*
X110407698Y-76440279D01*
X110385811Y-76412112D01*
X110366613Y-76387394D01*
X110350926Y-76367181D01*
X110339569Y-76352529D01*
X110333363Y-76344497D01*
X110332593Y-76343489D01*
X110329714Y-76343213D01*
X110324103Y-76347276D01*
X110315231Y-76356292D01*
X110302571Y-76370877D01*
X110285594Y-76391644D01*
X110263770Y-76419209D01*
X110236572Y-76454187D01*
X110229109Y-76463853D01*
X110130891Y-76591201D01*
X110024825Y-76591201D01*
X109993245Y-76591027D01*
X109965417Y-76590542D01*
X109942829Y-76589799D01*
X109926966Y-76588852D01*
X109919316Y-76587753D01*
X109918844Y-76587391D01*
X109921865Y-76582722D01*
X109930495Y-76570803D01*
X109944133Y-76552429D01*
X109962183Y-76528393D01*
X109984044Y-76499489D01*
X110009119Y-76466511D01*
X110036809Y-76430252D01*
X110066514Y-76391508D01*
X110068630Y-76388754D01*
X110103347Y-76343499D01*
X110132286Y-76305584D01*
X110155920Y-76274337D01*
X110174720Y-76249088D01*
X110189160Y-76229166D01*
X110199712Y-76213901D01*
X110206848Y-76202622D01*
X110211042Y-76194658D01*
X110212766Y-76189340D01*
X110212491Y-76185995D01*
X110212055Y-76185227D01*
X110207615Y-76179348D01*
X110197686Y-76166369D01*
X110182991Y-76147231D01*
X110164252Y-76122872D01*
X110142193Y-76094233D01*
X110117537Y-76062254D01*
X110091006Y-76027873D01*
X110087669Y-76023549D01*
X110061244Y-75989250D01*
X110036879Y-75957483D01*
X110015251Y-75929140D01*
X109997036Y-75905114D01*
X109982911Y-75886299D01*
X109973552Y-75873586D01*
X109969635Y-75867870D01*
X109969559Y-75867666D01*
X109974392Y-75866817D01*
X109987911Y-75866085D01*
X110008638Y-75865506D01*
X110035099Y-75865118D01*
X110065819Y-75864958D01*
X110077509Y-75864963D01*
X110185459Y-75865165D01*
X110254039Y-75956100D01*
X110273923Y-75982335D01*
X110291769Y-76005629D01*
X110306676Y-76024828D01*
X110317741Y-76038773D01*
X110324063Y-76046310D01*
X110325159Y-76047314D01*
X110328870Y-76043565D01*
X110337882Y-76032901D01*
X110351286Y-76016448D01*
X110368168Y-75995331D01*
X110387619Y-75970674D01*
X110398819Y-75956350D01*
X110469939Y-75865107D01*
X110580855Y-75864934D01*
X110691772Y-75864761D01*
X110676804Y-75883811D01*
G36*
X113812629Y-75413548D02*
G01*
X113812971Y-75413879D01*
X113814556Y-75419018D01*
X113818555Y-75433379D01*
X113824805Y-75456358D01*
X113833147Y-75487347D01*
X113843419Y-75525741D01*
X113855459Y-75570934D01*
X113869108Y-75622321D01*
X113884204Y-75679296D01*
X113900585Y-75741252D01*
X113918092Y-75807583D01*
X113936563Y-75877685D01*
X113955837Y-75950951D01*
X113969386Y-76002521D01*
X114123300Y-76588661D01*
X114036897Y-76590054D01*
X114008240Y-76590293D01*
X113983188Y-76590077D01*
X113963478Y-76589456D01*
X113950847Y-76588480D01*
X113947036Y-76587514D01*
X113945190Y-76582040D01*
X113941023Y-76567560D01*
X113934758Y-76544907D01*
X113926616Y-76514912D01*
X113916822Y-76478406D01*
X113905597Y-76436221D01*
X113893164Y-76389187D01*
X113879746Y-76338137D01*
X113865566Y-76283902D01*
X113860592Y-76264811D01*
X113846231Y-76209811D01*
X113832572Y-76157817D01*
X113819835Y-76109646D01*
X113808240Y-76066115D01*
X113798007Y-76028044D01*
X113789358Y-75996248D01*
X113782511Y-75971547D01*
X113777687Y-75954758D01*
X113775106Y-75946699D01*
X113774772Y-75946092D01*
X113772401Y-75950667D01*
X113766425Y-75963892D01*
X113757155Y-75985041D01*
X113744900Y-76013389D01*
X113729970Y-76048210D01*
X113712676Y-76088779D01*
X113693328Y-76134369D01*
X113672235Y-76184256D01*
X113649708Y-76237713D01*
X113626057Y-76294015D01*
X113624816Y-76296975D01*
X113601088Y-76353472D01*
X113578448Y-76407212D01*
X113557208Y-76457464D01*
X113537682Y-76503496D01*
X113520182Y-76544575D01*
X113505020Y-76579971D01*
X113492509Y-76608950D01*
X113482961Y-76630783D01*
X113476690Y-76644736D01*
X113474008Y-76650078D01*
X113473977Y-76650104D01*
X113469987Y-76647301D01*
X113464049Y-76637587D01*
X113460784Y-76630691D01*
X113457260Y-76622450D01*
X113450137Y-76605657D01*
X113439759Y-76581124D01*
X113426469Y-76549661D01*
X113410609Y-76512082D01*
X113392521Y-76469197D01*
X113372549Y-76421821D01*
X113351035Y-76370763D01*
X113328322Y-76316836D01*
X113311904Y-76277843D01*
X113281183Y-76205098D01*
X113254220Y-76141734D01*
X113230993Y-76087700D01*
X113211479Y-76042949D01*
X113195656Y-76007428D01*
X113183503Y-75981090D01*
X113174997Y-75963883D01*
X113170116Y-75955759D01*
X113168899Y-75955263D01*
X113167013Y-75961605D01*
X113162829Y-75976907D01*
X113156578Y-76000288D01*
X113148492Y-76030868D01*
X113138801Y-76067767D01*
X113127737Y-76110103D01*
X113115530Y-76156998D01*
X113102413Y-76207570D01*
X113088617Y-76260939D01*
X113088601Y-76261001D01*
X113074738Y-76314656D01*
X113061511Y-76365740D01*
X113049156Y-76413341D01*
X113037913Y-76456547D01*
X113028020Y-76494447D01*
X113019713Y-76526131D01*
X113013231Y-76550686D01*
X113008811Y-76567201D01*
X113006716Y-76574691D01*
X113001531Y-76591201D01*
X112824325Y-76591201D01*
X112827206Y-76579771D01*
X112835964Y-76545306D01*
X112846489Y-76504365D01*
X112858592Y-76457666D01*
X112872078Y-76405925D01*
X112886758Y-76349862D01*
X112902440Y-76290194D01*
X112918931Y-76227638D01*
X112936041Y-76162913D01*
X112953577Y-76096736D01*
X112971348Y-76029825D01*
X112989162Y-75962899D01*
X113006828Y-75896674D01*
X113024154Y-75831869D01*
X113040948Y-75769202D01*
X113057019Y-75709390D01*
X113072176Y-75653151D01*
X113086225Y-75601203D01*
X113098977Y-75554264D01*
X113110238Y-75513051D01*
X113119818Y-75478283D01*
X113127525Y-75450678D01*
X113133168Y-75430953D01*
X113136554Y-75419825D01*
X113137483Y-75417538D01*
X113140085Y-75422480D01*
X113146290Y-75436114D01*
X113155805Y-75457751D01*
X113168334Y-75486702D01*
X113183585Y-75522276D01*
X113201262Y-75563783D01*
X113221072Y-75610533D01*
X113242721Y-75661838D01*
X113265914Y-75717006D01*
X113290358Y-75775348D01*
X113306922Y-75814991D01*
X113331970Y-75874874D01*
X113355934Y-75931912D01*
X113378522Y-75985427D01*
X113399445Y-76034745D01*
X113418412Y-76079188D01*
X113435134Y-76118081D01*
X113449319Y-76150749D01*
X113460678Y-76176514D01*
X113468920Y-76194701D01*
X113473756Y-76204634D01*
X113474947Y-76206333D01*
X113477355Y-76201163D01*
X113483377Y-76187337D01*
X113492709Y-76165571D01*
X113505047Y-76136583D01*
X113520089Y-76101091D01*
X113537529Y-76059812D01*
X113557066Y-76013465D01*
X113578395Y-75962766D01*
X113601214Y-75908433D01*
X113625217Y-75851184D01*
X113632297Y-75834281D01*
X113662693Y-75761697D01*
X113689407Y-75697920D01*
X113712680Y-75642385D01*
X113732757Y-75594527D01*
X113749879Y-75553782D01*
X113764289Y-75519586D01*
X113776231Y-75491372D01*
X113785945Y-75468578D01*
X113793676Y-75450638D01*
X113799666Y-75436987D01*
X113804157Y-75427062D01*
X113807393Y-75420297D01*
X113809615Y-75416128D01*
X113811067Y-75413990D01*
X113811990Y-75413318D01*
X113812629Y-75413548D01*
G37*
X113812629Y-75413548D02*
X113812971Y-75413879D01*
X113814556Y-75419018D01*
X113818555Y-75433379D01*
X113824805Y-75456358D01*
X113833147Y-75487347D01*
X113843419Y-75525741D01*
X113855459Y-75570934D01*
X113869108Y-75622321D01*
X113884204Y-75679296D01*
X113900585Y-75741252D01*
X113918092Y-75807583D01*
X113936563Y-75877685D01*
X113955837Y-75950951D01*
X113969386Y-76002521D01*
X114123300Y-76588661D01*
X114036897Y-76590054D01*
X114008240Y-76590293D01*
X113983188Y-76590077D01*
X113963478Y-76589456D01*
X113950847Y-76588480D01*
X113947036Y-76587514D01*
X113945190Y-76582040D01*
X113941023Y-76567560D01*
X113934758Y-76544907D01*
X113926616Y-76514912D01*
X113916822Y-76478406D01*
X113905597Y-76436221D01*
X113893164Y-76389187D01*
X113879746Y-76338137D01*
X113865566Y-76283902D01*
X113860592Y-76264811D01*
X113846231Y-76209811D01*
X113832572Y-76157817D01*
X113819835Y-76109646D01*
X113808240Y-76066115D01*
X113798007Y-76028044D01*
X113789358Y-75996248D01*
X113782511Y-75971547D01*
X113777687Y-75954758D01*
X113775106Y-75946699D01*
X113774772Y-75946092D01*
X113772401Y-75950667D01*
X113766425Y-75963892D01*
X113757155Y-75985041D01*
X113744900Y-76013389D01*
X113729970Y-76048210D01*
X113712676Y-76088779D01*
X113693328Y-76134369D01*
X113672235Y-76184256D01*
X113649708Y-76237713D01*
X113626057Y-76294015D01*
X113624816Y-76296975D01*
X113601088Y-76353472D01*
X113578448Y-76407212D01*
X113557208Y-76457464D01*
X113537682Y-76503496D01*
X113520182Y-76544575D01*
X113505020Y-76579971D01*
X113492509Y-76608950D01*
X113482961Y-76630783D01*
X113476690Y-76644736D01*
X113474008Y-76650078D01*
X113473977Y-76650104D01*
X113469987Y-76647301D01*
X113464049Y-76637587D01*
X113460784Y-76630691D01*
X113457260Y-76622450D01*
X113450137Y-76605657D01*
X113439759Y-76581124D01*
X113426469Y-76549661D01*
X113410609Y-76512082D01*
X113392521Y-76469197D01*
X113372549Y-76421821D01*
X113351035Y-76370763D01*
X113328322Y-76316836D01*
X113311904Y-76277843D01*
X113281183Y-76205098D01*
X113254220Y-76141734D01*
X113230993Y-76087700D01*
X113211479Y-76042949D01*
X113195656Y-76007428D01*
X113183503Y-75981090D01*
X113174997Y-75963883D01*
X113170116Y-75955759D01*
X113168899Y-75955263D01*
X113167013Y-75961605D01*
X113162829Y-75976907D01*
X113156578Y-76000288D01*
X113148492Y-76030868D01*
X113138801Y-76067767D01*
X113127737Y-76110103D01*
X113115530Y-76156998D01*
X113102413Y-76207570D01*
X113088617Y-76260939D01*
X113088601Y-76261001D01*
X113074738Y-76314656D01*
X113061511Y-76365740D01*
X113049156Y-76413341D01*
X113037913Y-76456547D01*
X113028020Y-76494447D01*
X113019713Y-76526131D01*
X113013231Y-76550686D01*
X113008811Y-76567201D01*
X113006716Y-76574691D01*
X113001531Y-76591201D01*
X112824325Y-76591201D01*
X112827206Y-76579771D01*
X112835964Y-76545306D01*
X112846489Y-76504365D01*
X112858592Y-76457666D01*
X112872078Y-76405925D01*
X112886758Y-76349862D01*
X112902440Y-76290194D01*
X112918931Y-76227638D01*
X112936041Y-76162913D01*
X112953577Y-76096736D01*
X112971348Y-76029825D01*
X112989162Y-75962899D01*
X113006828Y-75896674D01*
X113024154Y-75831869D01*
X113040948Y-75769202D01*
X113057019Y-75709390D01*
X113072176Y-75653151D01*
X113086225Y-75601203D01*
X113098977Y-75554264D01*
X113110238Y-75513051D01*
X113119818Y-75478283D01*
X113127525Y-75450678D01*
X113133168Y-75430953D01*
X113136554Y-75419825D01*
X113137483Y-75417538D01*
X113140085Y-75422480D01*
X113146290Y-75436114D01*
X113155805Y-75457751D01*
X113168334Y-75486702D01*
X113183585Y-75522276D01*
X113201262Y-75563783D01*
X113221072Y-75610533D01*
X113242721Y-75661838D01*
X113265914Y-75717006D01*
X113290358Y-75775348D01*
X113306922Y-75814991D01*
X113331970Y-75874874D01*
X113355934Y-75931912D01*
X113378522Y-75985427D01*
X113399445Y-76034745D01*
X113418412Y-76079188D01*
X113435134Y-76118081D01*
X113449319Y-76150749D01*
X113460678Y-76176514D01*
X113468920Y-76194701D01*
X113473756Y-76204634D01*
X113474947Y-76206333D01*
X113477355Y-76201163D01*
X113483377Y-76187337D01*
X113492709Y-76165571D01*
X113505047Y-76136583D01*
X113520089Y-76101091D01*
X113537529Y-76059812D01*
X113557066Y-76013465D01*
X113578395Y-75962766D01*
X113601214Y-75908433D01*
X113625217Y-75851184D01*
X113632297Y-75834281D01*
X113662693Y-75761697D01*
X113689407Y-75697920D01*
X113712680Y-75642385D01*
X113732757Y-75594527D01*
X113749879Y-75553782D01*
X113764289Y-75519586D01*
X113776231Y-75491372D01*
X113785945Y-75468578D01*
X113793676Y-75450638D01*
X113799666Y-75436987D01*
X113804157Y-75427062D01*
X113807393Y-75420297D01*
X113809615Y-75416128D01*
X113811067Y-75413990D01*
X113811990Y-75413318D01*
X113812629Y-75413548D01*
G36*
X109264717Y-75848627D02*
G01*
X109294949Y-75852953D01*
X109321927Y-75861276D01*
X109349004Y-75874588D01*
X109375166Y-75890946D01*
X109408147Y-75918464D01*
X109433824Y-75951209D01*
X109452064Y-75987766D01*
X109462736Y-76026722D01*
X109465709Y-76066664D01*
X109460851Y-76106176D01*
X109448029Y-76143846D01*
X109427114Y-76178260D01*
X109404190Y-76202740D01*
X109395724Y-76209851D01*
X109386214Y-76216869D01*
X109374624Y-76224350D01*
X109359918Y-76232851D01*
X109341059Y-76242927D01*
X109317011Y-76255135D01*
X109286736Y-76270031D01*
X109249199Y-76288170D01*
X109209378Y-76307236D01*
X109176190Y-76325484D01*
X109153118Y-76343741D01*
X109140118Y-76362095D01*
X109137146Y-76380633D01*
X109144158Y-76399441D01*
X109155603Y-76413440D01*
X109180533Y-76431602D01*
X109209539Y-76441375D01*
X109241108Y-76442856D01*
X109273727Y-76436141D01*
X109305884Y-76421327D01*
X109331992Y-76402203D01*
X109355870Y-76381184D01*
X109422684Y-76413704D01*
X109446691Y-76425479D01*
X109467508Y-76435861D01*
X109483383Y-76443962D01*
X109492569Y-76448898D01*
X109493988Y-76449796D01*
X109493879Y-76455718D01*
X109487729Y-76467126D01*
X109476768Y-76482407D01*
X109462225Y-76499951D01*
X109445329Y-76518145D01*
X109431884Y-76531220D01*
X109389899Y-76563695D01*
X109343597Y-76588001D01*
X109294414Y-76603741D01*
X109243791Y-76610518D01*
X109193164Y-76607933D01*
X109170195Y-76603474D01*
X109127729Y-76588669D01*
X109087068Y-76565998D01*
X109050287Y-76537089D01*
X109019463Y-76503567D01*
X108997093Y-76467920D01*
X108982595Y-76428452D01*
X108975884Y-76386801D01*
X108977481Y-76346376D01*
X108978062Y-76342848D01*
X108988263Y-76304970D01*
X109005251Y-76270509D01*
X109029623Y-76238892D01*
X109061976Y-76209544D01*
X109102908Y-76181891D01*
X109153016Y-76155358D01*
X109190485Y-76138569D01*
X109228111Y-76121772D01*
X109256751Y-76106808D01*
X109277266Y-76093022D01*
X109290521Y-76079756D01*
X109297377Y-76066356D01*
X109298837Y-76056197D01*
X109295875Y-76037799D01*
X109286020Y-76024689D01*
X109268535Y-76016415D01*
X109242686Y-76012524D01*
X109226957Y-76012081D01*
X109204869Y-76013454D01*
X109184431Y-76018250D01*
X109162883Y-76027477D01*
X109137465Y-76042147D01*
X109127592Y-76048462D01*
X109095885Y-76069098D01*
X109044567Y-76024079D01*
X109024621Y-76006650D01*
X109006621Y-75991048D01*
X108992360Y-75978817D01*
X108983629Y-75971503D01*
X108982838Y-75970871D01*
X108978075Y-75966560D01*
X108977128Y-75962431D01*
X108981085Y-75956808D01*
X108991034Y-75948014D01*
X109004902Y-75936883D01*
X109040673Y-75910980D01*
X109079563Y-75887102D01*
X109117844Y-75867425D01*
X109139393Y-75858380D01*
X109155291Y-75853120D01*
X109171207Y-75849769D01*
X109190100Y-75847958D01*
X109214927Y-75847314D01*
X109227879Y-75847304D01*
X109264717Y-75848627D01*
G37*
X109264717Y-75848627D02*
X109294949Y-75852953D01*
X109321927Y-75861276D01*
X109349004Y-75874588D01*
X109375166Y-75890946D01*
X109408147Y-75918464D01*
X109433824Y-75951209D01*
X109452064Y-75987766D01*
X109462736Y-76026722D01*
X109465709Y-76066664D01*
X109460851Y-76106176D01*
X109448029Y-76143846D01*
X109427114Y-76178260D01*
X109404190Y-76202740D01*
X109395724Y-76209851D01*
X109386214Y-76216869D01*
X109374624Y-76224350D01*
X109359918Y-76232851D01*
X109341059Y-76242927D01*
X109317011Y-76255135D01*
X109286736Y-76270031D01*
X109249199Y-76288170D01*
X109209378Y-76307236D01*
X109176190Y-76325484D01*
X109153118Y-76343741D01*
X109140118Y-76362095D01*
X109137146Y-76380633D01*
X109144158Y-76399441D01*
X109155603Y-76413440D01*
X109180533Y-76431602D01*
X109209539Y-76441375D01*
X109241108Y-76442856D01*
X109273727Y-76436141D01*
X109305884Y-76421327D01*
X109331992Y-76402203D01*
X109355870Y-76381184D01*
X109422684Y-76413704D01*
X109446691Y-76425479D01*
X109467508Y-76435861D01*
X109483383Y-76443962D01*
X109492569Y-76448898D01*
X109493988Y-76449796D01*
X109493879Y-76455718D01*
X109487729Y-76467126D01*
X109476768Y-76482407D01*
X109462225Y-76499951D01*
X109445329Y-76518145D01*
X109431884Y-76531220D01*
X109389899Y-76563695D01*
X109343597Y-76588001D01*
X109294414Y-76603741D01*
X109243791Y-76610518D01*
X109193164Y-76607933D01*
X109170195Y-76603474D01*
X109127729Y-76588669D01*
X109087068Y-76565998D01*
X109050287Y-76537089D01*
X109019463Y-76503567D01*
X108997093Y-76467920D01*
X108982595Y-76428452D01*
X108975884Y-76386801D01*
X108977481Y-76346376D01*
X108978062Y-76342848D01*
X108988263Y-76304970D01*
X109005251Y-76270509D01*
X109029623Y-76238892D01*
X109061976Y-76209544D01*
X109102908Y-76181891D01*
X109153016Y-76155358D01*
X109190485Y-76138569D01*
X109228111Y-76121772D01*
X109256751Y-76106808D01*
X109277266Y-76093022D01*
X109290521Y-76079756D01*
X109297377Y-76066356D01*
X109298837Y-76056197D01*
X109295875Y-76037799D01*
X109286020Y-76024689D01*
X109268535Y-76016415D01*
X109242686Y-76012524D01*
X109226957Y-76012081D01*
X109204869Y-76013454D01*
X109184431Y-76018250D01*
X109162883Y-76027477D01*
X109137465Y-76042147D01*
X109127592Y-76048462D01*
X109095885Y-76069098D01*
X109044567Y-76024079D01*
X109024621Y-76006650D01*
X109006621Y-75991048D01*
X108992360Y-75978817D01*
X108983629Y-75971503D01*
X108982838Y-75970871D01*
X108978075Y-75966560D01*
X108977128Y-75962431D01*
X108981085Y-75956808D01*
X108991034Y-75948014D01*
X109004902Y-75936883D01*
X109040673Y-75910980D01*
X109079563Y-75887102D01*
X109117844Y-75867425D01*
X109139393Y-75858380D01*
X109155291Y-75853120D01*
X109171207Y-75849769D01*
X109190100Y-75847958D01*
X109214927Y-75847314D01*
X109227879Y-75847304D01*
X109264717Y-75848627D01*
G36*
X110798718Y-76060691D02*
G01*
X110824165Y-76016022D01*
X110856892Y-75974019D01*
X110873799Y-75955944D01*
X110918920Y-75915851D01*
X110966624Y-75885230D01*
X111017989Y-75863603D01*
X111074092Y-75850495D01*
X111122719Y-75845839D01*
X111152516Y-75844998D01*
X111176120Y-75845655D01*
X111197427Y-75848120D01*
X111220332Y-75852702D01*
X111226161Y-75854071D01*
X111283195Y-75872813D01*
X111336252Y-75900344D01*
X111384414Y-75935764D01*
X111426759Y-75978174D01*
X111462368Y-76026673D01*
X111490321Y-76080361D01*
X111507285Y-76129081D01*
X111513154Y-76159952D01*
X111516239Y-76197232D01*
X111516585Y-76237573D01*
X111514238Y-76277624D01*
X111509242Y-76314038D01*
X111504522Y-76334432D01*
X111483056Y-76392060D01*
X111453270Y-76444725D01*
X111415981Y-76491620D01*
X111372003Y-76531937D01*
X111322153Y-76564870D01*
X111267246Y-76589614D01*
X111237019Y-76598962D01*
X111208273Y-76604427D01*
X111173165Y-76607926D01*
X111135322Y-76609357D01*
X111098368Y-76608616D01*
X111065930Y-76605599D01*
X111056949Y-76604108D01*
X111000249Y-76589066D01*
X110945841Y-76566422D01*
X110895433Y-76537214D01*
X110850735Y-76502481D01*
X110813455Y-76463262D01*
X110803454Y-76450050D01*
X110792213Y-76434264D01*
X110852056Y-76389225D01*
X110873703Y-76372999D01*
X110892790Y-76358816D01*
X110907691Y-76347874D01*
X110916782Y-76341372D01*
X110918455Y-76340266D01*
X110925722Y-76341790D01*
X110938796Y-76351468D01*
X110957550Y-76369206D01*
X110957808Y-76369466D01*
X110994956Y-76401277D01*
X111034552Y-76423701D01*
X111077980Y-76437454D01*
X111094578Y-76440386D01*
X111140653Y-76442632D01*
X111185199Y-76436449D01*
X111226822Y-76422501D01*
X111264129Y-76401450D01*
X111295726Y-76373959D01*
X111320220Y-76340691D01*
X111325573Y-76330519D01*
X111333924Y-76312217D01*
X111340663Y-76295561D01*
X111344059Y-76285131D01*
X111347340Y-76271161D01*
X110755757Y-76271161D01*
X110759280Y-76226711D01*
X110766953Y-76164433D01*
X110777612Y-76119217D01*
X110960159Y-76119217D01*
X110965086Y-76120365D01*
X110979257Y-76121388D01*
X111001756Y-76122264D01*
X111031669Y-76122970D01*
X111068079Y-76123481D01*
X111110071Y-76123776D01*
X111143169Y-76123841D01*
X111326179Y-76123841D01*
X111318588Y-76109161D01*
X111306756Y-76091976D01*
X111289023Y-76072773D01*
X111268407Y-76054395D01*
X111247929Y-76039686D01*
X111240189Y-76035334D01*
X111199186Y-76019940D01*
X111155756Y-76013076D01*
X111111970Y-76014645D01*
X111069900Y-76024549D01*
X111031617Y-76042693D01*
X111027631Y-76045250D01*
X111013528Y-76056118D01*
X110998022Y-76070452D01*
X110983033Y-76086146D01*
X110970481Y-76101094D01*
X110962289Y-76113191D01*
X110960159Y-76119217D01*
X110777612Y-76119217D01*
X110779873Y-76109627D01*
X110798718Y-76060691D01*
G37*
X110798718Y-76060691D02*
X110824165Y-76016022D01*
X110856892Y-75974019D01*
X110873799Y-75955944D01*
X110918920Y-75915851D01*
X110966624Y-75885230D01*
X111017989Y-75863603D01*
X111074092Y-75850495D01*
X111122719Y-75845839D01*
X111152516Y-75844998D01*
X111176120Y-75845655D01*
X111197427Y-75848120D01*
X111220332Y-75852702D01*
X111226161Y-75854071D01*
X111283195Y-75872813D01*
X111336252Y-75900344D01*
X111384414Y-75935764D01*
X111426759Y-75978174D01*
X111462368Y-76026673D01*
X111490321Y-76080361D01*
X111507285Y-76129081D01*
X111513154Y-76159952D01*
X111516239Y-76197232D01*
X111516585Y-76237573D01*
X111514238Y-76277624D01*
X111509242Y-76314038D01*
X111504522Y-76334432D01*
X111483056Y-76392060D01*
X111453270Y-76444725D01*
X111415981Y-76491620D01*
X111372003Y-76531937D01*
X111322153Y-76564870D01*
X111267246Y-76589614D01*
X111237019Y-76598962D01*
X111208273Y-76604427D01*
X111173165Y-76607926D01*
X111135322Y-76609357D01*
X111098368Y-76608616D01*
X111065930Y-76605599D01*
X111056949Y-76604108D01*
X111000249Y-76589066D01*
X110945841Y-76566422D01*
X110895433Y-76537214D01*
X110850735Y-76502481D01*
X110813455Y-76463262D01*
X110803454Y-76450050D01*
X110792213Y-76434264D01*
X110852056Y-76389225D01*
X110873703Y-76372999D01*
X110892790Y-76358816D01*
X110907691Y-76347874D01*
X110916782Y-76341372D01*
X110918455Y-76340266D01*
X110925722Y-76341790D01*
X110938796Y-76351468D01*
X110957550Y-76369206D01*
X110957808Y-76369466D01*
X110994956Y-76401277D01*
X111034552Y-76423701D01*
X111077980Y-76437454D01*
X111094578Y-76440386D01*
X111140653Y-76442632D01*
X111185199Y-76436449D01*
X111226822Y-76422501D01*
X111264129Y-76401450D01*
X111295726Y-76373959D01*
X111320220Y-76340691D01*
X111325573Y-76330519D01*
X111333924Y-76312217D01*
X111340663Y-76295561D01*
X111344059Y-76285131D01*
X111347340Y-76271161D01*
X110755757Y-76271161D01*
X110759280Y-76226711D01*
X110766953Y-76164433D01*
X110777612Y-76119217D01*
X110960159Y-76119217D01*
X110965086Y-76120365D01*
X110979257Y-76121388D01*
X111001756Y-76122264D01*
X111031669Y-76122970D01*
X111068079Y-76123481D01*
X111110071Y-76123776D01*
X111143169Y-76123841D01*
X111326179Y-76123841D01*
X111318588Y-76109161D01*
X111306756Y-76091976D01*
X111289023Y-76072773D01*
X111268407Y-76054395D01*
X111247929Y-76039686D01*
X111240189Y-76035334D01*
X111199186Y-76019940D01*
X111155756Y-76013076D01*
X111111970Y-76014645D01*
X111069900Y-76024549D01*
X111031617Y-76042693D01*
X111027631Y-76045250D01*
X111013528Y-76056118D01*
X110998022Y-76070452D01*
X110983033Y-76086146D01*
X110970481Y-76101094D01*
X110962289Y-76113191D01*
X110960159Y-76119217D01*
X110777612Y-76119217D01*
X110779873Y-76109627D01*
X110798718Y-76060691D01*
G36*
X112057060Y-76028022D02*
G01*
X112091306Y-75979713D01*
X112132514Y-75937230D01*
X112180120Y-75901435D01*
X112233559Y-75873191D01*
X112263179Y-75861870D01*
X112305701Y-75851287D01*
X112353315Y-75845636D01*
X112402113Y-75845125D01*
X112448190Y-75849965D01*
X112456219Y-75851487D01*
X112510218Y-75867463D01*
X112562534Y-75892339D01*
X112611140Y-75924860D01*
X112654009Y-75963772D01*
X112673077Y-75985756D01*
X112706933Y-76034076D01*
X112731524Y-76082871D01*
X112747626Y-76134166D01*
X112756015Y-76189990D01*
X112757010Y-76205121D01*
X112755928Y-76269404D01*
X112745817Y-76329176D01*
X112726489Y-76384938D01*
X112697753Y-76437190D01*
X112659419Y-76486435D01*
X112644068Y-76502679D01*
X112622189Y-76523854D01*
X112603038Y-76539693D01*
X112583024Y-76552816D01*
X112558555Y-76565842D01*
X112555168Y-76567514D01*
X112531120Y-76578607D01*
X112506543Y-76588769D01*
X112485202Y-76596490D01*
X112476539Y-76599064D01*
X112447063Y-76604592D01*
X112411274Y-76608062D01*
X112372826Y-76609376D01*
X112335373Y-76608437D01*
X112302572Y-76605146D01*
X112295358Y-76603913D01*
X112232184Y-76586926D01*
X112173283Y-76560873D01*
X112151264Y-76548089D01*
X112127403Y-76531362D01*
X112101537Y-76510211D01*
X112076474Y-76487185D01*
X112055018Y-76464834D01*
X112042242Y-76449022D01*
X112032028Y-76434677D01*
X112091723Y-76389385D01*
X112113327Y-76373067D01*
X112132396Y-76358801D01*
X112147304Y-76347792D01*
X112156427Y-76341245D01*
X112158120Y-76340129D01*
X112165266Y-76341518D01*
X112178347Y-76350739D01*
X112197492Y-76367885D01*
X112202094Y-76372306D01*
X112234549Y-76400375D01*
X112266448Y-76420261D01*
X112300556Y-76433381D01*
X112335104Y-76440531D01*
X112382847Y-76442816D01*
X112428402Y-76436093D01*
X112470603Y-76420936D01*
X112508287Y-76397916D01*
X112540289Y-76367607D01*
X112565446Y-76330581D01*
X112567768Y-76326077D01*
X112573895Y-76314525D01*
X112579347Y-76304700D01*
X112583433Y-76296464D01*
X112585462Y-76289678D01*
X112584744Y-76284204D01*
X112580586Y-76279903D01*
X112572298Y-76276637D01*
X112559189Y-76274267D01*
X112540568Y-76272656D01*
X112515743Y-76271664D01*
X112484025Y-76271154D01*
X112444722Y-76270986D01*
X112397142Y-76271022D01*
X112340596Y-76271124D01*
X112293659Y-76271161D01*
X112231749Y-76271146D01*
X112179230Y-76271087D01*
X112135331Y-76270960D01*
X112099282Y-76270742D01*
X112070312Y-76270410D01*
X112047652Y-76269939D01*
X112030532Y-76269307D01*
X112018181Y-76268490D01*
X112009831Y-76267465D01*
X112004709Y-76266209D01*
X112002047Y-76264697D01*
X112001075Y-76262907D01*
X112000995Y-76262271D01*
X112001744Y-76199281D01*
X112011715Y-76138668D01*
X112017616Y-76120492D01*
X112199679Y-76120492D01*
X112204570Y-76121260D01*
X112218487Y-76121967D01*
X112240297Y-76122590D01*
X112268867Y-76123110D01*
X112303063Y-76123506D01*
X112341751Y-76123756D01*
X112382559Y-76123841D01*
X112424525Y-76123757D01*
X112463100Y-76123519D01*
X112497151Y-76123145D01*
X112525543Y-76122657D01*
X112547143Y-76122071D01*
X112560818Y-76121409D01*
X112565439Y-76120711D01*
X112562244Y-76113612D01*
X112553993Y-76101664D01*
X112542685Y-76087330D01*
X112530318Y-76073071D01*
X112518894Y-76061351D01*
X112513391Y-76056614D01*
X112475289Y-76033383D01*
X112434405Y-76018744D01*
X112392186Y-76012535D01*
X112350080Y-76014590D01*
X112309533Y-76024745D01*
X112271993Y-76042836D01*
X112238908Y-76068698D01*
X112220250Y-76089897D01*
X112209845Y-76104141D01*
X112202447Y-76115153D01*
X112199679Y-76120492D01*
X112017616Y-76120492D01*
X112030342Y-76081294D01*
X112057060Y-76028022D01*
G37*
X112057060Y-76028022D02*
X112091306Y-75979713D01*
X112132514Y-75937230D01*
X112180120Y-75901435D01*
X112233559Y-75873191D01*
X112263179Y-75861870D01*
X112305701Y-75851287D01*
X112353315Y-75845636D01*
X112402113Y-75845125D01*
X112448190Y-75849965D01*
X112456219Y-75851487D01*
X112510218Y-75867463D01*
X112562534Y-75892339D01*
X112611140Y-75924860D01*
X112654009Y-75963772D01*
X112673077Y-75985756D01*
X112706933Y-76034076D01*
X112731524Y-76082871D01*
X112747626Y-76134166D01*
X112756015Y-76189990D01*
X112757010Y-76205121D01*
X112755928Y-76269404D01*
X112745817Y-76329176D01*
X112726489Y-76384938D01*
X112697753Y-76437190D01*
X112659419Y-76486435D01*
X112644068Y-76502679D01*
X112622189Y-76523854D01*
X112603038Y-76539693D01*
X112583024Y-76552816D01*
X112558555Y-76565842D01*
X112555168Y-76567514D01*
X112531120Y-76578607D01*
X112506543Y-76588769D01*
X112485202Y-76596490D01*
X112476539Y-76599064D01*
X112447063Y-76604592D01*
X112411274Y-76608062D01*
X112372826Y-76609376D01*
X112335373Y-76608437D01*
X112302572Y-76605146D01*
X112295358Y-76603913D01*
X112232184Y-76586926D01*
X112173283Y-76560873D01*
X112151264Y-76548089D01*
X112127403Y-76531362D01*
X112101537Y-76510211D01*
X112076474Y-76487185D01*
X112055018Y-76464834D01*
X112042242Y-76449022D01*
X112032028Y-76434677D01*
X112091723Y-76389385D01*
X112113327Y-76373067D01*
X112132396Y-76358801D01*
X112147304Y-76347792D01*
X112156427Y-76341245D01*
X112158120Y-76340129D01*
X112165266Y-76341518D01*
X112178347Y-76350739D01*
X112197492Y-76367885D01*
X112202094Y-76372306D01*
X112234549Y-76400375D01*
X112266448Y-76420261D01*
X112300556Y-76433381D01*
X112335104Y-76440531D01*
X112382847Y-76442816D01*
X112428402Y-76436093D01*
X112470603Y-76420936D01*
X112508287Y-76397916D01*
X112540289Y-76367607D01*
X112565446Y-76330581D01*
X112567768Y-76326077D01*
X112573895Y-76314525D01*
X112579347Y-76304700D01*
X112583433Y-76296464D01*
X112585462Y-76289678D01*
X112584744Y-76284204D01*
X112580586Y-76279903D01*
X112572298Y-76276637D01*
X112559189Y-76274267D01*
X112540568Y-76272656D01*
X112515743Y-76271664D01*
X112484025Y-76271154D01*
X112444722Y-76270986D01*
X112397142Y-76271022D01*
X112340596Y-76271124D01*
X112293659Y-76271161D01*
X112231749Y-76271146D01*
X112179230Y-76271087D01*
X112135331Y-76270960D01*
X112099282Y-76270742D01*
X112070312Y-76270410D01*
X112047652Y-76269939D01*
X112030532Y-76269307D01*
X112018181Y-76268490D01*
X112009831Y-76267465D01*
X112004709Y-76266209D01*
X112002047Y-76264697D01*
X112001075Y-76262907D01*
X112000995Y-76262271D01*
X112001744Y-76199281D01*
X112011715Y-76138668D01*
X112017616Y-76120492D01*
X112199679Y-76120492D01*
X112204570Y-76121260D01*
X112218487Y-76121967D01*
X112240297Y-76122590D01*
X112268867Y-76123110D01*
X112303063Y-76123506D01*
X112341751Y-76123756D01*
X112382559Y-76123841D01*
X112424525Y-76123757D01*
X112463100Y-76123519D01*
X112497151Y-76123145D01*
X112525543Y-76122657D01*
X112547143Y-76122071D01*
X112560818Y-76121409D01*
X112565439Y-76120711D01*
X112562244Y-76113612D01*
X112553993Y-76101664D01*
X112542685Y-76087330D01*
X112530318Y-76073071D01*
X112518894Y-76061351D01*
X112513391Y-76056614D01*
X112475289Y-76033383D01*
X112434405Y-76018744D01*
X112392186Y-76012535D01*
X112350080Y-76014590D01*
X112309533Y-76024745D01*
X112271993Y-76042836D01*
X112238908Y-76068698D01*
X112220250Y-76089897D01*
X112209845Y-76104141D01*
X112202447Y-76115153D01*
X112199679Y-76120492D01*
X112017616Y-76120492D01*
X112030342Y-76081294D01*
X112057060Y-76028022D01*
G36*
X109801919Y-76591201D02*
G01*
X109619039Y-76591201D01*
X109619039Y-75864761D01*
X109801919Y-75864761D01*
X109801919Y-76591201D01*
G37*
X109801919Y-76591201D02*
X109619039Y-76591201D01*
X109619039Y-75864761D01*
X109801919Y-75864761D01*
X109801919Y-76591201D01*
D11*
X113626739Y-65573956D03*
D12*
X108228791Y-65574990D03*
X108228794Y-63340120D03*
X113624247Y-63340119D03*
D13*
X109826044Y-67126741D03*
D12*
X109825010Y-61728793D03*
X112059880Y-61728796D03*
X112059881Y-67124249D03*
G04 #@! TA.AperFunction,Conductor*
G36*
X116733620Y-58628503D02*
G01*
X116780113Y-58682159D01*
X116791499Y-58734501D01*
X116791499Y-82865501D01*
X116771497Y-82933622D01*
X116717841Y-82980115D01*
X116665499Y-82991501D01*
X105234499Y-82991501D01*
X105166378Y-82971499D01*
X105119885Y-82917843D01*
X105108499Y-82865501D01*
X105108499Y-77150001D01*
X106885999Y-77150001D01*
X113331448Y-77150001D01*
X113369887Y-77156008D01*
X113387344Y-77161600D01*
X113403478Y-77162012D01*
X113409360Y-77162162D01*
X113429561Y-77164316D01*
X113442271Y-77166720D01*
X113442273Y-77166720D01*
X113450843Y-77168341D01*
X113451056Y-77168320D01*
X113451455Y-77168395D01*
X113460393Y-77167509D01*
X113460395Y-77167509D01*
X113473189Y-77166241D01*
X113485018Y-77165068D01*
X113500660Y-77164494D01*
X113508668Y-77164698D01*
X113525411Y-77165126D01*
X113525412Y-77165126D01*
X113534385Y-77165355D01*
X113551148Y-77160914D01*
X113555624Y-77159729D01*
X113575608Y-77156129D01*
X113588600Y-77154857D01*
X113588606Y-77154855D01*
X113597233Y-77154011D01*
X113597458Y-77153921D01*
X113597827Y-77153884D01*
X113600502Y-77152805D01*
X113623602Y-77150001D01*
X115013999Y-77150001D01*
X115013999Y-74356001D01*
X106885999Y-74356001D01*
X106885999Y-77150001D01*
X105108499Y-77150001D01*
X105108499Y-67060900D01*
X108962189Y-67060900D01*
X108964277Y-67207107D01*
X108981621Y-67316611D01*
X109031288Y-67469471D01*
X109081621Y-67568256D01*
X109088469Y-67581234D01*
X109091433Y-67585193D01*
X109091434Y-67585195D01*
X109170878Y-67691319D01*
X109176097Y-67698291D01*
X109254494Y-67776688D01*
X109265017Y-67786915D01*
X109269063Y-67789767D01*
X109269064Y-67789768D01*
X109380850Y-67868571D01*
X109380855Y-67868574D01*
X109384529Y-67871164D01*
X109388539Y-67873207D01*
X109388542Y-67873209D01*
X109478900Y-67919248D01*
X109483314Y-67921497D01*
X109488026Y-67923028D01*
X109631464Y-67969634D01*
X109631468Y-67969635D01*
X109636174Y-67971164D01*
X109674463Y-67977228D01*
X109745265Y-67988443D01*
X109745319Y-67988451D01*
X109745678Y-67988508D01*
X109746068Y-67988564D01*
X109746114Y-67988571D01*
X109755304Y-67989892D01*
X109755307Y-67989892D01*
X109760203Y-67990596D01*
X109906410Y-67988508D01*
X109910846Y-67987805D01*
X109910851Y-67987805D01*
X109977964Y-67977175D01*
X110015914Y-67971164D01*
X110020620Y-67969635D01*
X110020624Y-67969634D01*
X110164062Y-67923028D01*
X110168774Y-67921497D01*
X110267559Y-67871164D01*
X110280537Y-67864316D01*
X110397594Y-67776688D01*
X110475991Y-67698291D01*
X110486218Y-67687768D01*
X110525784Y-67631642D01*
X110567874Y-67571935D01*
X110567877Y-67571930D01*
X110570467Y-67568256D01*
X110614886Y-67481079D01*
X110618551Y-67473885D01*
X110620800Y-67469471D01*
X110670467Y-67316611D01*
X110687811Y-67207107D01*
X110689899Y-67192582D01*
X110688923Y-67124249D01*
X111196652Y-67124249D01*
X111215516Y-67303724D01*
X111217556Y-67310002D01*
X111217556Y-67310003D01*
X111248706Y-67405874D01*
X111271282Y-67475356D01*
X111361514Y-67631642D01*
X111482268Y-67765753D01*
X111487610Y-67769634D01*
X111487612Y-67769636D01*
X111613847Y-67861351D01*
X111628266Y-67871827D01*
X111634294Y-67874511D01*
X111634296Y-67874512D01*
X111787098Y-67942544D01*
X111793129Y-67945229D01*
X111881389Y-67963989D01*
X111963192Y-67981377D01*
X111963196Y-67981377D01*
X111969649Y-67982749D01*
X112150113Y-67982749D01*
X112156566Y-67981377D01*
X112156570Y-67981377D01*
X112238373Y-67963989D01*
X112326633Y-67945229D01*
X112332664Y-67942544D01*
X112485466Y-67874512D01*
X112485468Y-67874511D01*
X112491496Y-67871827D01*
X112505915Y-67861351D01*
X112632150Y-67769636D01*
X112632152Y-67769634D01*
X112637494Y-67765753D01*
X112758248Y-67631642D01*
X112848480Y-67475356D01*
X112871056Y-67405874D01*
X112902206Y-67310003D01*
X112902206Y-67310002D01*
X112904246Y-67303724D01*
X112923110Y-67124249D01*
X112904246Y-66944774D01*
X112848480Y-66773142D01*
X112758248Y-66616856D01*
X112703026Y-66555525D01*
X112641916Y-66487656D01*
X112641915Y-66487655D01*
X112637494Y-66482745D01*
X112629816Y-66477166D01*
X112496838Y-66380552D01*
X112496837Y-66380551D01*
X112491496Y-66376671D01*
X112485468Y-66373987D01*
X112485466Y-66373986D01*
X112332664Y-66305954D01*
X112332662Y-66305954D01*
X112326633Y-66303269D01*
X112224424Y-66281544D01*
X112156570Y-66267121D01*
X112156566Y-66267121D01*
X112150113Y-66265749D01*
X111969649Y-66265749D01*
X111963196Y-66267121D01*
X111963192Y-66267121D01*
X111895338Y-66281544D01*
X111793129Y-66303269D01*
X111787100Y-66305953D01*
X111787098Y-66305954D01*
X111634297Y-66373986D01*
X111634295Y-66373987D01*
X111628267Y-66376671D01*
X111622926Y-66380551D01*
X111622925Y-66380552D01*
X111487612Y-66478862D01*
X111487610Y-66478864D01*
X111482268Y-66482745D01*
X111477847Y-66487655D01*
X111477846Y-66487656D01*
X111416737Y-66555525D01*
X111361514Y-66616856D01*
X111271282Y-66773142D01*
X111215516Y-66944774D01*
X111196652Y-67124249D01*
X110688923Y-67124249D01*
X110687811Y-67046375D01*
X110670467Y-66936871D01*
X110620800Y-66784011D01*
X110570467Y-66685226D01*
X110563619Y-66672248D01*
X110526434Y-66622574D01*
X110478689Y-66558795D01*
X110478688Y-66558794D01*
X110475991Y-66555191D01*
X110397594Y-66476794D01*
X110387071Y-66466567D01*
X110346279Y-66437811D01*
X110271238Y-66384911D01*
X110271233Y-66384908D01*
X110267559Y-66382318D01*
X110263549Y-66380275D01*
X110263546Y-66380273D01*
X110173188Y-66334234D01*
X110168774Y-66331985D01*
X110126333Y-66318195D01*
X110020624Y-66283848D01*
X110020620Y-66283847D01*
X110015914Y-66282318D01*
X109977625Y-66276254D01*
X109906823Y-66265039D01*
X109906769Y-66265031D01*
X109906410Y-66264974D01*
X109906020Y-66264918D01*
X109905974Y-66264911D01*
X109896784Y-66263590D01*
X109896781Y-66263590D01*
X109891885Y-66262886D01*
X109745678Y-66264974D01*
X109741242Y-66265677D01*
X109741237Y-66265677D01*
X109674124Y-66276307D01*
X109636174Y-66282318D01*
X109631468Y-66283847D01*
X109631464Y-66283848D01*
X109525755Y-66318195D01*
X109483314Y-66331985D01*
X109384529Y-66382318D01*
X109371551Y-66389166D01*
X109367592Y-66392130D01*
X109367590Y-66392131D01*
X109362462Y-66395970D01*
X109254494Y-66476794D01*
X109176097Y-66555191D01*
X109165870Y-66565714D01*
X109163018Y-66569760D01*
X109163017Y-66569761D01*
X109090770Y-66672248D01*
X109081621Y-66685226D01*
X109031288Y-66784011D01*
X108981621Y-66936871D01*
X108964277Y-67046375D01*
X108962189Y-67060900D01*
X105108499Y-67060900D01*
X105108499Y-65574990D01*
X107365562Y-65574990D01*
X107384426Y-65754465D01*
X107386466Y-65760743D01*
X107386466Y-65760744D01*
X107388998Y-65768536D01*
X107440192Y-65926097D01*
X107530424Y-66082383D01*
X107534842Y-66087290D01*
X107534843Y-66087291D01*
X107584015Y-66141902D01*
X107651178Y-66216494D01*
X107656520Y-66220375D01*
X107656522Y-66220377D01*
X107768725Y-66301897D01*
X107797176Y-66322568D01*
X107803204Y-66325252D01*
X107803206Y-66325253D01*
X107931376Y-66382318D01*
X107962039Y-66395970D01*
X108050299Y-66414730D01*
X108132102Y-66432118D01*
X108132106Y-66432118D01*
X108138559Y-66433490D01*
X108319023Y-66433490D01*
X108325476Y-66432118D01*
X108325480Y-66432118D01*
X108407283Y-66414730D01*
X108495543Y-66395970D01*
X108526206Y-66382318D01*
X108654376Y-66325253D01*
X108654378Y-66325252D01*
X108660406Y-66322568D01*
X108688857Y-66301897D01*
X108801060Y-66220377D01*
X108801062Y-66220375D01*
X108806404Y-66216494D01*
X108873567Y-66141902D01*
X108922739Y-66087291D01*
X108922740Y-66087290D01*
X108927158Y-66082383D01*
X109017390Y-65926097D01*
X109068584Y-65768536D01*
X109071116Y-65760744D01*
X109071116Y-65760743D01*
X109073156Y-65754465D01*
X109092020Y-65574990D01*
X109084991Y-65508115D01*
X112762884Y-65508115D01*
X112764972Y-65654322D01*
X112782316Y-65763826D01*
X112831983Y-65916686D01*
X112882316Y-66015471D01*
X112889164Y-66028449D01*
X112892128Y-66032408D01*
X112892129Y-66032410D01*
X112971573Y-66138534D01*
X112976792Y-66145506D01*
X113055189Y-66223903D01*
X113065712Y-66234130D01*
X113069758Y-66236982D01*
X113069759Y-66236983D01*
X113181545Y-66315786D01*
X113181550Y-66315789D01*
X113185224Y-66318379D01*
X113189234Y-66320422D01*
X113189237Y-66320424D01*
X113216341Y-66334234D01*
X113284009Y-66368712D01*
X113288721Y-66370243D01*
X113432159Y-66416849D01*
X113432163Y-66416850D01*
X113436869Y-66418379D01*
X113475158Y-66424443D01*
X113545960Y-66435658D01*
X113546014Y-66435666D01*
X113546373Y-66435723D01*
X113546763Y-66435779D01*
X113546809Y-66435786D01*
X113555999Y-66437107D01*
X113556002Y-66437107D01*
X113560898Y-66437811D01*
X113707105Y-66435723D01*
X113711541Y-66435020D01*
X113711546Y-66435020D01*
X113778659Y-66424390D01*
X113816609Y-66418379D01*
X113821315Y-66416850D01*
X113821319Y-66416849D01*
X113964757Y-66370243D01*
X113969469Y-66368712D01*
X114068254Y-66318379D01*
X114081232Y-66311531D01*
X114094102Y-66301897D01*
X114194685Y-66226601D01*
X114194686Y-66226600D01*
X114198289Y-66223903D01*
X114276686Y-66145506D01*
X114286913Y-66134983D01*
X114359221Y-66032410D01*
X114368569Y-66019150D01*
X114368572Y-66019145D01*
X114371162Y-66015471D01*
X114421495Y-65916686D01*
X114471162Y-65763826D01*
X114488506Y-65654322D01*
X114490594Y-65639797D01*
X114488506Y-65493590D01*
X114471162Y-65384086D01*
X114421495Y-65231226D01*
X114371162Y-65132441D01*
X114364314Y-65119463D01*
X114325488Y-65067597D01*
X114279384Y-65006010D01*
X114279383Y-65006009D01*
X114276686Y-65002406D01*
X114198289Y-64924009D01*
X114187766Y-64913782D01*
X114183719Y-64910929D01*
X114071933Y-64832126D01*
X114071928Y-64832123D01*
X114068254Y-64829533D01*
X114064244Y-64827490D01*
X114064241Y-64827488D01*
X113973883Y-64781449D01*
X113969469Y-64779200D01*
X113959209Y-64775866D01*
X113821319Y-64731063D01*
X113821315Y-64731062D01*
X113816609Y-64729533D01*
X113778320Y-64723469D01*
X113707518Y-64712254D01*
X113707464Y-64712246D01*
X113707105Y-64712189D01*
X113706715Y-64712133D01*
X113706669Y-64712126D01*
X113697479Y-64710805D01*
X113697476Y-64710805D01*
X113692580Y-64710101D01*
X113546373Y-64712189D01*
X113541937Y-64712892D01*
X113541932Y-64712892D01*
X113474819Y-64723522D01*
X113436869Y-64729533D01*
X113432163Y-64731062D01*
X113432159Y-64731063D01*
X113294269Y-64775866D01*
X113284009Y-64779200D01*
X113185224Y-64829533D01*
X113172246Y-64836381D01*
X113055189Y-64924009D01*
X112976792Y-65002406D01*
X112966565Y-65012929D01*
X112963713Y-65016975D01*
X112963712Y-65016976D01*
X112891465Y-65119463D01*
X112882316Y-65132441D01*
X112831983Y-65231226D01*
X112782316Y-65384086D01*
X112764972Y-65493590D01*
X112762884Y-65508115D01*
X109084991Y-65508115D01*
X109073156Y-65395515D01*
X109017390Y-65223883D01*
X108927158Y-65067597D01*
X108874738Y-65009378D01*
X108810826Y-64938397D01*
X108810825Y-64938396D01*
X108806404Y-64933486D01*
X108793873Y-64924381D01*
X108665748Y-64831293D01*
X108665747Y-64831292D01*
X108660406Y-64827412D01*
X108654378Y-64824728D01*
X108654376Y-64824727D01*
X108501574Y-64756695D01*
X108501572Y-64756695D01*
X108495543Y-64754010D01*
X108407283Y-64735250D01*
X108325480Y-64717862D01*
X108325476Y-64717862D01*
X108319023Y-64716490D01*
X108138559Y-64716490D01*
X108132106Y-64717862D01*
X108132102Y-64717862D01*
X108050299Y-64735250D01*
X107962039Y-64754010D01*
X107956010Y-64756694D01*
X107956008Y-64756695D01*
X107803207Y-64824727D01*
X107803205Y-64824728D01*
X107797177Y-64827412D01*
X107791836Y-64831292D01*
X107791835Y-64831293D01*
X107656522Y-64929603D01*
X107656520Y-64929605D01*
X107651178Y-64933486D01*
X107646757Y-64938396D01*
X107646756Y-64938397D01*
X107582845Y-65009378D01*
X107530424Y-65067597D01*
X107440192Y-65223883D01*
X107384426Y-65395515D01*
X107365562Y-65574990D01*
X105108499Y-65574990D01*
X105108499Y-64100210D01*
X107833534Y-64100210D01*
X107837045Y-64104900D01*
X107956166Y-64157936D01*
X107968654Y-64161993D01*
X108132158Y-64196748D01*
X108145218Y-64198120D01*
X108312370Y-64198120D01*
X108325430Y-64196748D01*
X108488934Y-64161993D01*
X108501422Y-64157936D01*
X108613557Y-64108010D01*
X108624301Y-64098878D01*
X108622704Y-64093240D01*
X108241606Y-63712142D01*
X108227662Y-63704528D01*
X108225829Y-63704659D01*
X108219214Y-63708910D01*
X107840294Y-64087830D01*
X107833534Y-64100210D01*
X105108499Y-64100210D01*
X105108499Y-63346685D01*
X107366758Y-63346685D01*
X107384231Y-63512927D01*
X107386961Y-63525770D01*
X107438613Y-63684737D01*
X107443959Y-63696745D01*
X107460157Y-63724800D01*
X107470363Y-63734531D01*
X107478384Y-63731320D01*
X107856772Y-63352932D01*
X107863150Y-63341252D01*
X108593202Y-63341252D01*
X108593333Y-63343085D01*
X108597584Y-63349700D01*
X108975561Y-63727677D01*
X108987941Y-63734437D01*
X108994856Y-63729261D01*
X109013629Y-63696745D01*
X109018975Y-63684737D01*
X109070627Y-63525770D01*
X109073357Y-63512927D01*
X109090830Y-63346685D01*
X109090830Y-63340119D01*
X112761018Y-63340119D01*
X112779882Y-63519594D01*
X112835648Y-63691226D01*
X112838951Y-63696948D01*
X112838952Y-63696949D01*
X112858796Y-63731320D01*
X112925880Y-63847512D01*
X113046634Y-63981623D01*
X113192632Y-64087697D01*
X113198660Y-64090381D01*
X113198662Y-64090382D01*
X113351464Y-64158414D01*
X113357495Y-64161099D01*
X113445755Y-64179859D01*
X113527558Y-64197247D01*
X113527562Y-64197247D01*
X113534015Y-64198619D01*
X113714479Y-64198619D01*
X113720932Y-64197247D01*
X113720936Y-64197247D01*
X113802739Y-64179859D01*
X113890999Y-64161099D01*
X113897030Y-64158414D01*
X114049832Y-64090382D01*
X114049834Y-64090381D01*
X114055862Y-64087697D01*
X114201860Y-63981623D01*
X114322614Y-63847512D01*
X114389698Y-63731320D01*
X114409542Y-63696949D01*
X114409543Y-63696948D01*
X114412846Y-63691226D01*
X114468612Y-63519594D01*
X114487476Y-63340119D01*
X114486469Y-63330540D01*
X114469302Y-63167208D01*
X114469302Y-63167207D01*
X114468612Y-63160644D01*
X114412846Y-62989012D01*
X114322614Y-62832726D01*
X114201860Y-62698615D01*
X114055862Y-62592541D01*
X114049834Y-62589857D01*
X114049832Y-62589856D01*
X113897030Y-62521824D01*
X113897028Y-62521824D01*
X113890999Y-62519139D01*
X113785365Y-62496686D01*
X113720936Y-62482991D01*
X113720932Y-62482991D01*
X113714479Y-62481619D01*
X113534015Y-62481619D01*
X113527562Y-62482991D01*
X113527558Y-62482991D01*
X113463129Y-62496686D01*
X113357495Y-62519139D01*
X113351466Y-62521823D01*
X113351464Y-62521824D01*
X113198663Y-62589856D01*
X113198661Y-62589857D01*
X113192633Y-62592541D01*
X113187292Y-62596421D01*
X113187291Y-62596422D01*
X113051978Y-62694732D01*
X113051976Y-62694734D01*
X113046634Y-62698615D01*
X112925880Y-62832726D01*
X112835648Y-62989012D01*
X112779882Y-63160644D01*
X112779192Y-63167207D01*
X112779192Y-63167208D01*
X112762025Y-63330540D01*
X112761018Y-63340119D01*
X109090830Y-63340119D01*
X109090830Y-63333555D01*
X109073357Y-63167313D01*
X109070627Y-63154470D01*
X109018975Y-62995503D01*
X109013629Y-62983495D01*
X108997431Y-62955440D01*
X108987225Y-62945709D01*
X108979204Y-62948920D01*
X108600816Y-63327308D01*
X108593202Y-63341252D01*
X107863150Y-63341252D01*
X107864386Y-63338988D01*
X107864255Y-63337155D01*
X107860004Y-63330540D01*
X107482027Y-62952563D01*
X107469647Y-62945803D01*
X107462732Y-62950979D01*
X107443959Y-62983495D01*
X107438613Y-62995503D01*
X107386961Y-63154470D01*
X107384231Y-63167313D01*
X107366758Y-63333555D01*
X107366758Y-63346685D01*
X105108499Y-63346685D01*
X105108499Y-62581362D01*
X107833287Y-62581362D01*
X107834884Y-62587000D01*
X108215982Y-62968098D01*
X108229926Y-62975712D01*
X108231759Y-62975581D01*
X108238374Y-62971330D01*
X108617294Y-62592410D01*
X108624054Y-62580030D01*
X108620543Y-62575340D01*
X108501422Y-62522304D01*
X108488934Y-62518247D01*
X108325430Y-62483492D01*
X108312370Y-62482120D01*
X108145218Y-62482120D01*
X108132158Y-62483492D01*
X107968654Y-62518247D01*
X107956166Y-62522304D01*
X107844031Y-62572230D01*
X107833287Y-62581362D01*
X105108499Y-62581362D01*
X105108499Y-61728793D01*
X108961781Y-61728793D01*
X108980645Y-61908268D01*
X109036411Y-62079900D01*
X109126643Y-62236186D01*
X109247397Y-62370297D01*
X109393395Y-62476371D01*
X109399423Y-62479055D01*
X109399425Y-62479056D01*
X109551158Y-62546612D01*
X109558258Y-62549773D01*
X109646518Y-62568533D01*
X109728321Y-62585921D01*
X109728325Y-62585921D01*
X109734778Y-62587293D01*
X109915242Y-62587293D01*
X109921695Y-62585921D01*
X109921699Y-62585921D01*
X110003502Y-62568533D01*
X110091762Y-62549773D01*
X110098862Y-62546612D01*
X110228516Y-62488886D01*
X111664620Y-62488886D01*
X111668131Y-62493576D01*
X111787252Y-62546612D01*
X111799740Y-62550669D01*
X111963244Y-62585424D01*
X111976304Y-62586796D01*
X112143456Y-62586796D01*
X112156516Y-62585424D01*
X112320020Y-62550669D01*
X112332508Y-62546612D01*
X112444643Y-62496686D01*
X112455387Y-62487554D01*
X112453790Y-62481916D01*
X112072692Y-62100818D01*
X112058748Y-62093204D01*
X112056915Y-62093335D01*
X112050300Y-62097586D01*
X111671380Y-62476506D01*
X111664620Y-62488886D01*
X110228516Y-62488886D01*
X110250595Y-62479056D01*
X110250597Y-62479055D01*
X110256625Y-62476371D01*
X110402623Y-62370297D01*
X110523377Y-62236186D01*
X110613609Y-62079900D01*
X110669375Y-61908268D01*
X110687549Y-61735361D01*
X111197844Y-61735361D01*
X111215317Y-61901603D01*
X111218047Y-61914446D01*
X111269699Y-62073413D01*
X111275045Y-62085421D01*
X111291243Y-62113476D01*
X111301449Y-62123207D01*
X111309470Y-62119996D01*
X111687858Y-61741608D01*
X111694236Y-61729928D01*
X112424288Y-61729928D01*
X112424419Y-61731761D01*
X112428670Y-61738376D01*
X112806647Y-62116353D01*
X112819027Y-62123113D01*
X112825942Y-62117937D01*
X112844715Y-62085421D01*
X112850061Y-62073413D01*
X112901713Y-61914446D01*
X112904443Y-61901603D01*
X112921916Y-61735361D01*
X112921916Y-61722231D01*
X112904443Y-61555989D01*
X112901713Y-61543146D01*
X112850061Y-61384179D01*
X112844715Y-61372171D01*
X112828517Y-61344116D01*
X112818311Y-61334385D01*
X112810290Y-61337596D01*
X112431902Y-61715984D01*
X112424288Y-61729928D01*
X111694236Y-61729928D01*
X111695472Y-61727664D01*
X111695341Y-61725831D01*
X111691090Y-61719216D01*
X111313113Y-61341239D01*
X111300733Y-61334479D01*
X111293818Y-61339655D01*
X111275045Y-61372171D01*
X111269699Y-61384179D01*
X111218047Y-61543146D01*
X111215317Y-61555989D01*
X111197844Y-61722231D01*
X111197844Y-61735361D01*
X110687549Y-61735361D01*
X110688239Y-61728793D01*
X110669375Y-61549318D01*
X110613609Y-61377686D01*
X110605932Y-61364388D01*
X110526678Y-61227118D01*
X110523377Y-61221400D01*
X110402623Y-61087289D01*
X110256625Y-60981215D01*
X110250597Y-60978531D01*
X110250595Y-60978530D01*
X110231522Y-60970038D01*
X111664373Y-60970038D01*
X111665970Y-60975676D01*
X112047068Y-61356774D01*
X112061012Y-61364388D01*
X112062845Y-61364257D01*
X112069460Y-61360006D01*
X112448380Y-60981086D01*
X112455140Y-60968706D01*
X112451629Y-60964016D01*
X112332508Y-60910980D01*
X112320020Y-60906923D01*
X112156516Y-60872168D01*
X112143456Y-60870796D01*
X111976304Y-60870796D01*
X111963244Y-60872168D01*
X111799740Y-60906923D01*
X111787252Y-60910980D01*
X111675117Y-60960906D01*
X111664373Y-60970038D01*
X110231522Y-60970038D01*
X110097793Y-60910498D01*
X110097791Y-60910498D01*
X110091762Y-60907813D01*
X110003502Y-60889053D01*
X109921699Y-60871665D01*
X109921695Y-60871665D01*
X109915242Y-60870293D01*
X109734778Y-60870293D01*
X109728325Y-60871665D01*
X109728321Y-60871665D01*
X109646518Y-60889053D01*
X109558258Y-60907813D01*
X109552229Y-60910497D01*
X109552227Y-60910498D01*
X109399426Y-60978530D01*
X109399424Y-60978531D01*
X109393396Y-60981215D01*
X109388055Y-60985095D01*
X109388054Y-60985096D01*
X109252741Y-61083406D01*
X109252739Y-61083408D01*
X109247397Y-61087289D01*
X109126643Y-61221400D01*
X109123342Y-61227118D01*
X109044089Y-61364388D01*
X109036411Y-61377686D01*
X108980645Y-61549318D01*
X108961781Y-61728793D01*
X105108499Y-61728793D01*
X105108499Y-58734501D01*
X105128501Y-58666380D01*
X105182157Y-58619887D01*
X105234499Y-58608501D01*
X116665499Y-58608501D01*
X116733620Y-58628503D01*
G37*
G04 #@! TD.AperFunction*
M02*
