G04 #@! TF.GenerationSoftware,KiCad,Pcbnew,(6.0.7)*
G04 #@! TF.CreationDate,2022-08-12T11:37:01-07:00*
G04 #@! TF.ProjectId,mlx90640-breakout,6d6c7839-3036-4343-902d-627265616b6f,rev?*
G04 #@! TF.SameCoordinates,Original*
G04 #@! TF.FileFunction,Legend,Bot*
G04 #@! TF.FilePolarity,Positive*
%FSLAX46Y46*%
G04 Gerber Fmt 4.6, Leading zero omitted, Abs format (unit mm)*
G04 Created by KiCad (PCBNEW (6.0.7)) date 2022-08-12 11:37:01*
%MOMM*%
%LPD*%
G01*
G04 APERTURE LIST*
%ADD10C,0.100000*%
%ADD11C,0.050000*%
%ADD12C,0.075000*%
%ADD13C,0.010000*%
%ADD14C,0.127000*%
%ADD15C,0.120000*%
%ADD16C,0.200000*%
G04 APERTURE END LIST*
D10*
X107266999Y-62418001D02*
X114759999Y-62418001D01*
X114759999Y-62418001D02*
X114759999Y-66482001D01*
X114759999Y-66482001D02*
X107266999Y-66482001D01*
X107266999Y-66482001D02*
X107266999Y-62418001D01*
X115349999Y-82628429D02*
X115349999Y-82228429D01*
X115349999Y-82285572D02*
X115321427Y-82257001D01*
X115264284Y-82228429D01*
X115178570Y-82228429D01*
X115121427Y-82257001D01*
X115092856Y-82314143D01*
X115092856Y-82628429D01*
X115092856Y-82314143D02*
X115064284Y-82257001D01*
X115007141Y-82228429D01*
X114921427Y-82228429D01*
X114864284Y-82257001D01*
X114835713Y-82314143D01*
X114835713Y-82628429D01*
X114464284Y-82628429D02*
X114521427Y-82599858D01*
X114549999Y-82542715D01*
X114549999Y-82028429D01*
X114292856Y-82628429D02*
X113978570Y-82228429D01*
X114292856Y-82228429D02*
X113978570Y-82628429D01*
X113721427Y-82628429D02*
X113607141Y-82628429D01*
X113549999Y-82599858D01*
X113521427Y-82571286D01*
X113464284Y-82485572D01*
X113435713Y-82371286D01*
X113435713Y-82142715D01*
X113464284Y-82085572D01*
X113492856Y-82057001D01*
X113549999Y-82028429D01*
X113664284Y-82028429D01*
X113721427Y-82057001D01*
X113749999Y-82085572D01*
X113778570Y-82142715D01*
X113778570Y-82285572D01*
X113749999Y-82342715D01*
X113721427Y-82371286D01*
X113664284Y-82399858D01*
X113549999Y-82399858D01*
X113492856Y-82371286D01*
X113464284Y-82342715D01*
X113435713Y-82285572D01*
X113064284Y-82028429D02*
X113007141Y-82028429D01*
X112949999Y-82057001D01*
X112921427Y-82085572D01*
X112892856Y-82142715D01*
X112864284Y-82257001D01*
X112864284Y-82399858D01*
X112892856Y-82514143D01*
X112921427Y-82571286D01*
X112949999Y-82599858D01*
X113007141Y-82628429D01*
X113064284Y-82628429D01*
X113121427Y-82599858D01*
X113149999Y-82571286D01*
X113178570Y-82514143D01*
X113207141Y-82399858D01*
X113207141Y-82257001D01*
X113178570Y-82142715D01*
X113149999Y-82085572D01*
X113121427Y-82057001D01*
X113064284Y-82028429D01*
X112349999Y-82028429D02*
X112464284Y-82028429D01*
X112521427Y-82057001D01*
X112549999Y-82085572D01*
X112607141Y-82171286D01*
X112635713Y-82285572D01*
X112635713Y-82514143D01*
X112607141Y-82571286D01*
X112578570Y-82599858D01*
X112521427Y-82628429D01*
X112407141Y-82628429D01*
X112349999Y-82599858D01*
X112321427Y-82571286D01*
X112292856Y-82514143D01*
X112292856Y-82371286D01*
X112321427Y-82314143D01*
X112349999Y-82285572D01*
X112407141Y-82257001D01*
X112521427Y-82257001D01*
X112578570Y-82285572D01*
X112607141Y-82314143D01*
X112635713Y-82371286D01*
X111778570Y-82228429D02*
X111778570Y-82628429D01*
X111921427Y-81999858D02*
X112064284Y-82428429D01*
X111692856Y-82428429D01*
X111349999Y-82028429D02*
X111292856Y-82028429D01*
X111235713Y-82057001D01*
X111207141Y-82085572D01*
X111178570Y-82142715D01*
X111149999Y-82257001D01*
X111149999Y-82399858D01*
X111178570Y-82514143D01*
X111207141Y-82571286D01*
X111235713Y-82599858D01*
X111292856Y-82628429D01*
X111349999Y-82628429D01*
X111407141Y-82599858D01*
X111435713Y-82571286D01*
X111464284Y-82514143D01*
X111492856Y-82399858D01*
X111492856Y-82257001D01*
X111464284Y-82142715D01*
X111435713Y-82085572D01*
X111407141Y-82057001D01*
X111349999Y-82028429D01*
X110892856Y-82399858D02*
X110435713Y-82399858D01*
X110149999Y-82628429D02*
X110149999Y-82028429D01*
X110149999Y-82257001D02*
X110092856Y-82228429D01*
X109978570Y-82228429D01*
X109921427Y-82257001D01*
X109892856Y-82285572D01*
X109864284Y-82342715D01*
X109864284Y-82514143D01*
X109892856Y-82571286D01*
X109921427Y-82599858D01*
X109978570Y-82628429D01*
X110092856Y-82628429D01*
X110149999Y-82599858D01*
X109607141Y-82628429D02*
X109607141Y-82228429D01*
X109607141Y-82342715D02*
X109578570Y-82285572D01*
X109549999Y-82257001D01*
X109492856Y-82228429D01*
X109435713Y-82228429D01*
X109007141Y-82599858D02*
X109064284Y-82628429D01*
X109178570Y-82628429D01*
X109235713Y-82599858D01*
X109264284Y-82542715D01*
X109264284Y-82314143D01*
X109235713Y-82257001D01*
X109178570Y-82228429D01*
X109064284Y-82228429D01*
X109007141Y-82257001D01*
X108978570Y-82314143D01*
X108978570Y-82371286D01*
X109264284Y-82428429D01*
X108464284Y-82628429D02*
X108464284Y-82314143D01*
X108492856Y-82257001D01*
X108549999Y-82228429D01*
X108664284Y-82228429D01*
X108721427Y-82257001D01*
X108464284Y-82599858D02*
X108521427Y-82628429D01*
X108664284Y-82628429D01*
X108721427Y-82599858D01*
X108749999Y-82542715D01*
X108749999Y-82485572D01*
X108721427Y-82428429D01*
X108664284Y-82399858D01*
X108521427Y-82399858D01*
X108464284Y-82371286D01*
X108178570Y-82628429D02*
X108178570Y-82028429D01*
X108121427Y-82399858D02*
X107949999Y-82628429D01*
X107949999Y-82228429D02*
X108178570Y-82457001D01*
X107607141Y-82628429D02*
X107664284Y-82599858D01*
X107692856Y-82571286D01*
X107721427Y-82514143D01*
X107721427Y-82342715D01*
X107692856Y-82285572D01*
X107664284Y-82257001D01*
X107607141Y-82228429D01*
X107521427Y-82228429D01*
X107464284Y-82257001D01*
X107435713Y-82285572D01*
X107407141Y-82342715D01*
X107407141Y-82514143D01*
X107435713Y-82571286D01*
X107464284Y-82599858D01*
X107521427Y-82628429D01*
X107607141Y-82628429D01*
X106892856Y-82228429D02*
X106892856Y-82628429D01*
X107149999Y-82228429D02*
X107149999Y-82542715D01*
X107121427Y-82599858D01*
X107064284Y-82628429D01*
X106978570Y-82628429D01*
X106921427Y-82599858D01*
X106892856Y-82571286D01*
X106692856Y-82228429D02*
X106464284Y-82228429D01*
X106607141Y-82028429D02*
X106607141Y-82542715D01*
X106578570Y-82599858D01*
X106521427Y-82628429D01*
X106464284Y-82628429D01*
D11*
X105497713Y-82707715D02*
X105511999Y-82693429D01*
X105526284Y-82664858D01*
X105526284Y-82593429D01*
X105511999Y-82564858D01*
X105497713Y-82550572D01*
X105469141Y-82536286D01*
X105440570Y-82536286D01*
X105397713Y-82550572D01*
X105226284Y-82722001D01*
X105226284Y-82536286D01*
X105526284Y-82350572D02*
X105526284Y-82322001D01*
X105511999Y-82293429D01*
X105497713Y-82279143D01*
X105469141Y-82264858D01*
X105411999Y-82250572D01*
X105340570Y-82250572D01*
X105283427Y-82264858D01*
X105254856Y-82279143D01*
X105240570Y-82293429D01*
X105226284Y-82322001D01*
X105226284Y-82350572D01*
X105240570Y-82379143D01*
X105254856Y-82393429D01*
X105283427Y-82407715D01*
X105340570Y-82422001D01*
X105411999Y-82422001D01*
X105469141Y-82407715D01*
X105497713Y-82393429D01*
X105511999Y-82379143D01*
X105526284Y-82350572D01*
X105497713Y-82136286D02*
X105511999Y-82122001D01*
X105526284Y-82093429D01*
X105526284Y-82022001D01*
X105511999Y-81993429D01*
X105497713Y-81979143D01*
X105469141Y-81964858D01*
X105440570Y-81964858D01*
X105397713Y-81979143D01*
X105226284Y-82150572D01*
X105226284Y-81964858D01*
X105497713Y-81850572D02*
X105511999Y-81836286D01*
X105526284Y-81807715D01*
X105526284Y-81736286D01*
X105511999Y-81707715D01*
X105497713Y-81693429D01*
X105469141Y-81679143D01*
X105440570Y-81679143D01*
X105397713Y-81693429D01*
X105226284Y-81864858D01*
X105226284Y-81679143D01*
X105340570Y-81550572D02*
X105340570Y-81322001D01*
X105526284Y-81122001D02*
X105526284Y-81093429D01*
X105511999Y-81064858D01*
X105497713Y-81050572D01*
X105469141Y-81036286D01*
X105411999Y-81022001D01*
X105340570Y-81022001D01*
X105283427Y-81036286D01*
X105254856Y-81050572D01*
X105240570Y-81064858D01*
X105226284Y-81093429D01*
X105226284Y-81122001D01*
X105240570Y-81150572D01*
X105254856Y-81164858D01*
X105283427Y-81179143D01*
X105340570Y-81193429D01*
X105411999Y-81193429D01*
X105469141Y-81179143D01*
X105497713Y-81164858D01*
X105511999Y-81150572D01*
X105526284Y-81122001D01*
X105397713Y-80850572D02*
X105411999Y-80879143D01*
X105426284Y-80893429D01*
X105454856Y-80907715D01*
X105469141Y-80907715D01*
X105497713Y-80893429D01*
X105511999Y-80879143D01*
X105526284Y-80850572D01*
X105526284Y-80793429D01*
X105511999Y-80764858D01*
X105497713Y-80750572D01*
X105469141Y-80736286D01*
X105454856Y-80736286D01*
X105426284Y-80750572D01*
X105411999Y-80764858D01*
X105397713Y-80793429D01*
X105397713Y-80850572D01*
X105383427Y-80879143D01*
X105369141Y-80893429D01*
X105340570Y-80907715D01*
X105283427Y-80907715D01*
X105254856Y-80893429D01*
X105240570Y-80879143D01*
X105226284Y-80850572D01*
X105226284Y-80793429D01*
X105240570Y-80764858D01*
X105254856Y-80750572D01*
X105283427Y-80736286D01*
X105340570Y-80736286D01*
X105369141Y-80750572D01*
X105383427Y-80764858D01*
X105397713Y-80793429D01*
D12*
X116537951Y-66208191D02*
X116537951Y-66612953D01*
X116514141Y-66660572D01*
X116490332Y-66684381D01*
X116442713Y-66708191D01*
X116347475Y-66708191D01*
X116299856Y-66684381D01*
X116276046Y-66660572D01*
X116252237Y-66612953D01*
X116252237Y-66208191D01*
X116037951Y-66255810D02*
X116014141Y-66232001D01*
X115966522Y-66208191D01*
X115847475Y-66208191D01*
X115799856Y-66232001D01*
X115776046Y-66255810D01*
X115752237Y-66303429D01*
X115752237Y-66351048D01*
X115776046Y-66422477D01*
X116061760Y-66708191D01*
X115752237Y-66708191D01*
X109552951Y-69510191D02*
X109552951Y-69914953D01*
X109529141Y-69962572D01*
X109505332Y-69986381D01*
X109457713Y-70010191D01*
X109362475Y-70010191D01*
X109314856Y-69986381D01*
X109291046Y-69962572D01*
X109267237Y-69914953D01*
X109267237Y-69510191D01*
X108767237Y-70010191D02*
X109052951Y-70010191D01*
X108910094Y-70010191D02*
X108910094Y-69510191D01*
X108957713Y-69581620D01*
X109005332Y-69629239D01*
X109052951Y-69653048D01*
G36*
X108972744Y-75266591D02*
G01*
X108974150Y-75341521D01*
X108821207Y-75341521D01*
X108824019Y-75191661D01*
X108971339Y-75191661D01*
X108972744Y-75266591D01*
G37*
D13*
X108972744Y-75266591D02*
X108974150Y-75341521D01*
X108821207Y-75341521D01*
X108824019Y-75191661D01*
X108971339Y-75191661D01*
X108972744Y-75266591D01*
G36*
X110254039Y-75529481D02*
G01*
X110177839Y-75529481D01*
X110177839Y-75453281D01*
X110254039Y-75453281D01*
X110254039Y-75529481D01*
G37*
X110254039Y-75529481D02*
X110177839Y-75529481D01*
X110177839Y-75453281D01*
X110254039Y-75453281D01*
X110254039Y-75529481D01*
G36*
X109969559Y-75326281D02*
G01*
X109857799Y-75326281D01*
X109857799Y-75214521D01*
X109969559Y-75214521D01*
X109969559Y-75326281D01*
G37*
X109969559Y-75326281D02*
X109857799Y-75326281D01*
X109857799Y-75214521D01*
X109969559Y-75214521D01*
X109969559Y-75326281D01*
G36*
X108349039Y-75458361D02*
G01*
X108242359Y-75458361D01*
X108242359Y-75356761D01*
X108349039Y-75356761D01*
X108349039Y-75458361D01*
G37*
X108349039Y-75458361D02*
X108242359Y-75458361D01*
X108242359Y-75356761D01*
X108349039Y-75356761D01*
X108349039Y-75458361D01*
G36*
X109304079Y-75473601D02*
G01*
X109126279Y-75473601D01*
X109126279Y-75295801D01*
X109304079Y-75295801D01*
X109304079Y-75473601D01*
G37*
X109304079Y-75473601D02*
X109126279Y-75473601D01*
X109126279Y-75295801D01*
X109304079Y-75295801D01*
X109304079Y-75473601D01*
G36*
X108637480Y-75131971D02*
G01*
X108636059Y-75196741D01*
X108571289Y-75198162D01*
X108506519Y-75199584D01*
X108506519Y-75067201D01*
X108638902Y-75067201D01*
X108637480Y-75131971D01*
G37*
X108637480Y-75131971D02*
X108636059Y-75196741D01*
X108571289Y-75198162D01*
X108506519Y-75199584D01*
X108506519Y-75067201D01*
X108638902Y-75067201D01*
X108637480Y-75131971D01*
G36*
X108669079Y-75915561D02*
G01*
X108623359Y-75915561D01*
X108623359Y-75869841D01*
X108669079Y-75869841D01*
X108669079Y-75915561D01*
G37*
X108669079Y-75915561D02*
X108623359Y-75915561D01*
X108623359Y-75869841D01*
X108669079Y-75869841D01*
X108669079Y-75915561D01*
G36*
X107846119Y-75509161D02*
G01*
X107785159Y-75509161D01*
X107785159Y-75448201D01*
X107846119Y-75448201D01*
X107846119Y-75509161D01*
G37*
X107846119Y-75509161D02*
X107785159Y-75509161D01*
X107785159Y-75448201D01*
X107846119Y-75448201D01*
X107846119Y-75509161D01*
G36*
X108120439Y-75707281D02*
G01*
X108044239Y-75707281D01*
X108044239Y-75631081D01*
X108120439Y-75631081D01*
X108120439Y-75707281D01*
G37*
X108120439Y-75707281D02*
X108044239Y-75707281D01*
X108044239Y-75631081D01*
X108120439Y-75631081D01*
X108120439Y-75707281D01*
G36*
X108923079Y-75712361D02*
G01*
X108831639Y-75712361D01*
X108831639Y-75615841D01*
X108923079Y-75615841D01*
X108923079Y-75712361D01*
G37*
X108923079Y-75712361D02*
X108831639Y-75712361D01*
X108831639Y-75615841D01*
X108923079Y-75615841D01*
X108923079Y-75712361D01*
G36*
X109643286Y-75091213D02*
G01*
X109641899Y-75181501D01*
X109554155Y-75182891D01*
X109520780Y-75183255D01*
X109496344Y-75183087D01*
X109479638Y-75182317D01*
X109469453Y-75180873D01*
X109464578Y-75178686D01*
X109463854Y-75177616D01*
X109463077Y-75170494D01*
X109462567Y-75155072D01*
X109462348Y-75133211D01*
X109462444Y-75106766D01*
X109462698Y-75087325D01*
X109464099Y-75003701D01*
X109554386Y-75002313D01*
X109644674Y-75000925D01*
X109643286Y-75091213D01*
G37*
X109643286Y-75091213D02*
X109641899Y-75181501D01*
X109554155Y-75182891D01*
X109520780Y-75183255D01*
X109496344Y-75183087D01*
X109479638Y-75182317D01*
X109469453Y-75180873D01*
X109464578Y-75178686D01*
X109463854Y-75177616D01*
X109463077Y-75170494D01*
X109462567Y-75155072D01*
X109462348Y-75133211D01*
X109462444Y-75106766D01*
X109462698Y-75087325D01*
X109464099Y-75003701D01*
X109554386Y-75002313D01*
X109644674Y-75000925D01*
X109643286Y-75091213D01*
G36*
X108633519Y-75595521D02*
G01*
X108521759Y-75595521D01*
X108521759Y-75478681D01*
X108633519Y-75478681D01*
X108633519Y-75595521D01*
G37*
X108633519Y-75595521D02*
X108521759Y-75595521D01*
X108521759Y-75478681D01*
X108633519Y-75478681D01*
X108633519Y-75595521D01*
G36*
X109171999Y-75031641D02*
G01*
X108994199Y-75031641D01*
X108994199Y-74853841D01*
X109171999Y-74853841D01*
X109171999Y-75031641D01*
G37*
X109171999Y-75031641D02*
X108994199Y-75031641D01*
X108994199Y-74853841D01*
X109171999Y-74853841D01*
X109171999Y-75031641D01*
G36*
X108430319Y-75869841D02*
G01*
X108328719Y-75869841D01*
X108328719Y-75768241D01*
X108430319Y-75768241D01*
X108430319Y-75869841D01*
G37*
X108430319Y-75869841D02*
X108328719Y-75869841D01*
X108328719Y-75768241D01*
X108430319Y-75768241D01*
X108430319Y-75869841D01*
D14*
X116634247Y-64857765D02*
X116634237Y-64057340D01*
X115634435Y-64057348D02*
X116634237Y-64057340D01*
X116634247Y-64857765D02*
X115634446Y-64857774D01*
D15*
X116724999Y-69150001D02*
X115674999Y-69150001D01*
X115674999Y-69150001D02*
X115674999Y-67025001D01*
X115674999Y-67025001D02*
X116724999Y-67025001D01*
X116724999Y-67025001D02*
X116724999Y-69150001D01*
G36*
X116724999Y-69150001D02*
G01*
X115674999Y-69150001D01*
X115674999Y-67025001D01*
X116724999Y-67025001D01*
X116724999Y-69150001D01*
G37*
D14*
X115634435Y-64057348D02*
G75*
G03*
X115634446Y-64857774I-4708339J-400278D01*
G01*
D16*
X114895935Y-68050273D02*
G75*
G03*
X114895935Y-68050273I-100000J0D01*
G01*
D14*
X110542235Y-70134249D02*
X111342660Y-70134239D01*
X110542235Y-70134249D02*
X110542226Y-69134448D01*
X111342652Y-69134437D02*
X111342660Y-70134239D01*
D15*
X106249999Y-70225001D02*
X108374999Y-70225001D01*
X108374999Y-70225001D02*
X108374999Y-69175001D01*
X108374999Y-69175001D02*
X106249999Y-69175001D01*
X106249999Y-69175001D02*
X106249999Y-70225001D01*
G36*
X106249999Y-70225001D02*
G01*
X108374999Y-70225001D01*
X108374999Y-69175001D01*
X106249999Y-69175001D01*
X106249999Y-70225001D01*
G37*
D14*
X111342652Y-69134437D02*
G75*
G03*
X110542226Y-69134448I-400278J4708339D01*
G01*
D16*
X107449727Y-68295937D02*
G75*
G03*
X107449727Y-68295937I-100000J0D01*
G01*
M02*
