%TF.GenerationSoftware,KiCad,Pcbnew,(6.0.7)*%
%TF.CreationDate,2022-08-12T15:38:06-07:00*%
%TF.ProjectId,mlx90632-breakout,6d6c7839-3036-4333-922d-627265616b6f,rev?*%
%TF.SameCoordinates,Original*%
%TF.FileFunction,Drillmap*%
%TF.FilePolarity,Positive*%
%FSLAX45Y45*%
G04 Gerber Fmt 4.5, Leading zero omitted, Abs format (unit mm)*
G04 Created by KiCad (PCBNEW (6.0.7)) date 2022-08-12 15:38:06*
%MOMM*%
%LPD*%
G01*
G04 APERTURE LIST*
%ADD10C,0.050000*%
%ADD11C,0.200000*%
%ADD12C,0.040000*%
G04 APERTURE END LIST*
D10*
X10942600Y-7308600D02*
X10714000Y-7537200D01*
X10942600Y-7308600D02*
X10942600Y-6445000D01*
X10714000Y-7537200D02*
X10714000Y-8350000D01*
X11247400Y-6445000D02*
X10942600Y-6445000D01*
X11476000Y-7537200D02*
X11476000Y-8350000D01*
X11247400Y-7308600D02*
X11247400Y-6445000D01*
X10714000Y-8350000D02*
X11476000Y-8350000D01*
X11247400Y-7308600D02*
X11476000Y-7537200D01*
D11*
D12*
X11027900Y-6869500D02*
X11067900Y-6909500D01*
X11067900Y-6869500D02*
X11027900Y-6909500D01*
X11027900Y-6983800D02*
X11067900Y-7023800D01*
X11067900Y-6983800D02*
X11027900Y-7023800D01*
X11049600Y-7377500D02*
X11089600Y-7417500D01*
X11089600Y-7377500D02*
X11049600Y-7417500D01*
X11116850Y-7275900D02*
X11156850Y-7315900D01*
X11156850Y-7275900D02*
X11116850Y-7315900D01*
X11189300Y-7580700D02*
X11229300Y-7620700D01*
X11229300Y-7580700D02*
X11189300Y-7620700D01*
D11*
X10969119Y-8662976D02*
X10969119Y-8462976D01*
X11016738Y-8462976D01*
X11045309Y-8472500D01*
X11064357Y-8491548D01*
X11073881Y-8510595D01*
X11083405Y-8548691D01*
X11083405Y-8577262D01*
X11073881Y-8615357D01*
X11064357Y-8634405D01*
X11045309Y-8653452D01*
X11016738Y-8662976D01*
X10969119Y-8662976D01*
X11169119Y-8662976D02*
X11169119Y-8529643D01*
X11169119Y-8567738D02*
X11178643Y-8548691D01*
X11188166Y-8539167D01*
X11207214Y-8529643D01*
X11226262Y-8529643D01*
X11292928Y-8662976D02*
X11292928Y-8529643D01*
X11292928Y-8462976D02*
X11283405Y-8472500D01*
X11292928Y-8482024D01*
X11302452Y-8472500D01*
X11292928Y-8462976D01*
X11292928Y-8482024D01*
X11416738Y-8662976D02*
X11397690Y-8653452D01*
X11388166Y-8634405D01*
X11388166Y-8462976D01*
X11521500Y-8662976D02*
X11502452Y-8653452D01*
X11492928Y-8634405D01*
X11492928Y-8462976D01*
X11750071Y-8662976D02*
X11750071Y-8462976D01*
X11816738Y-8605833D01*
X11883405Y-8462976D01*
X11883405Y-8662976D01*
X12064357Y-8662976D02*
X12064357Y-8558214D01*
X12054833Y-8539167D01*
X12035786Y-8529643D01*
X11997690Y-8529643D01*
X11978643Y-8539167D01*
X12064357Y-8653452D02*
X12045309Y-8662976D01*
X11997690Y-8662976D01*
X11978643Y-8653452D01*
X11969119Y-8634405D01*
X11969119Y-8615357D01*
X11978643Y-8596310D01*
X11997690Y-8586786D01*
X12045309Y-8586786D01*
X12064357Y-8577262D01*
X12159595Y-8529643D02*
X12159595Y-8729643D01*
X12159595Y-8539167D02*
X12178643Y-8529643D01*
X12216738Y-8529643D01*
X12235786Y-8539167D01*
X12245309Y-8548691D01*
X12254833Y-8567738D01*
X12254833Y-8624881D01*
X12245309Y-8643929D01*
X12235786Y-8653452D01*
X12216738Y-8662976D01*
X12178643Y-8662976D01*
X12159595Y-8653452D01*
X12340547Y-8643929D02*
X12350071Y-8653452D01*
X12340547Y-8662976D01*
X12331024Y-8653452D01*
X12340547Y-8643929D01*
X12340547Y-8662976D01*
X12340547Y-8539167D02*
X12350071Y-8548691D01*
X12340547Y-8558214D01*
X12331024Y-8548691D01*
X12340547Y-8539167D01*
X12340547Y-8558214D01*
D12*
X10671500Y-8972500D02*
X10711500Y-9012500D01*
X10711500Y-8972500D02*
X10671500Y-9012500D01*
D11*
X11007214Y-8882976D02*
X11026262Y-8882976D01*
X11045309Y-8892500D01*
X11054833Y-8902024D01*
X11064357Y-8921072D01*
X11073881Y-8959167D01*
X11073881Y-9006786D01*
X11064357Y-9044881D01*
X11054833Y-9063929D01*
X11045309Y-9073452D01*
X11026262Y-9082976D01*
X11007214Y-9082976D01*
X10988167Y-9073452D01*
X10978643Y-9063929D01*
X10969119Y-9044881D01*
X10959595Y-9006786D01*
X10959595Y-8959167D01*
X10969119Y-8921072D01*
X10978643Y-8902024D01*
X10988167Y-8892500D01*
X11007214Y-8882976D01*
X11159595Y-9063929D02*
X11169119Y-9073452D01*
X11159595Y-9082976D01*
X11150071Y-9073452D01*
X11159595Y-9063929D01*
X11159595Y-9082976D01*
X11340547Y-8949643D02*
X11340547Y-9082976D01*
X11292928Y-8873452D02*
X11245309Y-9016310D01*
X11369119Y-9016310D01*
X11483405Y-8882976D02*
X11502452Y-8882976D01*
X11521500Y-8892500D01*
X11531024Y-8902024D01*
X11540547Y-8921072D01*
X11550071Y-8959167D01*
X11550071Y-9006786D01*
X11540547Y-9044881D01*
X11531024Y-9063929D01*
X11521500Y-9073452D01*
X11502452Y-9082976D01*
X11483405Y-9082976D01*
X11464357Y-9073452D01*
X11454833Y-9063929D01*
X11445309Y-9044881D01*
X11435786Y-9006786D01*
X11435786Y-8959167D01*
X11445309Y-8921072D01*
X11454833Y-8902024D01*
X11464357Y-8892500D01*
X11483405Y-8882976D01*
X11673881Y-8882976D02*
X11692928Y-8882976D01*
X11711976Y-8892500D01*
X11721500Y-8902024D01*
X11731024Y-8921072D01*
X11740547Y-8959167D01*
X11740547Y-9006786D01*
X11731024Y-9044881D01*
X11721500Y-9063929D01*
X11711976Y-9073452D01*
X11692928Y-9082976D01*
X11673881Y-9082976D01*
X11654833Y-9073452D01*
X11645309Y-9063929D01*
X11635786Y-9044881D01*
X11626262Y-9006786D01*
X11626262Y-8959167D01*
X11635786Y-8921072D01*
X11645309Y-8902024D01*
X11654833Y-8892500D01*
X11673881Y-8882976D01*
X11826262Y-9082976D02*
X11826262Y-8949643D01*
X11826262Y-8968691D02*
X11835786Y-8959167D01*
X11854833Y-8949643D01*
X11883405Y-8949643D01*
X11902452Y-8959167D01*
X11911976Y-8978214D01*
X11911976Y-9082976D01*
X11911976Y-8978214D02*
X11921500Y-8959167D01*
X11940547Y-8949643D01*
X11969119Y-8949643D01*
X11988166Y-8959167D01*
X11997690Y-8978214D01*
X11997690Y-9082976D01*
X12092928Y-9082976D02*
X12092928Y-8949643D01*
X12092928Y-8968691D02*
X12102452Y-8959167D01*
X12121500Y-8949643D01*
X12150071Y-8949643D01*
X12169119Y-8959167D01*
X12178643Y-8978214D01*
X12178643Y-9082976D01*
X12178643Y-8978214D02*
X12188166Y-8959167D01*
X12207214Y-8949643D01*
X12235786Y-8949643D01*
X12254833Y-8959167D01*
X12264357Y-8978214D01*
X12264357Y-9082976D01*
X12654833Y-8873452D02*
X12483405Y-9130595D01*
X12911976Y-8882976D02*
X12931024Y-8882976D01*
X12950071Y-8892500D01*
X12959595Y-8902024D01*
X12969119Y-8921072D01*
X12978643Y-8959167D01*
X12978643Y-9006786D01*
X12969119Y-9044881D01*
X12959595Y-9063929D01*
X12950071Y-9073452D01*
X12931024Y-9082976D01*
X12911976Y-9082976D01*
X12892928Y-9073452D01*
X12883405Y-9063929D01*
X12873881Y-9044881D01*
X12864357Y-9006786D01*
X12864357Y-8959167D01*
X12873881Y-8921072D01*
X12883405Y-8902024D01*
X12892928Y-8892500D01*
X12911976Y-8882976D01*
X13064357Y-9063929D02*
X13073881Y-9073452D01*
X13064357Y-9082976D01*
X13054833Y-9073452D01*
X13064357Y-9063929D01*
X13064357Y-9082976D01*
X13197690Y-8882976D02*
X13216738Y-8882976D01*
X13235786Y-8892500D01*
X13245309Y-8902024D01*
X13254833Y-8921072D01*
X13264357Y-8959167D01*
X13264357Y-9006786D01*
X13254833Y-9044881D01*
X13245309Y-9063929D01*
X13235786Y-9073452D01*
X13216738Y-9082976D01*
X13197690Y-9082976D01*
X13178643Y-9073452D01*
X13169119Y-9063929D01*
X13159595Y-9044881D01*
X13150071Y-9006786D01*
X13150071Y-8959167D01*
X13159595Y-8921072D01*
X13169119Y-8902024D01*
X13178643Y-8892500D01*
X13197690Y-8882976D01*
X13454833Y-9082976D02*
X13340547Y-9082976D01*
X13397690Y-9082976D02*
X13397690Y-8882976D01*
X13378643Y-8911548D01*
X13359595Y-8930595D01*
X13340547Y-8940119D01*
X13635786Y-8882976D02*
X13540547Y-8882976D01*
X13531024Y-8978214D01*
X13540547Y-8968691D01*
X13559595Y-8959167D01*
X13607214Y-8959167D01*
X13626262Y-8968691D01*
X13635786Y-8978214D01*
X13645309Y-8997262D01*
X13645309Y-9044881D01*
X13635786Y-9063929D01*
X13626262Y-9073452D01*
X13607214Y-9082976D01*
X13559595Y-9082976D01*
X13540547Y-9073452D01*
X13531024Y-9063929D01*
X13711976Y-8882976D02*
X13845309Y-8882976D01*
X13759595Y-9082976D01*
X13911976Y-8882976D02*
X13911976Y-8921072D01*
X13988166Y-8882976D02*
X13988166Y-8921072D01*
X14283405Y-9159167D02*
X14273881Y-9149643D01*
X14254833Y-9121072D01*
X14245309Y-9102024D01*
X14235786Y-9073452D01*
X14226262Y-9025833D01*
X14226262Y-8987738D01*
X14235786Y-8940119D01*
X14245309Y-8911548D01*
X14254833Y-8892500D01*
X14273881Y-8863929D01*
X14283405Y-8854405D01*
X14454833Y-8882976D02*
X14359595Y-8882976D01*
X14350071Y-8978214D01*
X14359595Y-8968691D01*
X14378643Y-8959167D01*
X14426262Y-8959167D01*
X14445309Y-8968691D01*
X14454833Y-8978214D01*
X14464357Y-8997262D01*
X14464357Y-9044881D01*
X14454833Y-9063929D01*
X14445309Y-9073452D01*
X14426262Y-9082976D01*
X14378643Y-9082976D01*
X14359595Y-9073452D01*
X14350071Y-9063929D01*
X14702452Y-9082976D02*
X14702452Y-8882976D01*
X14788166Y-9082976D02*
X14788166Y-8978214D01*
X14778643Y-8959167D01*
X14759595Y-8949643D01*
X14731024Y-8949643D01*
X14711976Y-8959167D01*
X14702452Y-8968691D01*
X14911976Y-9082976D02*
X14892928Y-9073452D01*
X14883405Y-9063929D01*
X14873881Y-9044881D01*
X14873881Y-8987738D01*
X14883405Y-8968691D01*
X14892928Y-8959167D01*
X14911976Y-8949643D01*
X14940547Y-8949643D01*
X14959595Y-8959167D01*
X14969119Y-8968691D01*
X14978643Y-8987738D01*
X14978643Y-9044881D01*
X14969119Y-9063929D01*
X14959595Y-9073452D01*
X14940547Y-9082976D01*
X14911976Y-9082976D01*
X15092928Y-9082976D02*
X15073881Y-9073452D01*
X15064357Y-9054405D01*
X15064357Y-8882976D01*
X15245309Y-9073452D02*
X15226262Y-9082976D01*
X15188166Y-9082976D01*
X15169119Y-9073452D01*
X15159595Y-9054405D01*
X15159595Y-8978214D01*
X15169119Y-8959167D01*
X15188166Y-8949643D01*
X15226262Y-8949643D01*
X15245309Y-8959167D01*
X15254833Y-8978214D01*
X15254833Y-8997262D01*
X15159595Y-9016310D01*
X15331024Y-9073452D02*
X15350071Y-9082976D01*
X15388166Y-9082976D01*
X15407214Y-9073452D01*
X15416738Y-9054405D01*
X15416738Y-9044881D01*
X15407214Y-9025833D01*
X15388166Y-9016310D01*
X15359595Y-9016310D01*
X15340547Y-9006786D01*
X15331024Y-8987738D01*
X15331024Y-8978214D01*
X15340547Y-8959167D01*
X15359595Y-8949643D01*
X15388166Y-8949643D01*
X15407214Y-8959167D01*
X15483405Y-9159167D02*
X15492928Y-9149643D01*
X15511976Y-9121072D01*
X15521500Y-9102024D01*
X15531024Y-9073452D01*
X15540547Y-9025833D01*
X15540547Y-8987738D01*
X15531024Y-8940119D01*
X15521500Y-8911548D01*
X15511976Y-8892500D01*
X15492928Y-8863929D01*
X15483405Y-8854405D01*
M02*
