G04 #@! TF.GenerationSoftware,KiCad,Pcbnew,(6.0.7)*
G04 #@! TF.CreationDate,2022-08-12T15:38:03-07:00*
G04 #@! TF.ProjectId,mlx90632-breakout,6d6c7839-3036-4333-922d-627265616b6f,rev?*
G04 #@! TF.SameCoordinates,Original*
G04 #@! TF.FileFunction,Copper,L2,Bot*
G04 #@! TF.FilePolarity,Positive*
%FSLAX46Y46*%
G04 Gerber Fmt 4.6, Leading zero omitted, Abs format (unit mm)*
G04 Created by KiCad (PCBNEW (6.0.7)) date 2022-08-12 15:38:03*
%MOMM*%
%LPD*%
G01*
G04 APERTURE LIST*
G04 #@! TA.AperFunction,EtchedComponent*
%ADD10C,0.010000*%
G04 #@! TD*
G04 #@! TA.AperFunction,SMDPad,CuDef*
%ADD11R,0.300000X0.600000*%
G04 #@! TD*
G04 #@! TA.AperFunction,SMDPad,CuDef*
%ADD12R,2.500000X2.100000*%
G04 #@! TD*
G04 #@! TA.AperFunction,ViaPad*
%ADD13C,0.800000*%
G04 #@! TD*
G04 #@! TA.AperFunction,Conductor*
%ADD14C,0.250000*%
G04 #@! TD*
G04 APERTURE END LIST*
G36*
X111844079Y-80655201D02*
G01*
X111666279Y-80655201D01*
X111666279Y-79563001D01*
X111844079Y-79563001D01*
X111844079Y-80655201D01*
G37*
D10*
X111844079Y-80655201D02*
X111666279Y-80655201D01*
X111666279Y-79563001D01*
X111844079Y-79563001D01*
X111844079Y-80655201D01*
G36*
X109801919Y-79740801D02*
G01*
X109619039Y-79740801D01*
X109619039Y-79563001D01*
X109801919Y-79563001D01*
X109801919Y-79740801D01*
G37*
X109801919Y-79740801D02*
X109619039Y-79740801D01*
X109619039Y-79563001D01*
X109801919Y-79563001D01*
X109801919Y-79740801D01*
G36*
X110676804Y-79947811D02*
G01*
X110627726Y-80010379D01*
X110584833Y-80065303D01*
X110547925Y-80112845D01*
X110516806Y-80153265D01*
X110491278Y-80186825D01*
X110471143Y-80213787D01*
X110456203Y-80234413D01*
X110446261Y-80248963D01*
X110441120Y-80257699D01*
X110440341Y-80260699D01*
X110444046Y-80265815D01*
X110453313Y-80278170D01*
X110467519Y-80296945D01*
X110486040Y-80321321D01*
X110508252Y-80350477D01*
X110533531Y-80383593D01*
X110561254Y-80419850D01*
X110588941Y-80456007D01*
X110618329Y-80494413D01*
X110645795Y-80530414D01*
X110670725Y-80563197D01*
X110692502Y-80591948D01*
X110710514Y-80615853D01*
X110724144Y-80634099D01*
X110732778Y-80645873D01*
X110735792Y-80650317D01*
X110731480Y-80652012D01*
X110717768Y-80653383D01*
X110695413Y-80654395D01*
X110665171Y-80655012D01*
X110631268Y-80655201D01*
X110525050Y-80655201D01*
X110431454Y-80534836D01*
X110407698Y-80504279D01*
X110385811Y-80476112D01*
X110366613Y-80451394D01*
X110350926Y-80431181D01*
X110339569Y-80416529D01*
X110333363Y-80408497D01*
X110332593Y-80407489D01*
X110329714Y-80407213D01*
X110324103Y-80411276D01*
X110315231Y-80420292D01*
X110302571Y-80434877D01*
X110285594Y-80455644D01*
X110263770Y-80483209D01*
X110236572Y-80518187D01*
X110229109Y-80527853D01*
X110130891Y-80655201D01*
X110024825Y-80655201D01*
X109993245Y-80655027D01*
X109965417Y-80654542D01*
X109942829Y-80653799D01*
X109926966Y-80652852D01*
X109919316Y-80651753D01*
X109918844Y-80651391D01*
X109921865Y-80646722D01*
X109930495Y-80634803D01*
X109944133Y-80616429D01*
X109962183Y-80592393D01*
X109984044Y-80563489D01*
X110009119Y-80530511D01*
X110036809Y-80494252D01*
X110066514Y-80455508D01*
X110068630Y-80452754D01*
X110103347Y-80407499D01*
X110132286Y-80369584D01*
X110155920Y-80338337D01*
X110174720Y-80313088D01*
X110189160Y-80293166D01*
X110199712Y-80277901D01*
X110206848Y-80266622D01*
X110211042Y-80258658D01*
X110212766Y-80253340D01*
X110212491Y-80249995D01*
X110212055Y-80249227D01*
X110207615Y-80243348D01*
X110197686Y-80230369D01*
X110182991Y-80211231D01*
X110164252Y-80186872D01*
X110142193Y-80158233D01*
X110117537Y-80126254D01*
X110091006Y-80091873D01*
X110087669Y-80087549D01*
X110061244Y-80053250D01*
X110036879Y-80021483D01*
X110015251Y-79993140D01*
X109997036Y-79969114D01*
X109982911Y-79950299D01*
X109973552Y-79937586D01*
X109969635Y-79931870D01*
X109969559Y-79931666D01*
X109974392Y-79930817D01*
X109987911Y-79930085D01*
X110008638Y-79929506D01*
X110035099Y-79929118D01*
X110065819Y-79928958D01*
X110077509Y-79928963D01*
X110185459Y-79929165D01*
X110254039Y-80020100D01*
X110273923Y-80046335D01*
X110291769Y-80069629D01*
X110306676Y-80088828D01*
X110317741Y-80102773D01*
X110324063Y-80110310D01*
X110325159Y-80111314D01*
X110328870Y-80107565D01*
X110337882Y-80096901D01*
X110351286Y-80080448D01*
X110368168Y-80059331D01*
X110387619Y-80034674D01*
X110398819Y-80020350D01*
X110469939Y-79929107D01*
X110580855Y-79928934D01*
X110691772Y-79928761D01*
X110676804Y-79947811D01*
G37*
X110676804Y-79947811D02*
X110627726Y-80010379D01*
X110584833Y-80065303D01*
X110547925Y-80112845D01*
X110516806Y-80153265D01*
X110491278Y-80186825D01*
X110471143Y-80213787D01*
X110456203Y-80234413D01*
X110446261Y-80248963D01*
X110441120Y-80257699D01*
X110440341Y-80260699D01*
X110444046Y-80265815D01*
X110453313Y-80278170D01*
X110467519Y-80296945D01*
X110486040Y-80321321D01*
X110508252Y-80350477D01*
X110533531Y-80383593D01*
X110561254Y-80419850D01*
X110588941Y-80456007D01*
X110618329Y-80494413D01*
X110645795Y-80530414D01*
X110670725Y-80563197D01*
X110692502Y-80591948D01*
X110710514Y-80615853D01*
X110724144Y-80634099D01*
X110732778Y-80645873D01*
X110735792Y-80650317D01*
X110731480Y-80652012D01*
X110717768Y-80653383D01*
X110695413Y-80654395D01*
X110665171Y-80655012D01*
X110631268Y-80655201D01*
X110525050Y-80655201D01*
X110431454Y-80534836D01*
X110407698Y-80504279D01*
X110385811Y-80476112D01*
X110366613Y-80451394D01*
X110350926Y-80431181D01*
X110339569Y-80416529D01*
X110333363Y-80408497D01*
X110332593Y-80407489D01*
X110329714Y-80407213D01*
X110324103Y-80411276D01*
X110315231Y-80420292D01*
X110302571Y-80434877D01*
X110285594Y-80455644D01*
X110263770Y-80483209D01*
X110236572Y-80518187D01*
X110229109Y-80527853D01*
X110130891Y-80655201D01*
X110024825Y-80655201D01*
X109993245Y-80655027D01*
X109965417Y-80654542D01*
X109942829Y-80653799D01*
X109926966Y-80652852D01*
X109919316Y-80651753D01*
X109918844Y-80651391D01*
X109921865Y-80646722D01*
X109930495Y-80634803D01*
X109944133Y-80616429D01*
X109962183Y-80592393D01*
X109984044Y-80563489D01*
X110009119Y-80530511D01*
X110036809Y-80494252D01*
X110066514Y-80455508D01*
X110068630Y-80452754D01*
X110103347Y-80407499D01*
X110132286Y-80369584D01*
X110155920Y-80338337D01*
X110174720Y-80313088D01*
X110189160Y-80293166D01*
X110199712Y-80277901D01*
X110206848Y-80266622D01*
X110211042Y-80258658D01*
X110212766Y-80253340D01*
X110212491Y-80249995D01*
X110212055Y-80249227D01*
X110207615Y-80243348D01*
X110197686Y-80230369D01*
X110182991Y-80211231D01*
X110164252Y-80186872D01*
X110142193Y-80158233D01*
X110117537Y-80126254D01*
X110091006Y-80091873D01*
X110087669Y-80087549D01*
X110061244Y-80053250D01*
X110036879Y-80021483D01*
X110015251Y-79993140D01*
X109997036Y-79969114D01*
X109982911Y-79950299D01*
X109973552Y-79937586D01*
X109969635Y-79931870D01*
X109969559Y-79931666D01*
X109974392Y-79930817D01*
X109987911Y-79930085D01*
X110008638Y-79929506D01*
X110035099Y-79929118D01*
X110065819Y-79928958D01*
X110077509Y-79928963D01*
X110185459Y-79929165D01*
X110254039Y-80020100D01*
X110273923Y-80046335D01*
X110291769Y-80069629D01*
X110306676Y-80088828D01*
X110317741Y-80102773D01*
X110324063Y-80110310D01*
X110325159Y-80111314D01*
X110328870Y-80107565D01*
X110337882Y-80096901D01*
X110351286Y-80080448D01*
X110368168Y-80059331D01*
X110387619Y-80034674D01*
X110398819Y-80020350D01*
X110469939Y-79929107D01*
X110580855Y-79928934D01*
X110691772Y-79928761D01*
X110676804Y-79947811D01*
G36*
X113812629Y-79477548D02*
G01*
X113812971Y-79477879D01*
X113814556Y-79483018D01*
X113818555Y-79497379D01*
X113824805Y-79520358D01*
X113833147Y-79551347D01*
X113843419Y-79589741D01*
X113855459Y-79634934D01*
X113869108Y-79686321D01*
X113884204Y-79743296D01*
X113900585Y-79805252D01*
X113918092Y-79871583D01*
X113936563Y-79941685D01*
X113955837Y-80014951D01*
X113969386Y-80066521D01*
X114123300Y-80652661D01*
X114036897Y-80654054D01*
X114008240Y-80654293D01*
X113983188Y-80654077D01*
X113963478Y-80653456D01*
X113950847Y-80652480D01*
X113947036Y-80651514D01*
X113945190Y-80646040D01*
X113941023Y-80631560D01*
X113934758Y-80608907D01*
X113926616Y-80578912D01*
X113916822Y-80542406D01*
X113905597Y-80500221D01*
X113893164Y-80453187D01*
X113879746Y-80402137D01*
X113865566Y-80347902D01*
X113860592Y-80328811D01*
X113846231Y-80273811D01*
X113832572Y-80221817D01*
X113819835Y-80173646D01*
X113808240Y-80130115D01*
X113798007Y-80092044D01*
X113789358Y-80060248D01*
X113782511Y-80035547D01*
X113777687Y-80018758D01*
X113775106Y-80010699D01*
X113774772Y-80010092D01*
X113772401Y-80014667D01*
X113766425Y-80027892D01*
X113757155Y-80049041D01*
X113744900Y-80077389D01*
X113729970Y-80112210D01*
X113712676Y-80152779D01*
X113693328Y-80198369D01*
X113672235Y-80248256D01*
X113649708Y-80301713D01*
X113626057Y-80358015D01*
X113624816Y-80360975D01*
X113601088Y-80417472D01*
X113578448Y-80471212D01*
X113557208Y-80521464D01*
X113537682Y-80567496D01*
X113520182Y-80608575D01*
X113505020Y-80643971D01*
X113492509Y-80672950D01*
X113482961Y-80694783D01*
X113476690Y-80708736D01*
X113474008Y-80714078D01*
X113473977Y-80714104D01*
X113469987Y-80711301D01*
X113464049Y-80701587D01*
X113460784Y-80694691D01*
X113457260Y-80686450D01*
X113450137Y-80669657D01*
X113439759Y-80645124D01*
X113426469Y-80613661D01*
X113410609Y-80576082D01*
X113392521Y-80533197D01*
X113372549Y-80485821D01*
X113351035Y-80434763D01*
X113328322Y-80380836D01*
X113311904Y-80341843D01*
X113281183Y-80269098D01*
X113254220Y-80205734D01*
X113230993Y-80151700D01*
X113211479Y-80106949D01*
X113195656Y-80071428D01*
X113183503Y-80045090D01*
X113174997Y-80027883D01*
X113170116Y-80019759D01*
X113168899Y-80019263D01*
X113167013Y-80025605D01*
X113162829Y-80040907D01*
X113156578Y-80064288D01*
X113148492Y-80094868D01*
X113138801Y-80131767D01*
X113127737Y-80174103D01*
X113115530Y-80220998D01*
X113102413Y-80271570D01*
X113088617Y-80324939D01*
X113088601Y-80325001D01*
X113074738Y-80378656D01*
X113061511Y-80429740D01*
X113049156Y-80477341D01*
X113037913Y-80520547D01*
X113028020Y-80558447D01*
X113019713Y-80590131D01*
X113013231Y-80614686D01*
X113008811Y-80631201D01*
X113006716Y-80638691D01*
X113001531Y-80655201D01*
X112824325Y-80655201D01*
X112827206Y-80643771D01*
X112835964Y-80609306D01*
X112846489Y-80568365D01*
X112858592Y-80521666D01*
X112872078Y-80469925D01*
X112886758Y-80413862D01*
X112902440Y-80354194D01*
X112918931Y-80291638D01*
X112936041Y-80226913D01*
X112953577Y-80160736D01*
X112971348Y-80093825D01*
X112989162Y-80026899D01*
X113006828Y-79960674D01*
X113024154Y-79895869D01*
X113040948Y-79833202D01*
X113057019Y-79773390D01*
X113072176Y-79717151D01*
X113086225Y-79665203D01*
X113098977Y-79618264D01*
X113110238Y-79577051D01*
X113119818Y-79542283D01*
X113127525Y-79514678D01*
X113133168Y-79494953D01*
X113136554Y-79483825D01*
X113137483Y-79481538D01*
X113140085Y-79486480D01*
X113146290Y-79500114D01*
X113155805Y-79521751D01*
X113168334Y-79550702D01*
X113183585Y-79586276D01*
X113201262Y-79627783D01*
X113221072Y-79674533D01*
X113242721Y-79725838D01*
X113265914Y-79781006D01*
X113290358Y-79839348D01*
X113306922Y-79878991D01*
X113331970Y-79938874D01*
X113355934Y-79995912D01*
X113378522Y-80049427D01*
X113399445Y-80098745D01*
X113418412Y-80143188D01*
X113435134Y-80182081D01*
X113449319Y-80214749D01*
X113460678Y-80240514D01*
X113468920Y-80258701D01*
X113473756Y-80268634D01*
X113474947Y-80270333D01*
X113477355Y-80265163D01*
X113483377Y-80251337D01*
X113492709Y-80229571D01*
X113505047Y-80200583D01*
X113520089Y-80165091D01*
X113537529Y-80123812D01*
X113557066Y-80077465D01*
X113578395Y-80026766D01*
X113601214Y-79972433D01*
X113625217Y-79915184D01*
X113632297Y-79898281D01*
X113662693Y-79825697D01*
X113689407Y-79761920D01*
X113712680Y-79706385D01*
X113732757Y-79658527D01*
X113749879Y-79617782D01*
X113764289Y-79583586D01*
X113776231Y-79555372D01*
X113785945Y-79532578D01*
X113793676Y-79514638D01*
X113799666Y-79500987D01*
X113804157Y-79491062D01*
X113807393Y-79484297D01*
X113809615Y-79480128D01*
X113811067Y-79477990D01*
X113811990Y-79477318D01*
X113812629Y-79477548D01*
G37*
X113812629Y-79477548D02*
X113812971Y-79477879D01*
X113814556Y-79483018D01*
X113818555Y-79497379D01*
X113824805Y-79520358D01*
X113833147Y-79551347D01*
X113843419Y-79589741D01*
X113855459Y-79634934D01*
X113869108Y-79686321D01*
X113884204Y-79743296D01*
X113900585Y-79805252D01*
X113918092Y-79871583D01*
X113936563Y-79941685D01*
X113955837Y-80014951D01*
X113969386Y-80066521D01*
X114123300Y-80652661D01*
X114036897Y-80654054D01*
X114008240Y-80654293D01*
X113983188Y-80654077D01*
X113963478Y-80653456D01*
X113950847Y-80652480D01*
X113947036Y-80651514D01*
X113945190Y-80646040D01*
X113941023Y-80631560D01*
X113934758Y-80608907D01*
X113926616Y-80578912D01*
X113916822Y-80542406D01*
X113905597Y-80500221D01*
X113893164Y-80453187D01*
X113879746Y-80402137D01*
X113865566Y-80347902D01*
X113860592Y-80328811D01*
X113846231Y-80273811D01*
X113832572Y-80221817D01*
X113819835Y-80173646D01*
X113808240Y-80130115D01*
X113798007Y-80092044D01*
X113789358Y-80060248D01*
X113782511Y-80035547D01*
X113777687Y-80018758D01*
X113775106Y-80010699D01*
X113774772Y-80010092D01*
X113772401Y-80014667D01*
X113766425Y-80027892D01*
X113757155Y-80049041D01*
X113744900Y-80077389D01*
X113729970Y-80112210D01*
X113712676Y-80152779D01*
X113693328Y-80198369D01*
X113672235Y-80248256D01*
X113649708Y-80301713D01*
X113626057Y-80358015D01*
X113624816Y-80360975D01*
X113601088Y-80417472D01*
X113578448Y-80471212D01*
X113557208Y-80521464D01*
X113537682Y-80567496D01*
X113520182Y-80608575D01*
X113505020Y-80643971D01*
X113492509Y-80672950D01*
X113482961Y-80694783D01*
X113476690Y-80708736D01*
X113474008Y-80714078D01*
X113473977Y-80714104D01*
X113469987Y-80711301D01*
X113464049Y-80701587D01*
X113460784Y-80694691D01*
X113457260Y-80686450D01*
X113450137Y-80669657D01*
X113439759Y-80645124D01*
X113426469Y-80613661D01*
X113410609Y-80576082D01*
X113392521Y-80533197D01*
X113372549Y-80485821D01*
X113351035Y-80434763D01*
X113328322Y-80380836D01*
X113311904Y-80341843D01*
X113281183Y-80269098D01*
X113254220Y-80205734D01*
X113230993Y-80151700D01*
X113211479Y-80106949D01*
X113195656Y-80071428D01*
X113183503Y-80045090D01*
X113174997Y-80027883D01*
X113170116Y-80019759D01*
X113168899Y-80019263D01*
X113167013Y-80025605D01*
X113162829Y-80040907D01*
X113156578Y-80064288D01*
X113148492Y-80094868D01*
X113138801Y-80131767D01*
X113127737Y-80174103D01*
X113115530Y-80220998D01*
X113102413Y-80271570D01*
X113088617Y-80324939D01*
X113088601Y-80325001D01*
X113074738Y-80378656D01*
X113061511Y-80429740D01*
X113049156Y-80477341D01*
X113037913Y-80520547D01*
X113028020Y-80558447D01*
X113019713Y-80590131D01*
X113013231Y-80614686D01*
X113008811Y-80631201D01*
X113006716Y-80638691D01*
X113001531Y-80655201D01*
X112824325Y-80655201D01*
X112827206Y-80643771D01*
X112835964Y-80609306D01*
X112846489Y-80568365D01*
X112858592Y-80521666D01*
X112872078Y-80469925D01*
X112886758Y-80413862D01*
X112902440Y-80354194D01*
X112918931Y-80291638D01*
X112936041Y-80226913D01*
X112953577Y-80160736D01*
X112971348Y-80093825D01*
X112989162Y-80026899D01*
X113006828Y-79960674D01*
X113024154Y-79895869D01*
X113040948Y-79833202D01*
X113057019Y-79773390D01*
X113072176Y-79717151D01*
X113086225Y-79665203D01*
X113098977Y-79618264D01*
X113110238Y-79577051D01*
X113119818Y-79542283D01*
X113127525Y-79514678D01*
X113133168Y-79494953D01*
X113136554Y-79483825D01*
X113137483Y-79481538D01*
X113140085Y-79486480D01*
X113146290Y-79500114D01*
X113155805Y-79521751D01*
X113168334Y-79550702D01*
X113183585Y-79586276D01*
X113201262Y-79627783D01*
X113221072Y-79674533D01*
X113242721Y-79725838D01*
X113265914Y-79781006D01*
X113290358Y-79839348D01*
X113306922Y-79878991D01*
X113331970Y-79938874D01*
X113355934Y-79995912D01*
X113378522Y-80049427D01*
X113399445Y-80098745D01*
X113418412Y-80143188D01*
X113435134Y-80182081D01*
X113449319Y-80214749D01*
X113460678Y-80240514D01*
X113468920Y-80258701D01*
X113473756Y-80268634D01*
X113474947Y-80270333D01*
X113477355Y-80265163D01*
X113483377Y-80251337D01*
X113492709Y-80229571D01*
X113505047Y-80200583D01*
X113520089Y-80165091D01*
X113537529Y-80123812D01*
X113557066Y-80077465D01*
X113578395Y-80026766D01*
X113601214Y-79972433D01*
X113625217Y-79915184D01*
X113632297Y-79898281D01*
X113662693Y-79825697D01*
X113689407Y-79761920D01*
X113712680Y-79706385D01*
X113732757Y-79658527D01*
X113749879Y-79617782D01*
X113764289Y-79583586D01*
X113776231Y-79555372D01*
X113785945Y-79532578D01*
X113793676Y-79514638D01*
X113799666Y-79500987D01*
X113804157Y-79491062D01*
X113807393Y-79484297D01*
X113809615Y-79480128D01*
X113811067Y-79477990D01*
X113811990Y-79477318D01*
X113812629Y-79477548D01*
G36*
X109264717Y-79912627D02*
G01*
X109294949Y-79916953D01*
X109321927Y-79925276D01*
X109349004Y-79938588D01*
X109375166Y-79954946D01*
X109408147Y-79982464D01*
X109433824Y-80015209D01*
X109452064Y-80051766D01*
X109462736Y-80090722D01*
X109465709Y-80130664D01*
X109460851Y-80170176D01*
X109448029Y-80207846D01*
X109427114Y-80242260D01*
X109404190Y-80266740D01*
X109395724Y-80273851D01*
X109386214Y-80280869D01*
X109374624Y-80288350D01*
X109359918Y-80296851D01*
X109341059Y-80306927D01*
X109317011Y-80319135D01*
X109286736Y-80334031D01*
X109249199Y-80352170D01*
X109209378Y-80371236D01*
X109176190Y-80389484D01*
X109153118Y-80407741D01*
X109140118Y-80426095D01*
X109137146Y-80444633D01*
X109144158Y-80463441D01*
X109155603Y-80477440D01*
X109180533Y-80495602D01*
X109209539Y-80505375D01*
X109241108Y-80506856D01*
X109273727Y-80500141D01*
X109305884Y-80485327D01*
X109331992Y-80466203D01*
X109355870Y-80445184D01*
X109422684Y-80477704D01*
X109446691Y-80489479D01*
X109467508Y-80499861D01*
X109483383Y-80507962D01*
X109492569Y-80512898D01*
X109493988Y-80513796D01*
X109493879Y-80519718D01*
X109487729Y-80531126D01*
X109476768Y-80546407D01*
X109462225Y-80563951D01*
X109445329Y-80582145D01*
X109431884Y-80595220D01*
X109389899Y-80627695D01*
X109343597Y-80652001D01*
X109294414Y-80667741D01*
X109243791Y-80674518D01*
X109193164Y-80671933D01*
X109170195Y-80667474D01*
X109127729Y-80652669D01*
X109087068Y-80629998D01*
X109050287Y-80601089D01*
X109019463Y-80567567D01*
X108997093Y-80531920D01*
X108982595Y-80492452D01*
X108975884Y-80450801D01*
X108977481Y-80410376D01*
X108978062Y-80406848D01*
X108988263Y-80368970D01*
X109005251Y-80334509D01*
X109029623Y-80302892D01*
X109061976Y-80273544D01*
X109102908Y-80245891D01*
X109153016Y-80219358D01*
X109190485Y-80202569D01*
X109228111Y-80185772D01*
X109256751Y-80170808D01*
X109277266Y-80157022D01*
X109290521Y-80143756D01*
X109297377Y-80130356D01*
X109298837Y-80120197D01*
X109295875Y-80101799D01*
X109286020Y-80088689D01*
X109268535Y-80080415D01*
X109242686Y-80076524D01*
X109226957Y-80076081D01*
X109204869Y-80077454D01*
X109184431Y-80082250D01*
X109162883Y-80091477D01*
X109137465Y-80106147D01*
X109127592Y-80112462D01*
X109095885Y-80133098D01*
X109044567Y-80088079D01*
X109024621Y-80070650D01*
X109006621Y-80055048D01*
X108992360Y-80042817D01*
X108983629Y-80035503D01*
X108982838Y-80034871D01*
X108978075Y-80030560D01*
X108977128Y-80026431D01*
X108981085Y-80020808D01*
X108991034Y-80012014D01*
X109004902Y-80000883D01*
X109040673Y-79974980D01*
X109079563Y-79951102D01*
X109117844Y-79931425D01*
X109139393Y-79922380D01*
X109155291Y-79917120D01*
X109171207Y-79913769D01*
X109190100Y-79911958D01*
X109214927Y-79911314D01*
X109227879Y-79911304D01*
X109264717Y-79912627D01*
G37*
X109264717Y-79912627D02*
X109294949Y-79916953D01*
X109321927Y-79925276D01*
X109349004Y-79938588D01*
X109375166Y-79954946D01*
X109408147Y-79982464D01*
X109433824Y-80015209D01*
X109452064Y-80051766D01*
X109462736Y-80090722D01*
X109465709Y-80130664D01*
X109460851Y-80170176D01*
X109448029Y-80207846D01*
X109427114Y-80242260D01*
X109404190Y-80266740D01*
X109395724Y-80273851D01*
X109386214Y-80280869D01*
X109374624Y-80288350D01*
X109359918Y-80296851D01*
X109341059Y-80306927D01*
X109317011Y-80319135D01*
X109286736Y-80334031D01*
X109249199Y-80352170D01*
X109209378Y-80371236D01*
X109176190Y-80389484D01*
X109153118Y-80407741D01*
X109140118Y-80426095D01*
X109137146Y-80444633D01*
X109144158Y-80463441D01*
X109155603Y-80477440D01*
X109180533Y-80495602D01*
X109209539Y-80505375D01*
X109241108Y-80506856D01*
X109273727Y-80500141D01*
X109305884Y-80485327D01*
X109331992Y-80466203D01*
X109355870Y-80445184D01*
X109422684Y-80477704D01*
X109446691Y-80489479D01*
X109467508Y-80499861D01*
X109483383Y-80507962D01*
X109492569Y-80512898D01*
X109493988Y-80513796D01*
X109493879Y-80519718D01*
X109487729Y-80531126D01*
X109476768Y-80546407D01*
X109462225Y-80563951D01*
X109445329Y-80582145D01*
X109431884Y-80595220D01*
X109389899Y-80627695D01*
X109343597Y-80652001D01*
X109294414Y-80667741D01*
X109243791Y-80674518D01*
X109193164Y-80671933D01*
X109170195Y-80667474D01*
X109127729Y-80652669D01*
X109087068Y-80629998D01*
X109050287Y-80601089D01*
X109019463Y-80567567D01*
X108997093Y-80531920D01*
X108982595Y-80492452D01*
X108975884Y-80450801D01*
X108977481Y-80410376D01*
X108978062Y-80406848D01*
X108988263Y-80368970D01*
X109005251Y-80334509D01*
X109029623Y-80302892D01*
X109061976Y-80273544D01*
X109102908Y-80245891D01*
X109153016Y-80219358D01*
X109190485Y-80202569D01*
X109228111Y-80185772D01*
X109256751Y-80170808D01*
X109277266Y-80157022D01*
X109290521Y-80143756D01*
X109297377Y-80130356D01*
X109298837Y-80120197D01*
X109295875Y-80101799D01*
X109286020Y-80088689D01*
X109268535Y-80080415D01*
X109242686Y-80076524D01*
X109226957Y-80076081D01*
X109204869Y-80077454D01*
X109184431Y-80082250D01*
X109162883Y-80091477D01*
X109137465Y-80106147D01*
X109127592Y-80112462D01*
X109095885Y-80133098D01*
X109044567Y-80088079D01*
X109024621Y-80070650D01*
X109006621Y-80055048D01*
X108992360Y-80042817D01*
X108983629Y-80035503D01*
X108982838Y-80034871D01*
X108978075Y-80030560D01*
X108977128Y-80026431D01*
X108981085Y-80020808D01*
X108991034Y-80012014D01*
X109004902Y-80000883D01*
X109040673Y-79974980D01*
X109079563Y-79951102D01*
X109117844Y-79931425D01*
X109139393Y-79922380D01*
X109155291Y-79917120D01*
X109171207Y-79913769D01*
X109190100Y-79911958D01*
X109214927Y-79911314D01*
X109227879Y-79911304D01*
X109264717Y-79912627D01*
G36*
X110798718Y-80124691D02*
G01*
X110824165Y-80080022D01*
X110856892Y-80038019D01*
X110873799Y-80019944D01*
X110918920Y-79979851D01*
X110966624Y-79949230D01*
X111017989Y-79927603D01*
X111074092Y-79914495D01*
X111122719Y-79909839D01*
X111152516Y-79908998D01*
X111176120Y-79909655D01*
X111197427Y-79912120D01*
X111220332Y-79916702D01*
X111226161Y-79918071D01*
X111283195Y-79936813D01*
X111336252Y-79964344D01*
X111384414Y-79999764D01*
X111426759Y-80042174D01*
X111462368Y-80090673D01*
X111490321Y-80144361D01*
X111507285Y-80193081D01*
X111513154Y-80223952D01*
X111516239Y-80261232D01*
X111516585Y-80301573D01*
X111514238Y-80341624D01*
X111509242Y-80378038D01*
X111504522Y-80398432D01*
X111483056Y-80456060D01*
X111453270Y-80508725D01*
X111415981Y-80555620D01*
X111372003Y-80595937D01*
X111322153Y-80628870D01*
X111267246Y-80653614D01*
X111237019Y-80662962D01*
X111208273Y-80668427D01*
X111173165Y-80671926D01*
X111135322Y-80673357D01*
X111098368Y-80672616D01*
X111065930Y-80669599D01*
X111056949Y-80668108D01*
X111000249Y-80653066D01*
X110945841Y-80630422D01*
X110895433Y-80601214D01*
X110850735Y-80566481D01*
X110813455Y-80527262D01*
X110803454Y-80514050D01*
X110792213Y-80498264D01*
X110852056Y-80453225D01*
X110873703Y-80436999D01*
X110892790Y-80422816D01*
X110907691Y-80411874D01*
X110916782Y-80405372D01*
X110918455Y-80404266D01*
X110925722Y-80405790D01*
X110938796Y-80415468D01*
X110957550Y-80433206D01*
X110957808Y-80433466D01*
X110994956Y-80465277D01*
X111034552Y-80487701D01*
X111077980Y-80501454D01*
X111094578Y-80504386D01*
X111140653Y-80506632D01*
X111185199Y-80500449D01*
X111226822Y-80486501D01*
X111264129Y-80465450D01*
X111295726Y-80437959D01*
X111320220Y-80404691D01*
X111325573Y-80394519D01*
X111333924Y-80376217D01*
X111340663Y-80359561D01*
X111344059Y-80349131D01*
X111347340Y-80335161D01*
X110755757Y-80335161D01*
X110759280Y-80290711D01*
X110766953Y-80228433D01*
X110777612Y-80183217D01*
X110960159Y-80183217D01*
X110965086Y-80184365D01*
X110979257Y-80185388D01*
X111001756Y-80186264D01*
X111031669Y-80186970D01*
X111068079Y-80187481D01*
X111110071Y-80187776D01*
X111143169Y-80187841D01*
X111326179Y-80187841D01*
X111318588Y-80173161D01*
X111306756Y-80155976D01*
X111289023Y-80136773D01*
X111268407Y-80118395D01*
X111247929Y-80103686D01*
X111240189Y-80099334D01*
X111199186Y-80083940D01*
X111155756Y-80077076D01*
X111111970Y-80078645D01*
X111069900Y-80088549D01*
X111031617Y-80106693D01*
X111027631Y-80109250D01*
X111013528Y-80120118D01*
X110998022Y-80134452D01*
X110983033Y-80150146D01*
X110970481Y-80165094D01*
X110962289Y-80177191D01*
X110960159Y-80183217D01*
X110777612Y-80183217D01*
X110779873Y-80173627D01*
X110798718Y-80124691D01*
G37*
X110798718Y-80124691D02*
X110824165Y-80080022D01*
X110856892Y-80038019D01*
X110873799Y-80019944D01*
X110918920Y-79979851D01*
X110966624Y-79949230D01*
X111017989Y-79927603D01*
X111074092Y-79914495D01*
X111122719Y-79909839D01*
X111152516Y-79908998D01*
X111176120Y-79909655D01*
X111197427Y-79912120D01*
X111220332Y-79916702D01*
X111226161Y-79918071D01*
X111283195Y-79936813D01*
X111336252Y-79964344D01*
X111384414Y-79999764D01*
X111426759Y-80042174D01*
X111462368Y-80090673D01*
X111490321Y-80144361D01*
X111507285Y-80193081D01*
X111513154Y-80223952D01*
X111516239Y-80261232D01*
X111516585Y-80301573D01*
X111514238Y-80341624D01*
X111509242Y-80378038D01*
X111504522Y-80398432D01*
X111483056Y-80456060D01*
X111453270Y-80508725D01*
X111415981Y-80555620D01*
X111372003Y-80595937D01*
X111322153Y-80628870D01*
X111267246Y-80653614D01*
X111237019Y-80662962D01*
X111208273Y-80668427D01*
X111173165Y-80671926D01*
X111135322Y-80673357D01*
X111098368Y-80672616D01*
X111065930Y-80669599D01*
X111056949Y-80668108D01*
X111000249Y-80653066D01*
X110945841Y-80630422D01*
X110895433Y-80601214D01*
X110850735Y-80566481D01*
X110813455Y-80527262D01*
X110803454Y-80514050D01*
X110792213Y-80498264D01*
X110852056Y-80453225D01*
X110873703Y-80436999D01*
X110892790Y-80422816D01*
X110907691Y-80411874D01*
X110916782Y-80405372D01*
X110918455Y-80404266D01*
X110925722Y-80405790D01*
X110938796Y-80415468D01*
X110957550Y-80433206D01*
X110957808Y-80433466D01*
X110994956Y-80465277D01*
X111034552Y-80487701D01*
X111077980Y-80501454D01*
X111094578Y-80504386D01*
X111140653Y-80506632D01*
X111185199Y-80500449D01*
X111226822Y-80486501D01*
X111264129Y-80465450D01*
X111295726Y-80437959D01*
X111320220Y-80404691D01*
X111325573Y-80394519D01*
X111333924Y-80376217D01*
X111340663Y-80359561D01*
X111344059Y-80349131D01*
X111347340Y-80335161D01*
X110755757Y-80335161D01*
X110759280Y-80290711D01*
X110766953Y-80228433D01*
X110777612Y-80183217D01*
X110960159Y-80183217D01*
X110965086Y-80184365D01*
X110979257Y-80185388D01*
X111001756Y-80186264D01*
X111031669Y-80186970D01*
X111068079Y-80187481D01*
X111110071Y-80187776D01*
X111143169Y-80187841D01*
X111326179Y-80187841D01*
X111318588Y-80173161D01*
X111306756Y-80155976D01*
X111289023Y-80136773D01*
X111268407Y-80118395D01*
X111247929Y-80103686D01*
X111240189Y-80099334D01*
X111199186Y-80083940D01*
X111155756Y-80077076D01*
X111111970Y-80078645D01*
X111069900Y-80088549D01*
X111031617Y-80106693D01*
X111027631Y-80109250D01*
X111013528Y-80120118D01*
X110998022Y-80134452D01*
X110983033Y-80150146D01*
X110970481Y-80165094D01*
X110962289Y-80177191D01*
X110960159Y-80183217D01*
X110777612Y-80183217D01*
X110779873Y-80173627D01*
X110798718Y-80124691D01*
G36*
X112057060Y-80092022D02*
G01*
X112091306Y-80043713D01*
X112132514Y-80001230D01*
X112180120Y-79965435D01*
X112233559Y-79937191D01*
X112263179Y-79925870D01*
X112305701Y-79915287D01*
X112353315Y-79909636D01*
X112402113Y-79909125D01*
X112448190Y-79913965D01*
X112456219Y-79915487D01*
X112510218Y-79931463D01*
X112562534Y-79956339D01*
X112611140Y-79988860D01*
X112654009Y-80027772D01*
X112673077Y-80049756D01*
X112706933Y-80098076D01*
X112731524Y-80146871D01*
X112747626Y-80198166D01*
X112756015Y-80253990D01*
X112757010Y-80269121D01*
X112755928Y-80333404D01*
X112745817Y-80393176D01*
X112726489Y-80448938D01*
X112697753Y-80501190D01*
X112659419Y-80550435D01*
X112644068Y-80566679D01*
X112622189Y-80587854D01*
X112603038Y-80603693D01*
X112583024Y-80616816D01*
X112558555Y-80629842D01*
X112555168Y-80631514D01*
X112531120Y-80642607D01*
X112506543Y-80652769D01*
X112485202Y-80660490D01*
X112476539Y-80663064D01*
X112447063Y-80668592D01*
X112411274Y-80672062D01*
X112372826Y-80673376D01*
X112335373Y-80672437D01*
X112302572Y-80669146D01*
X112295358Y-80667913D01*
X112232184Y-80650926D01*
X112173283Y-80624873D01*
X112151264Y-80612089D01*
X112127403Y-80595362D01*
X112101537Y-80574211D01*
X112076474Y-80551185D01*
X112055018Y-80528834D01*
X112042242Y-80513022D01*
X112032028Y-80498677D01*
X112091723Y-80453385D01*
X112113327Y-80437067D01*
X112132396Y-80422801D01*
X112147304Y-80411792D01*
X112156427Y-80405245D01*
X112158120Y-80404129D01*
X112165266Y-80405518D01*
X112178347Y-80414739D01*
X112197492Y-80431885D01*
X112202094Y-80436306D01*
X112234549Y-80464375D01*
X112266448Y-80484261D01*
X112300556Y-80497381D01*
X112335104Y-80504531D01*
X112382847Y-80506816D01*
X112428402Y-80500093D01*
X112470603Y-80484936D01*
X112508287Y-80461916D01*
X112540289Y-80431607D01*
X112565446Y-80394581D01*
X112567768Y-80390077D01*
X112573895Y-80378525D01*
X112579347Y-80368700D01*
X112583433Y-80360464D01*
X112585462Y-80353678D01*
X112584744Y-80348204D01*
X112580586Y-80343903D01*
X112572298Y-80340637D01*
X112559189Y-80338267D01*
X112540568Y-80336656D01*
X112515743Y-80335664D01*
X112484025Y-80335154D01*
X112444722Y-80334986D01*
X112397142Y-80335022D01*
X112340596Y-80335124D01*
X112293659Y-80335161D01*
X112231749Y-80335146D01*
X112179230Y-80335087D01*
X112135331Y-80334960D01*
X112099282Y-80334742D01*
X112070312Y-80334410D01*
X112047652Y-80333939D01*
X112030532Y-80333307D01*
X112018181Y-80332490D01*
X112009831Y-80331465D01*
X112004709Y-80330209D01*
X112002047Y-80328697D01*
X112001075Y-80326907D01*
X112000995Y-80326271D01*
X112001744Y-80263281D01*
X112011715Y-80202668D01*
X112017616Y-80184492D01*
X112199679Y-80184492D01*
X112204570Y-80185260D01*
X112218487Y-80185967D01*
X112240297Y-80186590D01*
X112268867Y-80187110D01*
X112303063Y-80187506D01*
X112341751Y-80187756D01*
X112382559Y-80187841D01*
X112424525Y-80187757D01*
X112463100Y-80187519D01*
X112497151Y-80187145D01*
X112525543Y-80186657D01*
X112547143Y-80186071D01*
X112560818Y-80185409D01*
X112565439Y-80184711D01*
X112562244Y-80177612D01*
X112553993Y-80165664D01*
X112542685Y-80151330D01*
X112530318Y-80137071D01*
X112518894Y-80125351D01*
X112513391Y-80120614D01*
X112475289Y-80097383D01*
X112434405Y-80082744D01*
X112392186Y-80076535D01*
X112350080Y-80078590D01*
X112309533Y-80088745D01*
X112271993Y-80106836D01*
X112238908Y-80132698D01*
X112220250Y-80153897D01*
X112209845Y-80168141D01*
X112202447Y-80179153D01*
X112199679Y-80184492D01*
X112017616Y-80184492D01*
X112030342Y-80145294D01*
X112057060Y-80092022D01*
G37*
X112057060Y-80092022D02*
X112091306Y-80043713D01*
X112132514Y-80001230D01*
X112180120Y-79965435D01*
X112233559Y-79937191D01*
X112263179Y-79925870D01*
X112305701Y-79915287D01*
X112353315Y-79909636D01*
X112402113Y-79909125D01*
X112448190Y-79913965D01*
X112456219Y-79915487D01*
X112510218Y-79931463D01*
X112562534Y-79956339D01*
X112611140Y-79988860D01*
X112654009Y-80027772D01*
X112673077Y-80049756D01*
X112706933Y-80098076D01*
X112731524Y-80146871D01*
X112747626Y-80198166D01*
X112756015Y-80253990D01*
X112757010Y-80269121D01*
X112755928Y-80333404D01*
X112745817Y-80393176D01*
X112726489Y-80448938D01*
X112697753Y-80501190D01*
X112659419Y-80550435D01*
X112644068Y-80566679D01*
X112622189Y-80587854D01*
X112603038Y-80603693D01*
X112583024Y-80616816D01*
X112558555Y-80629842D01*
X112555168Y-80631514D01*
X112531120Y-80642607D01*
X112506543Y-80652769D01*
X112485202Y-80660490D01*
X112476539Y-80663064D01*
X112447063Y-80668592D01*
X112411274Y-80672062D01*
X112372826Y-80673376D01*
X112335373Y-80672437D01*
X112302572Y-80669146D01*
X112295358Y-80667913D01*
X112232184Y-80650926D01*
X112173283Y-80624873D01*
X112151264Y-80612089D01*
X112127403Y-80595362D01*
X112101537Y-80574211D01*
X112076474Y-80551185D01*
X112055018Y-80528834D01*
X112042242Y-80513022D01*
X112032028Y-80498677D01*
X112091723Y-80453385D01*
X112113327Y-80437067D01*
X112132396Y-80422801D01*
X112147304Y-80411792D01*
X112156427Y-80405245D01*
X112158120Y-80404129D01*
X112165266Y-80405518D01*
X112178347Y-80414739D01*
X112197492Y-80431885D01*
X112202094Y-80436306D01*
X112234549Y-80464375D01*
X112266448Y-80484261D01*
X112300556Y-80497381D01*
X112335104Y-80504531D01*
X112382847Y-80506816D01*
X112428402Y-80500093D01*
X112470603Y-80484936D01*
X112508287Y-80461916D01*
X112540289Y-80431607D01*
X112565446Y-80394581D01*
X112567768Y-80390077D01*
X112573895Y-80378525D01*
X112579347Y-80368700D01*
X112583433Y-80360464D01*
X112585462Y-80353678D01*
X112584744Y-80348204D01*
X112580586Y-80343903D01*
X112572298Y-80340637D01*
X112559189Y-80338267D01*
X112540568Y-80336656D01*
X112515743Y-80335664D01*
X112484025Y-80335154D01*
X112444722Y-80334986D01*
X112397142Y-80335022D01*
X112340596Y-80335124D01*
X112293659Y-80335161D01*
X112231749Y-80335146D01*
X112179230Y-80335087D01*
X112135331Y-80334960D01*
X112099282Y-80334742D01*
X112070312Y-80334410D01*
X112047652Y-80333939D01*
X112030532Y-80333307D01*
X112018181Y-80332490D01*
X112009831Y-80331465D01*
X112004709Y-80330209D01*
X112002047Y-80328697D01*
X112001075Y-80326907D01*
X112000995Y-80326271D01*
X112001744Y-80263281D01*
X112011715Y-80202668D01*
X112017616Y-80184492D01*
X112199679Y-80184492D01*
X112204570Y-80185260D01*
X112218487Y-80185967D01*
X112240297Y-80186590D01*
X112268867Y-80187110D01*
X112303063Y-80187506D01*
X112341751Y-80187756D01*
X112382559Y-80187841D01*
X112424525Y-80187757D01*
X112463100Y-80187519D01*
X112497151Y-80187145D01*
X112525543Y-80186657D01*
X112547143Y-80186071D01*
X112560818Y-80185409D01*
X112565439Y-80184711D01*
X112562244Y-80177612D01*
X112553993Y-80165664D01*
X112542685Y-80151330D01*
X112530318Y-80137071D01*
X112518894Y-80125351D01*
X112513391Y-80120614D01*
X112475289Y-80097383D01*
X112434405Y-80082744D01*
X112392186Y-80076535D01*
X112350080Y-80078590D01*
X112309533Y-80088745D01*
X112271993Y-80106836D01*
X112238908Y-80132698D01*
X112220250Y-80153897D01*
X112209845Y-80168141D01*
X112202447Y-80179153D01*
X112199679Y-80184492D01*
X112017616Y-80184492D01*
X112030342Y-80145294D01*
X112057060Y-80092022D01*
G36*
X109801919Y-80655201D02*
G01*
X109619039Y-80655201D01*
X109619039Y-79928761D01*
X109801919Y-79928761D01*
X109801919Y-80655201D01*
G37*
X109801919Y-80655201D02*
X109619039Y-80655201D01*
X109619039Y-79928761D01*
X109801919Y-79928761D01*
X109801919Y-80655201D01*
D11*
X111949999Y-67374001D03*
X111449999Y-67374001D03*
X110949999Y-67374001D03*
X110449999Y-67374001D03*
X109949999Y-67374001D03*
D12*
X110949999Y-65824001D03*
D13*
X111368499Y-72959001D03*
X112092999Y-76007001D03*
X110478999Y-68895001D03*
X110478999Y-70038001D03*
X110695999Y-73975001D03*
D14*
X111449999Y-68204300D02*
X111449999Y-67374001D01*
X111653999Y-68408300D02*
X111449999Y-68204300D01*
X111368499Y-72959001D02*
X111653999Y-72673501D01*
X111653999Y-72673501D02*
X111653999Y-68408300D01*
X111965999Y-68083904D02*
X111965999Y-67390001D01*
X112182999Y-68300904D02*
X111965999Y-68083904D01*
X112182999Y-75917001D02*
X112182999Y-68300904D01*
X111965999Y-67390001D02*
X111949999Y-67374001D01*
X112092999Y-76007001D02*
X112182999Y-75917001D01*
X110478999Y-68895001D02*
X110449999Y-68866001D01*
X110449999Y-68866001D02*
X110449999Y-67374001D01*
X110949999Y-68340696D02*
X110949999Y-67374001D01*
X111203999Y-69313001D02*
X111203999Y-68594696D01*
X110478999Y-70038001D02*
X111203999Y-69313001D01*
X110949999Y-67374001D02*
X110949999Y-65824001D01*
X111203999Y-68594696D02*
X110949999Y-68340696D01*
X109754499Y-73033501D02*
X110695999Y-73975001D01*
X109949999Y-68117001D02*
X109754499Y-68312501D01*
X109754499Y-68312501D02*
X109754499Y-73033501D01*
X109949999Y-67374001D02*
X109949999Y-68117001D01*
M02*
