G04 #@! TF.GenerationSoftware,KiCad,Pcbnew,(6.0.7)*
G04 #@! TF.CreationDate,2022-08-12T15:38:03-07:00*
G04 #@! TF.ProjectId,mlx90632-breakout,6d6c7839-3036-4333-922d-627265616b6f,rev?*
G04 #@! TF.SameCoordinates,Original*
G04 #@! TF.FileFunction,Legend,Top*
G04 #@! TF.FilePolarity,Positive*
%FSLAX46Y46*%
G04 Gerber Fmt 4.6, Leading zero omitted, Abs format (unit mm)*
G04 Created by KiCad (PCBNEW (6.0.7)) date 2022-08-12 15:38:03*
%MOMM*%
%LPD*%
G01*
G04 APERTURE LIST*
%ADD10C,0.050000*%
%ADD11C,0.100000*%
%ADD12C,0.075000*%
%ADD13C,0.120000*%
%ADD14C,0.203200*%
G04 APERTURE END LIST*
D10*
X109798284Y-66959715D02*
X109783999Y-66945429D01*
X109769713Y-66916858D01*
X109769713Y-66845429D01*
X109783999Y-66816858D01*
X109798284Y-66802572D01*
X109826856Y-66788286D01*
X109855427Y-66788286D01*
X109898284Y-66802572D01*
X110069713Y-66974001D01*
X110069713Y-66788286D01*
X109769713Y-66602572D02*
X109769713Y-66574001D01*
X109783999Y-66545429D01*
X109798284Y-66531143D01*
X109826856Y-66516858D01*
X109883999Y-66502572D01*
X109955427Y-66502572D01*
X110012570Y-66516858D01*
X110041141Y-66531143D01*
X110055427Y-66545429D01*
X110069713Y-66574001D01*
X110069713Y-66602572D01*
X110055427Y-66631143D01*
X110041141Y-66645429D01*
X110012570Y-66659715D01*
X109955427Y-66674001D01*
X109883999Y-66674001D01*
X109826856Y-66659715D01*
X109798284Y-66645429D01*
X109783999Y-66631143D01*
X109769713Y-66602572D01*
X109798284Y-66388286D02*
X109783999Y-66374001D01*
X109769713Y-66345429D01*
X109769713Y-66274001D01*
X109783999Y-66245429D01*
X109798284Y-66231143D01*
X109826856Y-66216858D01*
X109855427Y-66216858D01*
X109898284Y-66231143D01*
X110069713Y-66402572D01*
X110069713Y-66216858D01*
X109798284Y-66102572D02*
X109783999Y-66088286D01*
X109769713Y-66059715D01*
X109769713Y-65988286D01*
X109783999Y-65959715D01*
X109798284Y-65945429D01*
X109826856Y-65931143D01*
X109855427Y-65931143D01*
X109898284Y-65945429D01*
X110069713Y-66116858D01*
X110069713Y-65931143D01*
X109955427Y-65802572D02*
X109955427Y-65574001D01*
X109769713Y-65374001D02*
X109769713Y-65345429D01*
X109783999Y-65316858D01*
X109798284Y-65302572D01*
X109826856Y-65288286D01*
X109883999Y-65274001D01*
X109955427Y-65274001D01*
X110012570Y-65288286D01*
X110041141Y-65302572D01*
X110055427Y-65316858D01*
X110069713Y-65345429D01*
X110069713Y-65374001D01*
X110055427Y-65402572D01*
X110041141Y-65416858D01*
X110012570Y-65431143D01*
X109955427Y-65445429D01*
X109883999Y-65445429D01*
X109826856Y-65431143D01*
X109798284Y-65416858D01*
X109783999Y-65402572D01*
X109769713Y-65374001D01*
X109898284Y-65102572D02*
X109883999Y-65131143D01*
X109869713Y-65145429D01*
X109841141Y-65159715D01*
X109826856Y-65159715D01*
X109798284Y-65145429D01*
X109783999Y-65131143D01*
X109769713Y-65102572D01*
X109769713Y-65045429D01*
X109783999Y-65016858D01*
X109798284Y-65002572D01*
X109826856Y-64988286D01*
X109841141Y-64988286D01*
X109869713Y-65002572D01*
X109883999Y-65016858D01*
X109898284Y-65045429D01*
X109898284Y-65102572D01*
X109912570Y-65131143D01*
X109926856Y-65145429D01*
X109955427Y-65159715D01*
X110012570Y-65159715D01*
X110041141Y-65145429D01*
X110055427Y-65131143D01*
X110069713Y-65102572D01*
X110069713Y-65045429D01*
X110055427Y-65016858D01*
X110041141Y-65002572D01*
X110012570Y-64988286D01*
X109955427Y-64988286D01*
X109926856Y-65002572D01*
X109912570Y-65016858D01*
X109898284Y-65045429D01*
D11*
X112019951Y-70685334D02*
X111753284Y-70685334D01*
X111791379Y-70685334D02*
X111772332Y-70666286D01*
X111753284Y-70628191D01*
X111753284Y-70571048D01*
X111772332Y-70532953D01*
X111810427Y-70513905D01*
X112019951Y-70513905D01*
X111810427Y-70513905D02*
X111772332Y-70494858D01*
X111753284Y-70456762D01*
X111753284Y-70399620D01*
X111772332Y-70361524D01*
X111810427Y-70342477D01*
X112019951Y-70342477D01*
X112019951Y-70094858D02*
X112000903Y-70132953D01*
X111962808Y-70152001D01*
X111619951Y-70152001D01*
X112019951Y-69980572D02*
X111753284Y-69771048D01*
X111753284Y-69980572D02*
X112019951Y-69771048D01*
X112019951Y-69599620D02*
X112019951Y-69523429D01*
X112000903Y-69485334D01*
X111981856Y-69466286D01*
X111924713Y-69428191D01*
X111848522Y-69409143D01*
X111696141Y-69409143D01*
X111658046Y-69428191D01*
X111638999Y-69447239D01*
X111619951Y-69485334D01*
X111619951Y-69561524D01*
X111638999Y-69599620D01*
X111658046Y-69618667D01*
X111696141Y-69637715D01*
X111791379Y-69637715D01*
X111829475Y-69618667D01*
X111848522Y-69599620D01*
X111867570Y-69561524D01*
X111867570Y-69485334D01*
X111848522Y-69447239D01*
X111829475Y-69428191D01*
X111791379Y-69409143D01*
X111619951Y-69161524D02*
X111619951Y-69123429D01*
X111638999Y-69085334D01*
X111658046Y-69066286D01*
X111696141Y-69047239D01*
X111772332Y-69028191D01*
X111867570Y-69028191D01*
X111943760Y-69047239D01*
X111981856Y-69066286D01*
X112000903Y-69085334D01*
X112019951Y-69123429D01*
X112019951Y-69161524D01*
X112000903Y-69199620D01*
X111981856Y-69218667D01*
X111943760Y-69237715D01*
X111867570Y-69256762D01*
X111772332Y-69256762D01*
X111696141Y-69237715D01*
X111658046Y-69218667D01*
X111638999Y-69199620D01*
X111619951Y-69161524D01*
X111619951Y-68685334D02*
X111619951Y-68761524D01*
X111638999Y-68799620D01*
X111658046Y-68818667D01*
X111715189Y-68856762D01*
X111791379Y-68875810D01*
X111943760Y-68875810D01*
X111981856Y-68856762D01*
X112000903Y-68837715D01*
X112019951Y-68799620D01*
X112019951Y-68723429D01*
X112000903Y-68685334D01*
X111981856Y-68666286D01*
X111943760Y-68647239D01*
X111848522Y-68647239D01*
X111810427Y-68666286D01*
X111791379Y-68685334D01*
X111772332Y-68723429D01*
X111772332Y-68799620D01*
X111791379Y-68837715D01*
X111810427Y-68856762D01*
X111848522Y-68875810D01*
X111619951Y-68513905D02*
X111619951Y-68266286D01*
X111772332Y-68399620D01*
X111772332Y-68342477D01*
X111791379Y-68304381D01*
X111810427Y-68285334D01*
X111848522Y-68266286D01*
X111943760Y-68266286D01*
X111981856Y-68285334D01*
X112000903Y-68304381D01*
X112019951Y-68342477D01*
X112019951Y-68456762D01*
X112000903Y-68494858D01*
X111981856Y-68513905D01*
X111658046Y-68113905D02*
X111638999Y-68094858D01*
X111619951Y-68056762D01*
X111619951Y-67961524D01*
X111638999Y-67923429D01*
X111658046Y-67904381D01*
X111696141Y-67885334D01*
X111734237Y-67885334D01*
X111791379Y-67904381D01*
X112019951Y-68132953D01*
X112019951Y-67885334D01*
X111867570Y-67713905D02*
X111867570Y-67409143D01*
X112019951Y-67218667D02*
X111619951Y-67218667D01*
X111772332Y-67218667D02*
X111753284Y-67180572D01*
X111753284Y-67104381D01*
X111772332Y-67066286D01*
X111791379Y-67047239D01*
X111829475Y-67028191D01*
X111943760Y-67028191D01*
X111981856Y-67047239D01*
X112000903Y-67066286D01*
X112019951Y-67104381D01*
X112019951Y-67180572D01*
X112000903Y-67218667D01*
X112019951Y-66856762D02*
X111753284Y-66856762D01*
X111829475Y-66856762D02*
X111791379Y-66837715D01*
X111772332Y-66818667D01*
X111753284Y-66780572D01*
X111753284Y-66742477D01*
X112000903Y-66456762D02*
X112019951Y-66494858D01*
X112019951Y-66571048D01*
X112000903Y-66609143D01*
X111962808Y-66628191D01*
X111810427Y-66628191D01*
X111772332Y-66609143D01*
X111753284Y-66571048D01*
X111753284Y-66494858D01*
X111772332Y-66456762D01*
X111810427Y-66437715D01*
X111848522Y-66437715D01*
X111886618Y-66628191D01*
X112019951Y-66094858D02*
X111810427Y-66094858D01*
X111772332Y-66113905D01*
X111753284Y-66152001D01*
X111753284Y-66228191D01*
X111772332Y-66266286D01*
X112000903Y-66094858D02*
X112019951Y-66132953D01*
X112019951Y-66228191D01*
X112000903Y-66266286D01*
X111962808Y-66285334D01*
X111924713Y-66285334D01*
X111886618Y-66266286D01*
X111867570Y-66228191D01*
X111867570Y-66132953D01*
X111848522Y-66094858D01*
X112019951Y-65904381D02*
X111619951Y-65904381D01*
X111867570Y-65866286D02*
X112019951Y-65752001D01*
X111753284Y-65752001D02*
X111905665Y-65904381D01*
X112019951Y-65523429D02*
X112000903Y-65561524D01*
X111981856Y-65580572D01*
X111943760Y-65599620D01*
X111829475Y-65599620D01*
X111791379Y-65580572D01*
X111772332Y-65561524D01*
X111753284Y-65523429D01*
X111753284Y-65466286D01*
X111772332Y-65428191D01*
X111791379Y-65409143D01*
X111829475Y-65390096D01*
X111943760Y-65390096D01*
X111981856Y-65409143D01*
X112000903Y-65428191D01*
X112019951Y-65466286D01*
X112019951Y-65523429D01*
X111753284Y-65047239D02*
X112019951Y-65047239D01*
X111753284Y-65218667D02*
X111962808Y-65218667D01*
X112000903Y-65199620D01*
X112019951Y-65161524D01*
X112019951Y-65104381D01*
X112000903Y-65066286D01*
X111981856Y-65047239D01*
X111753284Y-64913905D02*
X111753284Y-64761524D01*
X111619951Y-64856762D02*
X111962808Y-64856762D01*
X112000903Y-64837715D01*
X112019951Y-64799620D01*
X112019951Y-64761524D01*
D12*
X111728713Y-74985429D02*
X111771570Y-74999715D01*
X111842999Y-74999715D01*
X111871570Y-74985429D01*
X111885856Y-74971143D01*
X111900141Y-74942572D01*
X111900141Y-74914001D01*
X111885856Y-74885429D01*
X111871570Y-74871143D01*
X111842999Y-74856858D01*
X111785856Y-74842572D01*
X111757284Y-74828286D01*
X111742999Y-74814001D01*
X111728713Y-74785429D01*
X111728713Y-74756858D01*
X111742999Y-74728286D01*
X111757284Y-74714001D01*
X111785856Y-74699715D01*
X111857284Y-74699715D01*
X111900141Y-74714001D01*
X112028713Y-74999715D02*
X112028713Y-74699715D01*
X112100141Y-74699715D01*
X112142999Y-74714001D01*
X112171570Y-74742572D01*
X112185856Y-74771143D01*
X112200141Y-74828286D01*
X112200141Y-74871143D01*
X112185856Y-74928286D01*
X112171570Y-74956858D01*
X112142999Y-74985429D01*
X112100141Y-74999715D01*
X112028713Y-74999715D01*
X112314427Y-74914001D02*
X112457284Y-74914001D01*
X112285856Y-74999715D02*
X112385856Y-74699715D01*
X112485856Y-74999715D01*
X113386856Y-74985429D02*
X113429713Y-74999715D01*
X113501141Y-74999715D01*
X113529713Y-74985429D01*
X113543999Y-74971143D01*
X113558284Y-74942572D01*
X113558284Y-74914001D01*
X113543999Y-74885429D01*
X113529713Y-74871143D01*
X113501141Y-74856858D01*
X113443999Y-74842572D01*
X113415427Y-74828286D01*
X113401141Y-74814001D01*
X113386856Y-74785429D01*
X113386856Y-74756858D01*
X113401141Y-74728286D01*
X113415427Y-74714001D01*
X113443999Y-74699715D01*
X113515427Y-74699715D01*
X113558284Y-74714001D01*
X113858284Y-74971143D02*
X113843999Y-74985429D01*
X113801141Y-74999715D01*
X113772570Y-74999715D01*
X113729713Y-74985429D01*
X113701141Y-74956858D01*
X113686856Y-74928286D01*
X113672570Y-74871143D01*
X113672570Y-74828286D01*
X113686856Y-74771143D01*
X113701141Y-74742572D01*
X113729713Y-74714001D01*
X113772570Y-74699715D01*
X113801141Y-74699715D01*
X113843999Y-74714001D01*
X113858284Y-74728286D01*
X114129713Y-74999715D02*
X113986856Y-74999715D01*
X113986856Y-74699715D01*
D11*
X107756141Y-76823001D02*
X107718046Y-76803953D01*
X107660903Y-76803953D01*
X107603760Y-76823001D01*
X107565665Y-76861096D01*
X107546618Y-76899191D01*
X107527570Y-76975381D01*
X107527570Y-77032524D01*
X107546618Y-77108715D01*
X107565665Y-77146810D01*
X107603760Y-77184905D01*
X107660903Y-77203953D01*
X107698999Y-77203953D01*
X107756141Y-77184905D01*
X107775189Y-77165858D01*
X107775189Y-77032524D01*
X107698999Y-77032524D01*
X107946618Y-77203953D02*
X107946618Y-76803953D01*
X108175189Y-77203953D01*
X108175189Y-76803953D01*
X108365665Y-77203953D02*
X108365665Y-76803953D01*
X108460903Y-76803953D01*
X108518046Y-76823001D01*
X108556141Y-76861096D01*
X108575189Y-76899191D01*
X108594237Y-76975381D01*
X108594237Y-77032524D01*
X108575189Y-77108715D01*
X108556141Y-77146810D01*
X108518046Y-77184905D01*
X108460903Y-77203953D01*
X108365665Y-77203953D01*
X109051379Y-77089667D02*
X109241856Y-77089667D01*
X109013284Y-77203953D02*
X109146618Y-76803953D01*
X109279951Y-77203953D01*
X109489475Y-76803953D02*
X109527570Y-76803953D01*
X109565665Y-76823001D01*
X109584713Y-76842048D01*
X109603760Y-76880143D01*
X109622808Y-76956334D01*
X109622808Y-77051572D01*
X109603760Y-77127762D01*
X109584713Y-77165858D01*
X109565665Y-77184905D01*
X109527570Y-77203953D01*
X109489475Y-77203953D01*
X109451379Y-77184905D01*
X109432332Y-77165858D01*
X109413284Y-77127762D01*
X109394237Y-77051572D01*
X109394237Y-76956334D01*
X109413284Y-76880143D01*
X109432332Y-76842048D01*
X109451379Y-76823001D01*
X109489475Y-76803953D01*
X110041856Y-76803953D02*
X110175189Y-77203953D01*
X110308522Y-76803953D01*
X110441856Y-77203953D02*
X110441856Y-76803953D01*
X110537094Y-76803953D01*
X110594237Y-76823001D01*
X110632332Y-76861096D01*
X110651379Y-76899191D01*
X110670427Y-76975381D01*
X110670427Y-77032524D01*
X110651379Y-77108715D01*
X110632332Y-77146810D01*
X110594237Y-77184905D01*
X110537094Y-77203953D01*
X110441856Y-77203953D01*
X110841856Y-77203953D02*
X110841856Y-76803953D01*
X110937094Y-76803953D01*
X110994237Y-76823001D01*
X111032332Y-76861096D01*
X111051379Y-76899191D01*
X111070427Y-76975381D01*
X111070427Y-77032524D01*
X111051379Y-77108715D01*
X111032332Y-77146810D01*
X110994237Y-77184905D01*
X110937094Y-77203953D01*
X110841856Y-77203953D01*
D13*
X113583999Y-77776143D02*
X113583999Y-78119001D01*
X113561141Y-78187572D01*
X113515427Y-78233286D01*
X113446856Y-78256143D01*
X113401141Y-78256143D01*
X114063999Y-78256143D02*
X113789713Y-78256143D01*
X113926856Y-78256143D02*
X113926856Y-77776143D01*
X113881141Y-77844715D01*
X113835427Y-77890429D01*
X113789713Y-77913286D01*
D12*
X110267141Y-71457001D02*
X110281427Y-71471286D01*
X110295713Y-71514143D01*
X110295713Y-71542715D01*
X110281427Y-71585572D01*
X110252856Y-71614143D01*
X110224284Y-71628429D01*
X110167141Y-71642715D01*
X110124284Y-71642715D01*
X110067141Y-71628429D01*
X110038570Y-71614143D01*
X110009999Y-71585572D01*
X109995713Y-71542715D01*
X109995713Y-71514143D01*
X110009999Y-71471286D01*
X110024284Y-71457001D01*
X110295713Y-71171286D02*
X110295713Y-71342715D01*
X110295713Y-71257001D02*
X109995713Y-71257001D01*
X110038570Y-71285572D01*
X110067141Y-71314143D01*
X110081427Y-71342715D01*
D13*
X112792999Y-76580001D02*
X111392999Y-76580001D01*
X111392999Y-75180001D02*
X112792999Y-75180001D01*
X111392999Y-76580001D02*
X111392999Y-75180001D01*
X112792999Y-75180001D02*
X112792999Y-76580001D01*
X114443999Y-75180001D02*
X114443999Y-76580001D01*
X114443999Y-76580001D02*
X113043999Y-76580001D01*
X113043999Y-76580001D02*
X113043999Y-75180001D01*
X113043999Y-75180001D02*
X114443999Y-75180001D01*
D14*
X107943999Y-80428001D02*
X107943999Y-78778001D01*
X113943999Y-78778001D02*
X113943999Y-80428001D01*
X113193999Y-78778001D02*
X113943999Y-78778001D01*
X107943999Y-78778001D02*
X108693999Y-78778001D01*
X109443999Y-83028001D02*
X112443999Y-83028001D01*
X108545599Y-78128001D02*
G75*
G03*
X108545599Y-78128001I-101600J0D01*
G01*
D13*
X111309999Y-71514837D02*
X111309999Y-71299165D01*
X110589999Y-71514837D02*
X110589999Y-71299165D01*
M02*
