G04 #@! TF.GenerationSoftware,KiCad,Pcbnew,(6.0.7)*
G04 #@! TF.CreationDate,2022-08-12T15:34:28-07:00*
G04 #@! TF.ProjectId,mlx90614-breakout,6d6c7839-3036-4313-942d-627265616b6f,rev?*
G04 #@! TF.SameCoordinates,Original*
G04 #@! TF.FileFunction,Legend,Bot*
G04 #@! TF.FilePolarity,Positive*
%FSLAX46Y46*%
G04 Gerber Fmt 4.6, Leading zero omitted, Abs format (unit mm)*
G04 Created by KiCad (PCBNEW (6.0.7)) date 2022-08-12 15:34:28*
%MOMM*%
%LPD*%
G01*
G04 APERTURE LIST*
%ADD10C,0.100000*%
%ADD11C,0.050000*%
%ADD12C,0.075000*%
%ADD13C,0.010000*%
%ADD14C,0.127000*%
%ADD15C,0.200000*%
G04 APERTURE END LIST*
D10*
X115349999Y-82755429D02*
X115349999Y-82355429D01*
X115349999Y-82412572D02*
X115321427Y-82384001D01*
X115264284Y-82355429D01*
X115178570Y-82355429D01*
X115121427Y-82384001D01*
X115092856Y-82441143D01*
X115092856Y-82755429D01*
X115092856Y-82441143D02*
X115064284Y-82384001D01*
X115007141Y-82355429D01*
X114921427Y-82355429D01*
X114864284Y-82384001D01*
X114835713Y-82441143D01*
X114835713Y-82755429D01*
X114464284Y-82755429D02*
X114521427Y-82726858D01*
X114549999Y-82669715D01*
X114549999Y-82155429D01*
X114292856Y-82755429D02*
X113978570Y-82355429D01*
X114292856Y-82355429D02*
X113978570Y-82755429D01*
X113721427Y-82755429D02*
X113607141Y-82755429D01*
X113549999Y-82726858D01*
X113521427Y-82698286D01*
X113464284Y-82612572D01*
X113435713Y-82498286D01*
X113435713Y-82269715D01*
X113464284Y-82212572D01*
X113492856Y-82184001D01*
X113549999Y-82155429D01*
X113664284Y-82155429D01*
X113721427Y-82184001D01*
X113749999Y-82212572D01*
X113778570Y-82269715D01*
X113778570Y-82412572D01*
X113749999Y-82469715D01*
X113721427Y-82498286D01*
X113664284Y-82526858D01*
X113549999Y-82526858D01*
X113492856Y-82498286D01*
X113464284Y-82469715D01*
X113435713Y-82412572D01*
X113064284Y-82155429D02*
X113007141Y-82155429D01*
X112949999Y-82184001D01*
X112921427Y-82212572D01*
X112892856Y-82269715D01*
X112864284Y-82384001D01*
X112864284Y-82526858D01*
X112892856Y-82641143D01*
X112921427Y-82698286D01*
X112949999Y-82726858D01*
X113007141Y-82755429D01*
X113064284Y-82755429D01*
X113121427Y-82726858D01*
X113149999Y-82698286D01*
X113178570Y-82641143D01*
X113207141Y-82526858D01*
X113207141Y-82384001D01*
X113178570Y-82269715D01*
X113149999Y-82212572D01*
X113121427Y-82184001D01*
X113064284Y-82155429D01*
X112349999Y-82155429D02*
X112464284Y-82155429D01*
X112521427Y-82184001D01*
X112549999Y-82212572D01*
X112607141Y-82298286D01*
X112635713Y-82412572D01*
X112635713Y-82641143D01*
X112607141Y-82698286D01*
X112578570Y-82726858D01*
X112521427Y-82755429D01*
X112407141Y-82755429D01*
X112349999Y-82726858D01*
X112321427Y-82698286D01*
X112292856Y-82641143D01*
X112292856Y-82498286D01*
X112321427Y-82441143D01*
X112349999Y-82412572D01*
X112407141Y-82384001D01*
X112521427Y-82384001D01*
X112578570Y-82412572D01*
X112607141Y-82441143D01*
X112635713Y-82498286D01*
X111721427Y-82755429D02*
X112064284Y-82755429D01*
X111892856Y-82755429D02*
X111892856Y-82155429D01*
X111949999Y-82241143D01*
X112007141Y-82298286D01*
X112064284Y-82326858D01*
X111207141Y-82355429D02*
X111207141Y-82755429D01*
X111349999Y-82126858D02*
X111492856Y-82555429D01*
X111121427Y-82555429D01*
X110892856Y-82526858D02*
X110435713Y-82526858D01*
X110149999Y-82755429D02*
X110149999Y-82155429D01*
X110149999Y-82384001D02*
X110092856Y-82355429D01*
X109978570Y-82355429D01*
X109921427Y-82384001D01*
X109892856Y-82412572D01*
X109864284Y-82469715D01*
X109864284Y-82641143D01*
X109892856Y-82698286D01*
X109921427Y-82726858D01*
X109978570Y-82755429D01*
X110092856Y-82755429D01*
X110149999Y-82726858D01*
X109607141Y-82755429D02*
X109607141Y-82355429D01*
X109607141Y-82469715D02*
X109578570Y-82412572D01*
X109549999Y-82384001D01*
X109492856Y-82355429D01*
X109435713Y-82355429D01*
X109007141Y-82726858D02*
X109064284Y-82755429D01*
X109178570Y-82755429D01*
X109235713Y-82726858D01*
X109264284Y-82669715D01*
X109264284Y-82441143D01*
X109235713Y-82384001D01*
X109178570Y-82355429D01*
X109064284Y-82355429D01*
X109007141Y-82384001D01*
X108978570Y-82441143D01*
X108978570Y-82498286D01*
X109264284Y-82555429D01*
X108464284Y-82755429D02*
X108464284Y-82441143D01*
X108492856Y-82384001D01*
X108549999Y-82355429D01*
X108664284Y-82355429D01*
X108721427Y-82384001D01*
X108464284Y-82726858D02*
X108521427Y-82755429D01*
X108664284Y-82755429D01*
X108721427Y-82726858D01*
X108749999Y-82669715D01*
X108749999Y-82612572D01*
X108721427Y-82555429D01*
X108664284Y-82526858D01*
X108521427Y-82526858D01*
X108464284Y-82498286D01*
X108178570Y-82755429D02*
X108178570Y-82155429D01*
X108121427Y-82526858D02*
X107949999Y-82755429D01*
X107949999Y-82355429D02*
X108178570Y-82584001D01*
X107607141Y-82755429D02*
X107664284Y-82726858D01*
X107692856Y-82698286D01*
X107721427Y-82641143D01*
X107721427Y-82469715D01*
X107692856Y-82412572D01*
X107664284Y-82384001D01*
X107607141Y-82355429D01*
X107521427Y-82355429D01*
X107464284Y-82384001D01*
X107435713Y-82412572D01*
X107407141Y-82469715D01*
X107407141Y-82641143D01*
X107435713Y-82698286D01*
X107464284Y-82726858D01*
X107521427Y-82755429D01*
X107607141Y-82755429D01*
X106892856Y-82355429D02*
X106892856Y-82755429D01*
X107149999Y-82355429D02*
X107149999Y-82669715D01*
X107121427Y-82726858D01*
X107064284Y-82755429D01*
X106978570Y-82755429D01*
X106921427Y-82726858D01*
X106892856Y-82698286D01*
X106692856Y-82355429D02*
X106464284Y-82355429D01*
X106607141Y-82155429D02*
X106607141Y-82669715D01*
X106578570Y-82726858D01*
X106521427Y-82755429D01*
X106464284Y-82755429D01*
D11*
X105624713Y-82707715D02*
X105638999Y-82693429D01*
X105653284Y-82664858D01*
X105653284Y-82593429D01*
X105638999Y-82564858D01*
X105624713Y-82550572D01*
X105596141Y-82536286D01*
X105567570Y-82536286D01*
X105524713Y-82550572D01*
X105353284Y-82722001D01*
X105353284Y-82536286D01*
X105653284Y-82350572D02*
X105653284Y-82322001D01*
X105638999Y-82293429D01*
X105624713Y-82279143D01*
X105596141Y-82264858D01*
X105538999Y-82250572D01*
X105467570Y-82250572D01*
X105410427Y-82264858D01*
X105381856Y-82279143D01*
X105367570Y-82293429D01*
X105353284Y-82322001D01*
X105353284Y-82350572D01*
X105367570Y-82379143D01*
X105381856Y-82393429D01*
X105410427Y-82407715D01*
X105467570Y-82422001D01*
X105538999Y-82422001D01*
X105596141Y-82407715D01*
X105624713Y-82393429D01*
X105638999Y-82379143D01*
X105653284Y-82350572D01*
X105624713Y-82136286D02*
X105638999Y-82122001D01*
X105653284Y-82093429D01*
X105653284Y-82022001D01*
X105638999Y-81993429D01*
X105624713Y-81979143D01*
X105596141Y-81964858D01*
X105567570Y-81964858D01*
X105524713Y-81979143D01*
X105353284Y-82150572D01*
X105353284Y-81964858D01*
X105624713Y-81850572D02*
X105638999Y-81836286D01*
X105653284Y-81807715D01*
X105653284Y-81736286D01*
X105638999Y-81707715D01*
X105624713Y-81693429D01*
X105596141Y-81679143D01*
X105567570Y-81679143D01*
X105524713Y-81693429D01*
X105353284Y-81864858D01*
X105353284Y-81679143D01*
X105467570Y-81550572D02*
X105467570Y-81322001D01*
X105653284Y-81122001D02*
X105653284Y-81093429D01*
X105638999Y-81064858D01*
X105624713Y-81050572D01*
X105596141Y-81036286D01*
X105538999Y-81022001D01*
X105467570Y-81022001D01*
X105410427Y-81036286D01*
X105381856Y-81050572D01*
X105367570Y-81064858D01*
X105353284Y-81093429D01*
X105353284Y-81122001D01*
X105367570Y-81150572D01*
X105381856Y-81164858D01*
X105410427Y-81179143D01*
X105467570Y-81193429D01*
X105538999Y-81193429D01*
X105596141Y-81179143D01*
X105624713Y-81164858D01*
X105638999Y-81150572D01*
X105653284Y-81122001D01*
X105524713Y-80850572D02*
X105538999Y-80879143D01*
X105553284Y-80893429D01*
X105581856Y-80907715D01*
X105596141Y-80907715D01*
X105624713Y-80893429D01*
X105638999Y-80879143D01*
X105653284Y-80850572D01*
X105653284Y-80793429D01*
X105638999Y-80764858D01*
X105624713Y-80750572D01*
X105596141Y-80736286D01*
X105581856Y-80736286D01*
X105553284Y-80750572D01*
X105538999Y-80764858D01*
X105524713Y-80793429D01*
X105524713Y-80850572D01*
X105510427Y-80879143D01*
X105496141Y-80893429D01*
X105467570Y-80907715D01*
X105410427Y-80907715D01*
X105381856Y-80893429D01*
X105367570Y-80879143D01*
X105353284Y-80850572D01*
X105353284Y-80793429D01*
X105367570Y-80764858D01*
X105381856Y-80750572D01*
X105410427Y-80736286D01*
X105467570Y-80736286D01*
X105496141Y-80750572D01*
X105510427Y-80764858D01*
X105524713Y-80793429D01*
D12*
X107774951Y-59858191D02*
X107774951Y-60262953D01*
X107751141Y-60310572D01*
X107727332Y-60334381D01*
X107679713Y-60358191D01*
X107584475Y-60358191D01*
X107536856Y-60334381D01*
X107513046Y-60310572D01*
X107489237Y-60262953D01*
X107489237Y-59858191D01*
X106989237Y-60358191D02*
X107274951Y-60358191D01*
X107132094Y-60358191D02*
X107132094Y-59858191D01*
X107179713Y-59929620D01*
X107227332Y-59977239D01*
X107274951Y-60001048D01*
G36*
X108968514Y-73869591D02*
G01*
X108969920Y-73944521D01*
X108816977Y-73944521D01*
X108819789Y-73794661D01*
X108967109Y-73794661D01*
X108968514Y-73869591D01*
G37*
D13*
X108968514Y-73869591D02*
X108969920Y-73944521D01*
X108816977Y-73944521D01*
X108819789Y-73794661D01*
X108967109Y-73794661D01*
X108968514Y-73869591D01*
G36*
X110249809Y-74132481D02*
G01*
X110173609Y-74132481D01*
X110173609Y-74056281D01*
X110249809Y-74056281D01*
X110249809Y-74132481D01*
G37*
X110249809Y-74132481D02*
X110173609Y-74132481D01*
X110173609Y-74056281D01*
X110249809Y-74056281D01*
X110249809Y-74132481D01*
G36*
X109965329Y-73929281D02*
G01*
X109853569Y-73929281D01*
X109853569Y-73817521D01*
X109965329Y-73817521D01*
X109965329Y-73929281D01*
G37*
X109965329Y-73929281D02*
X109853569Y-73929281D01*
X109853569Y-73817521D01*
X109965329Y-73817521D01*
X109965329Y-73929281D01*
G36*
X108344809Y-74061361D02*
G01*
X108238129Y-74061361D01*
X108238129Y-73959761D01*
X108344809Y-73959761D01*
X108344809Y-74061361D01*
G37*
X108344809Y-74061361D02*
X108238129Y-74061361D01*
X108238129Y-73959761D01*
X108344809Y-73959761D01*
X108344809Y-74061361D01*
G36*
X109299849Y-74076601D02*
G01*
X109122049Y-74076601D01*
X109122049Y-73898801D01*
X109299849Y-73898801D01*
X109299849Y-74076601D01*
G37*
X109299849Y-74076601D02*
X109122049Y-74076601D01*
X109122049Y-73898801D01*
X109299849Y-73898801D01*
X109299849Y-74076601D01*
G36*
X108633250Y-73734971D02*
G01*
X108631829Y-73799741D01*
X108567059Y-73801162D01*
X108502289Y-73802584D01*
X108502289Y-73670201D01*
X108634672Y-73670201D01*
X108633250Y-73734971D01*
G37*
X108633250Y-73734971D02*
X108631829Y-73799741D01*
X108567059Y-73801162D01*
X108502289Y-73802584D01*
X108502289Y-73670201D01*
X108634672Y-73670201D01*
X108633250Y-73734971D01*
G36*
X108664849Y-74518561D02*
G01*
X108619129Y-74518561D01*
X108619129Y-74472841D01*
X108664849Y-74472841D01*
X108664849Y-74518561D01*
G37*
X108664849Y-74518561D02*
X108619129Y-74518561D01*
X108619129Y-74472841D01*
X108664849Y-74472841D01*
X108664849Y-74518561D01*
G36*
X107841889Y-74112161D02*
G01*
X107780929Y-74112161D01*
X107780929Y-74051201D01*
X107841889Y-74051201D01*
X107841889Y-74112161D01*
G37*
X107841889Y-74112161D02*
X107780929Y-74112161D01*
X107780929Y-74051201D01*
X107841889Y-74051201D01*
X107841889Y-74112161D01*
G36*
X108116209Y-74310281D02*
G01*
X108040009Y-74310281D01*
X108040009Y-74234081D01*
X108116209Y-74234081D01*
X108116209Y-74310281D01*
G37*
X108116209Y-74310281D02*
X108040009Y-74310281D01*
X108040009Y-74234081D01*
X108116209Y-74234081D01*
X108116209Y-74310281D01*
G36*
X108918849Y-74315361D02*
G01*
X108827409Y-74315361D01*
X108827409Y-74218841D01*
X108918849Y-74218841D01*
X108918849Y-74315361D01*
G37*
X108918849Y-74315361D02*
X108827409Y-74315361D01*
X108827409Y-74218841D01*
X108918849Y-74218841D01*
X108918849Y-74315361D01*
G36*
X109639056Y-73694213D02*
G01*
X109637669Y-73784501D01*
X109549925Y-73785891D01*
X109516550Y-73786255D01*
X109492114Y-73786087D01*
X109475408Y-73785317D01*
X109465223Y-73783873D01*
X109460348Y-73781686D01*
X109459624Y-73780616D01*
X109458847Y-73773494D01*
X109458337Y-73758072D01*
X109458118Y-73736211D01*
X109458214Y-73709766D01*
X109458468Y-73690325D01*
X109459869Y-73606701D01*
X109550156Y-73605313D01*
X109640444Y-73603925D01*
X109639056Y-73694213D01*
G37*
X109639056Y-73694213D02*
X109637669Y-73784501D01*
X109549925Y-73785891D01*
X109516550Y-73786255D01*
X109492114Y-73786087D01*
X109475408Y-73785317D01*
X109465223Y-73783873D01*
X109460348Y-73781686D01*
X109459624Y-73780616D01*
X109458847Y-73773494D01*
X109458337Y-73758072D01*
X109458118Y-73736211D01*
X109458214Y-73709766D01*
X109458468Y-73690325D01*
X109459869Y-73606701D01*
X109550156Y-73605313D01*
X109640444Y-73603925D01*
X109639056Y-73694213D01*
G36*
X108629289Y-74198521D02*
G01*
X108517529Y-74198521D01*
X108517529Y-74081681D01*
X108629289Y-74081681D01*
X108629289Y-74198521D01*
G37*
X108629289Y-74198521D02*
X108517529Y-74198521D01*
X108517529Y-74081681D01*
X108629289Y-74081681D01*
X108629289Y-74198521D01*
G36*
X109167769Y-73634641D02*
G01*
X108989969Y-73634641D01*
X108989969Y-73456841D01*
X109167769Y-73456841D01*
X109167769Y-73634641D01*
G37*
X109167769Y-73634641D02*
X108989969Y-73634641D01*
X108989969Y-73456841D01*
X109167769Y-73456841D01*
X109167769Y-73634641D01*
G36*
X108426089Y-74472841D02*
G01*
X108324489Y-74472841D01*
X108324489Y-74371241D01*
X108426089Y-74371241D01*
X108426089Y-74472841D01*
G37*
X108426089Y-74472841D02*
X108324489Y-74472841D01*
X108324489Y-74371241D01*
X108426089Y-74371241D01*
X108426089Y-74472841D01*
D14*
X110550003Y-59760002D02*
X110549996Y-58960003D01*
X110549996Y-58960003D02*
X111350002Y-58960003D01*
X111350002Y-58960003D02*
X111349995Y-59760002D01*
X115659995Y-64450001D02*
G75*
G03*
X111349994Y-59760003I-4711832J-4670D01*
G01*
X106240003Y-64450001D02*
G75*
G03*
X110949999Y-69159997I4709996J0D01*
G01*
X110949999Y-69159997D02*
G75*
G03*
X115659995Y-64450001I1J4709995D01*
G01*
X110550003Y-59760001D02*
G75*
G03*
X106240002Y-64450000I401465J-4694332D01*
G01*
D15*
X114783523Y-60716477D02*
G75*
G03*
X114783523Y-60716477I-100000J0D01*
G01*
M02*
