G04 #@! TF.GenerationSoftware,KiCad,Pcbnew,(6.0.7)*
G04 #@! TF.CreationDate,2022-08-12T15:34:28-07:00*
G04 #@! TF.ProjectId,mlx90614-breakout,6d6c7839-3036-4313-942d-627265616b6f,rev?*
G04 #@! TF.SameCoordinates,Original*
G04 #@! TF.FileFunction,Copper,L1,Top*
G04 #@! TF.FilePolarity,Positive*
%FSLAX46Y46*%
G04 Gerber Fmt 4.6, Leading zero omitted, Abs format (unit mm)*
G04 Created by KiCad (PCBNEW (6.0.7)) date 2022-08-12 15:34:28*
%MOMM*%
%LPD*%
G01*
G04 APERTURE LIST*
G04 Aperture macros list*
%AMRoundRect*
0 Rectangle with rounded corners*
0 $1 Rounding radius*
0 $2 $3 $4 $5 $6 $7 $8 $9 X,Y pos of 4 corners*
0 Add a 4 corners polygon primitive as box body*
4,1,4,$2,$3,$4,$5,$6,$7,$8,$9,$2,$3,0*
0 Add four circle primitives for the rounded corners*
1,1,$1+$1,$2,$3*
1,1,$1+$1,$4,$5*
1,1,$1+$1,$6,$7*
1,1,$1+$1,$8,$9*
0 Add four rect primitives between the rounded corners*
20,1,$1+$1,$2,$3,$4,$5,0*
20,1,$1+$1,$4,$5,$6,$7,0*
20,1,$1+$1,$6,$7,$8,$9,0*
20,1,$1+$1,$8,$9,$2,$3,0*%
G04 Aperture macros list end*
G04 #@! TA.AperFunction,EtchedComponent*
%ADD10C,1.600000*%
G04 #@! TD*
G04 #@! TA.AperFunction,SMDPad,CuDef*
%ADD11R,1.000000X1.000000*%
G04 #@! TD*
G04 #@! TA.AperFunction,SMDPad,CuDef*
%ADD12R,0.600000X1.350000*%
G04 #@! TD*
G04 #@! TA.AperFunction,SMDPad,CuDef*
%ADD13R,1.200000X2.000000*%
G04 #@! TD*
G04 #@! TA.AperFunction,SMDPad,CuDef*
%ADD14RoundRect,0.250000X0.475000X-0.250000X0.475000X0.250000X-0.475000X0.250000X-0.475000X-0.250000X0*%
G04 #@! TD*
G04 #@! TA.AperFunction,ComponentPad*
%ADD15C,0.700000*%
G04 #@! TD*
G04 #@! TA.AperFunction,ComponentPad*
%ADD16C,2.000000*%
G04 #@! TD*
G04 #@! TA.AperFunction,Conductor*
%ADD17C,0.250000*%
G04 #@! TD*
G04 APERTURE END LIST*
D10*
X109154048Y-66246052D02*
G75*
G03*
X109154048Y-66246052I-100J0D01*
G01*
X112746150Y-66246052D02*
G75*
G03*
X112746150Y-66246052I-100J0D01*
G01*
X109153977Y-62654020D02*
G75*
G03*
X109153977Y-62654020I-100J0D01*
G01*
X112746149Y-62653950D02*
G75*
G03*
X112746149Y-62653950I-99J0D01*
G01*
D11*
X113997999Y-74483001D03*
X107901999Y-74483001D03*
D12*
X109443999Y-78428001D03*
X110443999Y-78428001D03*
X111443999Y-78428001D03*
X112443999Y-78428001D03*
D13*
X113743999Y-82103001D03*
X108143999Y-82103001D03*
D11*
X109933999Y-74483001D03*
D14*
X106758997Y-65715002D03*
X106758997Y-63815002D03*
D11*
X111965999Y-74483001D03*
D15*
X112746050Y-62653950D03*
X112746050Y-66246052D03*
X109153948Y-66246052D03*
D16*
X109153948Y-62653950D03*
D17*
X109933999Y-74483001D02*
X109933999Y-76007001D01*
X107290047Y-66246052D02*
X109153948Y-66246052D01*
X106758997Y-65715002D02*
X107290047Y-66246052D01*
X109153948Y-66246052D02*
X109933999Y-67026103D01*
X109933999Y-67026103D02*
X109933999Y-74483001D01*
X109933999Y-76007001D02*
X110443999Y-76517001D01*
X110443999Y-76517001D02*
X110443999Y-78428001D01*
X111965999Y-76007001D02*
X111965999Y-74483001D01*
X111443999Y-76529001D02*
X111965999Y-76007001D01*
X111443999Y-78428001D02*
X111443999Y-76529001D01*
X111965999Y-67026103D02*
X112746050Y-66246052D01*
X111965999Y-74483001D02*
X111965999Y-67026103D01*
X112443999Y-76672001D02*
X112981999Y-76134001D01*
X112981999Y-76134001D02*
X113743999Y-76134001D01*
X112981999Y-71943001D02*
X112981999Y-68387001D01*
X112981999Y-68387001D02*
X114505999Y-66863001D01*
X112443999Y-78428001D02*
X112443999Y-76672001D01*
X113997999Y-72959001D02*
X112981999Y-71943001D01*
X113997999Y-75880001D02*
X113997999Y-74483001D01*
X113743999Y-76134001D02*
X113997999Y-75880001D01*
X113997999Y-74483001D02*
X113997999Y-72959001D01*
X114505999Y-64413899D02*
X112746050Y-62653950D01*
X114505999Y-66863001D02*
X114505999Y-64413899D01*
X105488999Y-66736001D02*
X105488999Y-63180001D01*
X108143999Y-78428001D02*
X109443999Y-78428001D01*
X106015050Y-62653950D02*
X106777050Y-62653950D01*
X107901999Y-69149001D02*
X105488999Y-66736001D01*
X106777050Y-63796949D02*
X106777050Y-62653950D01*
X109443999Y-78428001D02*
X108163999Y-78428001D01*
X107901999Y-74483001D02*
X107901999Y-69149001D01*
X107901999Y-78166001D02*
X107901999Y-74483001D01*
X108143999Y-82103001D02*
X108143999Y-78428001D01*
X106758997Y-63815002D02*
X106777050Y-63796949D01*
X105488999Y-63180001D02*
X106015050Y-62653950D01*
X108163999Y-78428001D02*
X107901999Y-78166001D01*
X113743999Y-82103001D02*
X108143999Y-82103001D01*
X106777050Y-62653950D02*
X109153948Y-62653950D01*
G04 #@! TA.AperFunction,Conductor*
G36*
X116733620Y-58628503D02*
G01*
X116780113Y-58682159D01*
X116791499Y-58734501D01*
X116791499Y-82865501D01*
X116771497Y-82933622D01*
X116717841Y-82980115D01*
X116665499Y-82991501D01*
X114977999Y-82991501D01*
X114909878Y-82971499D01*
X114863385Y-82917843D01*
X114851999Y-82865501D01*
X114851999Y-82375116D01*
X114847524Y-82359877D01*
X114846134Y-82358672D01*
X114838451Y-82357001D01*
X112654115Y-82357001D01*
X112638876Y-82361476D01*
X112637671Y-82362866D01*
X112636000Y-82370549D01*
X112636000Y-82865501D01*
X112615998Y-82933622D01*
X112562342Y-82980115D01*
X112510000Y-82991501D01*
X109377999Y-82991501D01*
X109309878Y-82971499D01*
X109263385Y-82917843D01*
X109251999Y-82865501D01*
X109251999Y-82375116D01*
X109247524Y-82359877D01*
X109246134Y-82358672D01*
X109238451Y-82357001D01*
X107054115Y-82357001D01*
X107038876Y-82361476D01*
X107037671Y-82362866D01*
X107036000Y-82370549D01*
X107036000Y-82865501D01*
X107015998Y-82933622D01*
X106962342Y-82980115D01*
X106910000Y-82991501D01*
X105234499Y-82991501D01*
X105166378Y-82971499D01*
X105119885Y-82917843D01*
X105108499Y-82865501D01*
X105108499Y-81830886D01*
X107035999Y-81830886D01*
X107040474Y-81846125D01*
X107041864Y-81847330D01*
X107049547Y-81849001D01*
X107871884Y-81849001D01*
X107887123Y-81844526D01*
X107888328Y-81843136D01*
X107889999Y-81835453D01*
X107889999Y-81830886D01*
X108397999Y-81830886D01*
X108402474Y-81846125D01*
X108403864Y-81847330D01*
X108411547Y-81849001D01*
X109233883Y-81849001D01*
X109249122Y-81844526D01*
X109250327Y-81843136D01*
X109251998Y-81835453D01*
X109251998Y-81830886D01*
X112635999Y-81830886D01*
X112640474Y-81846125D01*
X112641864Y-81847330D01*
X112649547Y-81849001D01*
X113471884Y-81849001D01*
X113487123Y-81844526D01*
X113488328Y-81843136D01*
X113489999Y-81835453D01*
X113489999Y-81830886D01*
X113997999Y-81830886D01*
X114002474Y-81846125D01*
X114003864Y-81847330D01*
X114011547Y-81849001D01*
X114833883Y-81849001D01*
X114849122Y-81844526D01*
X114850327Y-81843136D01*
X114851998Y-81835453D01*
X114851998Y-81058332D01*
X114851628Y-81051511D01*
X114846104Y-81000649D01*
X114842478Y-80985397D01*
X114797323Y-80864947D01*
X114788785Y-80849352D01*
X114712284Y-80747277D01*
X114699723Y-80734716D01*
X114597648Y-80658215D01*
X114582053Y-80649677D01*
X114461605Y-80604523D01*
X114446350Y-80600896D01*
X114395485Y-80595370D01*
X114388671Y-80595001D01*
X114016114Y-80595001D01*
X114000875Y-80599476D01*
X113999670Y-80600866D01*
X113997999Y-80608549D01*
X113997999Y-81830886D01*
X113489999Y-81830886D01*
X113489999Y-80613117D01*
X113485524Y-80597878D01*
X113484134Y-80596673D01*
X113476451Y-80595002D01*
X113099330Y-80595002D01*
X113092509Y-80595372D01*
X113041647Y-80600896D01*
X113026395Y-80604522D01*
X112905945Y-80649677D01*
X112890350Y-80658215D01*
X112788275Y-80734716D01*
X112775714Y-80747277D01*
X112699213Y-80849352D01*
X112690675Y-80864947D01*
X112645521Y-80985395D01*
X112641894Y-81000650D01*
X112636368Y-81051515D01*
X112635999Y-81058329D01*
X112635999Y-81830886D01*
X109251998Y-81830886D01*
X109251998Y-81058332D01*
X109251628Y-81051511D01*
X109246104Y-81000649D01*
X109242478Y-80985397D01*
X109197323Y-80864947D01*
X109188785Y-80849352D01*
X109112284Y-80747277D01*
X109099723Y-80734716D01*
X108997648Y-80658215D01*
X108982053Y-80649677D01*
X108861605Y-80604523D01*
X108846350Y-80600896D01*
X108795485Y-80595370D01*
X108788671Y-80595001D01*
X108416114Y-80595001D01*
X108400875Y-80599476D01*
X108399670Y-80600866D01*
X108397999Y-80608549D01*
X108397999Y-81830886D01*
X107889999Y-81830886D01*
X107889999Y-80613117D01*
X107885524Y-80597878D01*
X107884134Y-80596673D01*
X107876451Y-80595002D01*
X107499330Y-80595002D01*
X107492509Y-80595372D01*
X107441647Y-80600896D01*
X107426395Y-80604522D01*
X107305945Y-80649677D01*
X107290350Y-80658215D01*
X107188275Y-80734716D01*
X107175714Y-80747277D01*
X107099213Y-80849352D01*
X107090675Y-80864947D01*
X107045521Y-80985395D01*
X107041894Y-81000650D01*
X107036368Y-81051515D01*
X107035999Y-81058329D01*
X107035999Y-81830886D01*
X105108499Y-81830886D01*
X105108499Y-79147670D01*
X108636000Y-79147670D01*
X108636370Y-79154491D01*
X108641894Y-79205353D01*
X108645520Y-79220605D01*
X108690675Y-79341055D01*
X108699213Y-79356650D01*
X108775714Y-79458725D01*
X108788275Y-79471286D01*
X108890350Y-79547787D01*
X108905945Y-79556325D01*
X109026393Y-79601479D01*
X109041648Y-79605106D01*
X109092513Y-79610632D01*
X109099327Y-79611001D01*
X109171884Y-79611001D01*
X109187123Y-79606526D01*
X109188328Y-79605136D01*
X109189999Y-79597453D01*
X109189999Y-78700116D01*
X109185524Y-78684877D01*
X109184134Y-78683672D01*
X109176451Y-78682001D01*
X108654115Y-78682001D01*
X108638876Y-78686476D01*
X108637671Y-78687866D01*
X108636000Y-78695549D01*
X108636000Y-79147670D01*
X105108499Y-79147670D01*
X105108499Y-78155886D01*
X108635999Y-78155886D01*
X108640474Y-78171125D01*
X108641864Y-78172330D01*
X108649547Y-78174001D01*
X109171884Y-78174001D01*
X109187123Y-78169526D01*
X109188328Y-78168136D01*
X109189999Y-78160453D01*
X109189999Y-77263117D01*
X109185524Y-77247878D01*
X109184134Y-77246673D01*
X109176451Y-77245002D01*
X109099330Y-77245002D01*
X109092509Y-77245372D01*
X109041647Y-77250896D01*
X109026395Y-77254522D01*
X108905945Y-77299677D01*
X108890350Y-77308215D01*
X108788275Y-77384716D01*
X108775714Y-77397277D01*
X108699213Y-77499352D01*
X108690675Y-77514947D01*
X108645521Y-77635395D01*
X108641894Y-77650650D01*
X108636368Y-77701515D01*
X108635999Y-77708329D01*
X108635999Y-78155886D01*
X105108499Y-78155886D01*
X105108499Y-75027670D01*
X106894000Y-75027670D01*
X106894370Y-75034491D01*
X106899894Y-75085353D01*
X106903520Y-75100605D01*
X106948675Y-75221055D01*
X106957213Y-75236650D01*
X107033714Y-75338725D01*
X107046275Y-75351286D01*
X107148350Y-75427787D01*
X107163945Y-75436325D01*
X107284393Y-75481479D01*
X107299648Y-75485106D01*
X107350513Y-75490632D01*
X107357327Y-75491001D01*
X107629884Y-75491001D01*
X107645123Y-75486526D01*
X107646328Y-75485136D01*
X107647999Y-75477453D01*
X107647999Y-74755116D01*
X107643524Y-74739877D01*
X107642134Y-74738672D01*
X107634451Y-74737001D01*
X106912115Y-74737001D01*
X106896876Y-74741476D01*
X106895671Y-74742866D01*
X106894000Y-74750549D01*
X106894000Y-75027670D01*
X105108499Y-75027670D01*
X105108499Y-74210886D01*
X106893999Y-74210886D01*
X106898474Y-74226125D01*
X106899864Y-74227330D01*
X106907547Y-74229001D01*
X107629884Y-74229001D01*
X107645123Y-74224526D01*
X107646328Y-74223136D01*
X107647999Y-74215453D01*
X107647999Y-73493117D01*
X107643524Y-73477878D01*
X107642134Y-73476673D01*
X107634451Y-73475002D01*
X107357330Y-73475002D01*
X107350509Y-73475372D01*
X107299647Y-73480896D01*
X107284395Y-73484522D01*
X107163945Y-73529677D01*
X107148350Y-73538215D01*
X107046275Y-73614716D01*
X107033714Y-73627277D01*
X106957213Y-73729352D01*
X106948675Y-73744947D01*
X106903521Y-73865395D01*
X106899894Y-73880650D01*
X106894368Y-73931515D01*
X106893999Y-73938329D01*
X106893999Y-74210886D01*
X105108499Y-74210886D01*
X105108499Y-66015402D01*
X105525497Y-66015402D01*
X105536471Y-66121168D01*
X105592447Y-66288948D01*
X105685519Y-66439350D01*
X105810694Y-66564307D01*
X105816924Y-66568147D01*
X105816925Y-66568148D01*
X105950982Y-66650782D01*
X105961259Y-66657117D01*
X106008530Y-66672796D01*
X106122608Y-66710634D01*
X106122610Y-66710634D01*
X106129136Y-66712799D01*
X106135972Y-66713499D01*
X106135975Y-66713500D01*
X106179028Y-66717911D01*
X106233597Y-66723502D01*
X106823163Y-66723502D01*
X106891284Y-66743504D01*
X106907566Y-66756207D01*
X106908944Y-66757208D01*
X106914726Y-66762638D01*
X106921672Y-66766457D01*
X106921675Y-66766459D01*
X106932481Y-66772400D01*
X106949000Y-66783251D01*
X106965006Y-66795666D01*
X106972275Y-66798811D01*
X106972279Y-66798814D01*
X107005584Y-66813226D01*
X107016234Y-66818443D01*
X107054987Y-66839747D01*
X107062662Y-66841718D01*
X107062663Y-66841718D01*
X107074609Y-66844785D01*
X107093314Y-66851189D01*
X107111902Y-66859233D01*
X107119725Y-66860472D01*
X107119735Y-66860475D01*
X107155571Y-66866151D01*
X107167191Y-66868557D01*
X107202336Y-66877580D01*
X107210017Y-66879552D01*
X107230271Y-66879552D01*
X107249981Y-66881103D01*
X107269990Y-66884272D01*
X107277882Y-66883526D01*
X107314008Y-66880111D01*
X107325866Y-66879552D01*
X107934432Y-66879552D01*
X108002553Y-66899554D01*
X108037645Y-66933281D01*
X108139289Y-67078443D01*
X108147673Y-67090417D01*
X108309583Y-67252327D01*
X108314091Y-67255484D01*
X108314094Y-67255486D01*
X108392147Y-67310139D01*
X108497148Y-67383662D01*
X108502130Y-67385985D01*
X108502135Y-67385988D01*
X108699689Y-67478108D01*
X108704671Y-67480431D01*
X108709979Y-67481853D01*
X108709981Y-67481854D01*
X108920529Y-67538270D01*
X108920531Y-67538270D01*
X108925844Y-67539694D01*
X109066133Y-67551968D01*
X109148470Y-67559172D01*
X109148473Y-67559172D01*
X109153948Y-67559651D01*
X109163522Y-67558813D01*
X109233124Y-67572803D01*
X109284116Y-67622204D01*
X109300499Y-67684334D01*
X109300499Y-73402619D01*
X109280497Y-73470740D01*
X109226841Y-73517233D01*
X109218730Y-73520600D01*
X109195706Y-73529232D01*
X109195703Y-73529233D01*
X109187294Y-73532386D01*
X109070738Y-73619740D01*
X109018826Y-73689007D01*
X109018513Y-73689424D01*
X108961654Y-73731939D01*
X108890836Y-73736965D01*
X108828542Y-73702905D01*
X108816861Y-73689424D01*
X108770285Y-73627278D01*
X108757723Y-73614716D01*
X108655648Y-73538215D01*
X108640053Y-73529677D01*
X108519605Y-73484523D01*
X108504350Y-73480896D01*
X108453485Y-73475370D01*
X108446671Y-73475001D01*
X108174114Y-73475001D01*
X108158875Y-73479476D01*
X108157670Y-73480866D01*
X108155999Y-73488549D01*
X108155999Y-75472885D01*
X108160474Y-75488124D01*
X108161864Y-75489329D01*
X108169547Y-75491000D01*
X108446668Y-75491000D01*
X108453489Y-75490630D01*
X108504351Y-75485106D01*
X108519603Y-75481480D01*
X108640053Y-75436325D01*
X108655648Y-75427787D01*
X108757723Y-75351286D01*
X108770285Y-75338724D01*
X108816861Y-75276578D01*
X108873720Y-75234063D01*
X108944539Y-75229037D01*
X109006832Y-75263097D01*
X109018511Y-75276575D01*
X109070738Y-75346262D01*
X109187294Y-75433616D01*
X109195703Y-75436769D01*
X109195706Y-75436770D01*
X109218730Y-75445402D01*
X109275494Y-75488044D01*
X109300193Y-75554606D01*
X109300499Y-75563383D01*
X109300499Y-75928234D01*
X109299972Y-75939417D01*
X109298297Y-75946910D01*
X109298546Y-75954836D01*
X109298546Y-75954837D01*
X109300437Y-76014987D01*
X109300499Y-76018946D01*
X109300499Y-76046857D01*
X109300996Y-76050791D01*
X109300996Y-76050792D01*
X109301004Y-76050857D01*
X109301937Y-76062694D01*
X109303326Y-76106890D01*
X109307718Y-76122006D01*
X109308977Y-76126340D01*
X109312986Y-76145701D01*
X109315525Y-76165798D01*
X109318444Y-76173169D01*
X109318444Y-76173171D01*
X109331803Y-76206913D01*
X109335648Y-76218143D01*
X109345770Y-76252984D01*
X109347981Y-76260594D01*
X109352014Y-76267413D01*
X109352016Y-76267418D01*
X109358292Y-76278029D01*
X109366987Y-76295777D01*
X109374447Y-76314618D01*
X109379109Y-76321034D01*
X109379109Y-76321035D01*
X109400435Y-76350388D01*
X109406951Y-76360308D01*
X109416036Y-76375669D01*
X109429457Y-76398363D01*
X109443778Y-76412684D01*
X109456618Y-76427717D01*
X109468527Y-76444108D01*
X109500412Y-76470485D01*
X109502592Y-76472289D01*
X109511373Y-76480279D01*
X109773595Y-76742502D01*
X109807620Y-76804814D01*
X109810499Y-76831597D01*
X109810499Y-77122965D01*
X109790497Y-77191086D01*
X109736841Y-77237579D01*
X109719997Y-77243861D01*
X109700875Y-77249476D01*
X109699670Y-77250866D01*
X109697999Y-77258549D01*
X109697999Y-77471143D01*
X109689981Y-77515372D01*
X109645028Y-77635283D01*
X109645026Y-77635289D01*
X109642254Y-77642685D01*
X109635499Y-77704867D01*
X109635499Y-79151135D01*
X109642254Y-79213317D01*
X109645026Y-79220713D01*
X109645028Y-79220719D01*
X109689981Y-79340630D01*
X109697999Y-79384859D01*
X109697999Y-79592885D01*
X109702474Y-79608124D01*
X109703864Y-79609329D01*
X109711547Y-79611000D01*
X109788668Y-79611000D01*
X109795489Y-79610630D01*
X109846351Y-79605106D01*
X109861603Y-79601480D01*
X109899057Y-79587439D01*
X109969864Y-79582256D01*
X109987515Y-79587439D01*
X110033683Y-79604746D01*
X110095865Y-79611501D01*
X110792133Y-79611501D01*
X110796745Y-79611000D01*
X110846465Y-79605599D01*
X110846467Y-79605599D01*
X110854315Y-79604746D01*
X110861708Y-79601974D01*
X110861710Y-79601974D01*
X110899770Y-79587706D01*
X110970577Y-79582523D01*
X110988228Y-79587706D01*
X111026288Y-79601974D01*
X111026290Y-79601974D01*
X111033683Y-79604746D01*
X111041531Y-79605599D01*
X111041533Y-79605599D01*
X111091253Y-79611000D01*
X111095865Y-79611501D01*
X111792133Y-79611501D01*
X111796745Y-79611000D01*
X111846465Y-79605599D01*
X111846467Y-79605599D01*
X111854315Y-79604746D01*
X111861708Y-79601974D01*
X111861710Y-79601974D01*
X111899770Y-79587706D01*
X111970577Y-79582523D01*
X111988228Y-79587706D01*
X112026288Y-79601974D01*
X112026290Y-79601974D01*
X112033683Y-79604746D01*
X112041531Y-79605599D01*
X112041533Y-79605599D01*
X112091253Y-79611000D01*
X112095865Y-79611501D01*
X112792133Y-79611501D01*
X112854315Y-79604746D01*
X112990704Y-79553616D01*
X113107260Y-79466262D01*
X113194614Y-79349706D01*
X113245744Y-79213317D01*
X113252499Y-79151135D01*
X113252499Y-77704867D01*
X113245744Y-77642685D01*
X113194614Y-77506296D01*
X113107260Y-77389740D01*
X113108864Y-77388538D01*
X113080378Y-77336371D01*
X113077499Y-77309588D01*
X113077499Y-76986596D01*
X113097501Y-76918475D01*
X113114404Y-76897500D01*
X113207500Y-76804405D01*
X113269812Y-76770380D01*
X113296595Y-76767501D01*
X113665232Y-76767501D01*
X113676415Y-76768028D01*
X113683908Y-76769703D01*
X113691834Y-76769454D01*
X113691835Y-76769454D01*
X113751985Y-76767563D01*
X113755944Y-76767501D01*
X113783855Y-76767501D01*
X113787790Y-76767004D01*
X113787855Y-76766996D01*
X113799692Y-76766063D01*
X113831950Y-76765049D01*
X113835969Y-76764923D01*
X113843888Y-76764674D01*
X113863342Y-76759022D01*
X113882699Y-76755014D01*
X113894929Y-76753469D01*
X113894930Y-76753469D01*
X113902796Y-76752475D01*
X113910167Y-76749556D01*
X113910169Y-76749556D01*
X113943911Y-76736197D01*
X113955141Y-76732352D01*
X113989982Y-76722230D01*
X113989983Y-76722230D01*
X113997592Y-76720019D01*
X114004411Y-76715986D01*
X114004416Y-76715984D01*
X114015027Y-76709708D01*
X114032775Y-76701013D01*
X114051616Y-76693553D01*
X114087386Y-76667565D01*
X114097306Y-76661049D01*
X114128534Y-76642581D01*
X114128537Y-76642579D01*
X114135361Y-76638543D01*
X114149682Y-76624222D01*
X114164716Y-76611381D01*
X114174693Y-76604132D01*
X114181106Y-76599473D01*
X114209297Y-76565396D01*
X114217287Y-76556617D01*
X114390246Y-76383658D01*
X114398536Y-76376114D01*
X114405017Y-76372001D01*
X114451658Y-76322333D01*
X114454412Y-76319492D01*
X114474133Y-76299771D01*
X114476611Y-76296576D01*
X114484317Y-76287554D01*
X114509157Y-76261102D01*
X114514585Y-76255322D01*
X114524345Y-76237569D01*
X114535198Y-76221046D01*
X114537450Y-76218143D01*
X114547612Y-76205042D01*
X114565175Y-76164458D01*
X114570382Y-76153828D01*
X114591694Y-76115061D01*
X114593665Y-76107384D01*
X114593667Y-76107379D01*
X114596731Y-76095443D01*
X114603137Y-76076731D01*
X114608032Y-76065420D01*
X114611180Y-76058146D01*
X114612420Y-76050318D01*
X114612422Y-76050311D01*
X114618098Y-76014477D01*
X114620504Y-76002857D01*
X114629527Y-75967712D01*
X114629527Y-75967711D01*
X114631499Y-75960031D01*
X114631499Y-75939777D01*
X114633050Y-75920066D01*
X114634979Y-75907887D01*
X114636219Y-75900058D01*
X114632058Y-75856039D01*
X114631499Y-75844182D01*
X114631499Y-75563383D01*
X114651501Y-75495262D01*
X114705157Y-75448769D01*
X114713268Y-75445402D01*
X114736292Y-75436770D01*
X114736295Y-75436769D01*
X114744704Y-75433616D01*
X114861260Y-75346262D01*
X114948614Y-75229706D01*
X114999744Y-75093317D01*
X115006499Y-75031135D01*
X115006499Y-73934867D01*
X114999744Y-73872685D01*
X114948614Y-73736296D01*
X114861260Y-73619740D01*
X114744704Y-73532386D01*
X114736295Y-73529233D01*
X114736292Y-73529232D01*
X114713268Y-73520600D01*
X114656504Y-73477958D01*
X114631805Y-73411396D01*
X114631499Y-73402619D01*
X114631499Y-73037768D01*
X114632026Y-73026585D01*
X114633701Y-73019092D01*
X114631561Y-72951001D01*
X114631499Y-72947044D01*
X114631499Y-72919145D01*
X114630995Y-72915154D01*
X114630062Y-72903312D01*
X114628922Y-72867037D01*
X114628673Y-72859112D01*
X114626461Y-72851498D01*
X114626460Y-72851493D01*
X114623022Y-72839660D01*
X114619011Y-72820296D01*
X114617466Y-72808065D01*
X114616473Y-72800204D01*
X114613556Y-72792837D01*
X114613555Y-72792832D01*
X114600197Y-72759093D01*
X114596353Y-72747866D01*
X114586229Y-72713023D01*
X114584017Y-72705408D01*
X114573706Y-72687973D01*
X114565011Y-72670225D01*
X114557551Y-72651384D01*
X114546286Y-72635878D01*
X114531563Y-72615614D01*
X114525047Y-72605694D01*
X114506579Y-72574466D01*
X114506577Y-72574463D01*
X114502541Y-72567639D01*
X114488220Y-72553318D01*
X114475379Y-72538284D01*
X114468130Y-72528307D01*
X114463471Y-72521894D01*
X114457367Y-72516844D01*
X114457362Y-72516839D01*
X114429401Y-72493708D01*
X114420620Y-72485718D01*
X113652403Y-71717500D01*
X113618378Y-71655188D01*
X113615499Y-71628405D01*
X113615499Y-68701595D01*
X113635501Y-68633474D01*
X113652404Y-68612500D01*
X114898246Y-67366658D01*
X114906536Y-67359114D01*
X114913017Y-67355001D01*
X114959658Y-67305333D01*
X114962412Y-67302492D01*
X114982133Y-67282771D01*
X114984611Y-67279576D01*
X114992317Y-67270554D01*
X115017157Y-67244102D01*
X115022585Y-67238322D01*
X115032345Y-67220569D01*
X115043198Y-67204046D01*
X115050752Y-67194307D01*
X115055612Y-67188042D01*
X115073175Y-67147458D01*
X115078382Y-67136828D01*
X115099694Y-67098061D01*
X115101665Y-67090384D01*
X115101667Y-67090379D01*
X115104731Y-67078443D01*
X115111137Y-67059731D01*
X115116033Y-67048418D01*
X115119180Y-67041146D01*
X115122830Y-67018105D01*
X115126096Y-66997482D01*
X115128503Y-66985861D01*
X115137527Y-66950712D01*
X115137527Y-66950711D01*
X115139499Y-66943031D01*
X115139499Y-66922770D01*
X115141050Y-66903059D01*
X115142978Y-66890886D01*
X115144218Y-66883058D01*
X115140058Y-66839047D01*
X115139499Y-66827190D01*
X115139499Y-64492667D01*
X115140026Y-64481484D01*
X115141701Y-64473991D01*
X115139561Y-64405900D01*
X115139499Y-64401943D01*
X115139499Y-64374043D01*
X115138995Y-64370052D01*
X115138062Y-64358210D01*
X115136922Y-64321935D01*
X115136673Y-64314010D01*
X115134461Y-64306396D01*
X115134460Y-64306391D01*
X115131022Y-64294558D01*
X115127011Y-64275194D01*
X115125466Y-64262963D01*
X115124473Y-64255102D01*
X115121556Y-64247735D01*
X115121555Y-64247730D01*
X115108197Y-64213991D01*
X115104353Y-64202764D01*
X115094229Y-64167921D01*
X115092017Y-64160306D01*
X115081706Y-64142871D01*
X115073011Y-64125123D01*
X115065551Y-64106282D01*
X115039563Y-64070512D01*
X115033047Y-64060592D01*
X115014579Y-64029364D01*
X115014577Y-64029361D01*
X115010541Y-64022537D01*
X114996220Y-64008216D01*
X114983379Y-63993182D01*
X114976130Y-63983205D01*
X114971471Y-63976792D01*
X114965367Y-63971742D01*
X114965362Y-63971737D01*
X114937401Y-63948606D01*
X114928620Y-63940616D01*
X114055283Y-63067278D01*
X114021258Y-63004966D01*
X114022672Y-62945573D01*
X114038266Y-62887372D01*
X114038267Y-62887369D01*
X114039691Y-62882054D01*
X114059648Y-62653950D01*
X114039691Y-62425846D01*
X114031688Y-62395977D01*
X113981851Y-62209983D01*
X113981850Y-62209981D01*
X113980428Y-62204673D01*
X113974200Y-62191316D01*
X113885985Y-62002138D01*
X113885982Y-62002133D01*
X113883659Y-61997151D01*
X113752324Y-61809585D01*
X113590415Y-61647676D01*
X113585907Y-61644519D01*
X113585904Y-61644517D01*
X113407358Y-61519498D01*
X113407356Y-61519497D01*
X113402849Y-61516341D01*
X113397867Y-61514018D01*
X113397862Y-61514015D01*
X113200309Y-61421895D01*
X113200308Y-61421894D01*
X113195327Y-61419572D01*
X113190019Y-61418150D01*
X113190017Y-61418149D01*
X112979469Y-61361733D01*
X112979467Y-61361733D01*
X112974154Y-61360309D01*
X112746050Y-61340352D01*
X112517946Y-61360309D01*
X112512633Y-61361733D01*
X112512631Y-61361733D01*
X112302083Y-61418149D01*
X112302081Y-61418150D01*
X112296773Y-61419572D01*
X112291792Y-61421894D01*
X112291791Y-61421895D01*
X112094238Y-61514015D01*
X112094233Y-61514018D01*
X112089251Y-61516341D01*
X112084744Y-61519497D01*
X112084742Y-61519498D01*
X111906196Y-61644517D01*
X111906193Y-61644519D01*
X111901685Y-61647676D01*
X111739776Y-61809585D01*
X111608441Y-61997151D01*
X111606118Y-62002133D01*
X111606115Y-62002138D01*
X111517900Y-62191316D01*
X111511672Y-62204673D01*
X111510250Y-62209981D01*
X111510249Y-62209983D01*
X111460412Y-62395977D01*
X111452409Y-62425846D01*
X111432452Y-62653950D01*
X111452409Y-62882054D01*
X111453833Y-62887367D01*
X111453833Y-62887369D01*
X111502040Y-63067278D01*
X111511672Y-63103227D01*
X111513994Y-63108208D01*
X111513995Y-63108209D01*
X111606115Y-63305762D01*
X111606118Y-63305767D01*
X111608441Y-63310749D01*
X111739776Y-63498315D01*
X111901685Y-63660224D01*
X111906193Y-63663381D01*
X111906196Y-63663383D01*
X111996725Y-63726772D01*
X112089251Y-63791559D01*
X112094233Y-63793882D01*
X112094238Y-63793885D01*
X112279572Y-63880307D01*
X112296773Y-63888328D01*
X112302081Y-63889750D01*
X112302083Y-63889751D01*
X112512631Y-63946167D01*
X112512633Y-63946167D01*
X112517946Y-63947591D01*
X112746050Y-63967548D01*
X112974154Y-63947591D01*
X112979465Y-63946168D01*
X112979476Y-63946166D01*
X113037671Y-63930572D01*
X113108647Y-63932261D01*
X113159379Y-63963183D01*
X113502586Y-64306391D01*
X113835595Y-64639400D01*
X113869620Y-64701712D01*
X113872499Y-64728495D01*
X113872499Y-65217671D01*
X113852497Y-65285792D01*
X113798841Y-65332285D01*
X113728567Y-65342389D01*
X113663987Y-65312895D01*
X113657404Y-65306766D01*
X113590415Y-65239777D01*
X113558845Y-65217671D01*
X113459350Y-65148004D01*
X113402850Y-65108442D01*
X113397868Y-65106119D01*
X113397863Y-65106116D01*
X113200309Y-65013996D01*
X113200308Y-65013996D01*
X113195327Y-65011673D01*
X113190019Y-65010251D01*
X113190017Y-65010250D01*
X112979469Y-64953834D01*
X112979467Y-64953834D01*
X112974154Y-64952410D01*
X112746050Y-64932453D01*
X112517946Y-64952410D01*
X112512633Y-64953834D01*
X112512631Y-64953834D01*
X112302083Y-65010250D01*
X112302081Y-65010251D01*
X112296773Y-65011673D01*
X112291792Y-65013995D01*
X112291791Y-65013996D01*
X112094238Y-65106116D01*
X112094233Y-65106119D01*
X112089251Y-65108442D01*
X112084744Y-65111598D01*
X112084742Y-65111599D01*
X111906196Y-65236618D01*
X111906193Y-65236620D01*
X111901685Y-65239777D01*
X111739775Y-65401687D01*
X111736618Y-65406195D01*
X111736616Y-65406198D01*
X111728479Y-65417819D01*
X111608440Y-65589253D01*
X111606117Y-65594235D01*
X111606114Y-65594240D01*
X111513994Y-65791793D01*
X111511671Y-65796775D01*
X111452408Y-66017948D01*
X111432451Y-66246052D01*
X111452408Y-66474156D01*
X111453832Y-66479471D01*
X111453833Y-66479474D01*
X111470952Y-66543367D01*
X111469262Y-66614344D01*
X111452432Y-66647567D01*
X111449413Y-66650782D01*
X111445597Y-66657722D01*
X111445594Y-66657727D01*
X111439651Y-66668537D01*
X111428800Y-66685056D01*
X111416385Y-66701062D01*
X111413240Y-66708331D01*
X111413237Y-66708335D01*
X111398825Y-66741640D01*
X111393608Y-66752290D01*
X111372304Y-66791043D01*
X111370333Y-66798718D01*
X111370333Y-66798719D01*
X111367266Y-66810665D01*
X111360862Y-66829369D01*
X111358023Y-66835931D01*
X111352818Y-66847958D01*
X111351579Y-66855781D01*
X111351576Y-66855791D01*
X111345900Y-66891627D01*
X111343494Y-66903247D01*
X111332499Y-66946073D01*
X111332499Y-66966327D01*
X111330948Y-66986037D01*
X111327779Y-67006046D01*
X111328525Y-67013938D01*
X111331940Y-67050064D01*
X111332499Y-67061922D01*
X111332499Y-73402619D01*
X111312497Y-73470740D01*
X111258841Y-73517233D01*
X111250730Y-73520600D01*
X111227706Y-73529232D01*
X111227703Y-73529233D01*
X111219294Y-73532386D01*
X111102738Y-73619740D01*
X111097357Y-73626920D01*
X111097356Y-73626921D01*
X111050825Y-73689007D01*
X110993966Y-73731522D01*
X110923147Y-73736548D01*
X110860854Y-73702488D01*
X110849173Y-73689007D01*
X110802642Y-73626921D01*
X110802641Y-73626920D01*
X110797260Y-73619740D01*
X110680704Y-73532386D01*
X110672295Y-73529233D01*
X110672292Y-73529232D01*
X110649268Y-73520600D01*
X110592504Y-73477958D01*
X110567805Y-73411396D01*
X110567499Y-73402619D01*
X110567499Y-67104871D01*
X110568026Y-67093688D01*
X110569701Y-67086195D01*
X110568566Y-67050064D01*
X110567561Y-67018105D01*
X110567499Y-67014147D01*
X110567499Y-66986247D01*
X110566995Y-66982256D01*
X110566062Y-66970414D01*
X110565547Y-66954002D01*
X110564673Y-66926214D01*
X110562461Y-66918600D01*
X110562460Y-66918595D01*
X110559022Y-66906762D01*
X110555011Y-66887398D01*
X110554460Y-66883032D01*
X110552473Y-66867306D01*
X110549556Y-66859939D01*
X110549555Y-66859934D01*
X110536197Y-66826195D01*
X110532353Y-66814968D01*
X110526745Y-66795666D01*
X110520017Y-66772510D01*
X110509706Y-66755075D01*
X110501011Y-66737327D01*
X110493551Y-66718486D01*
X110467563Y-66682716D01*
X110461047Y-66672796D01*
X110442119Y-66640791D01*
X110424659Y-66571975D01*
X110428865Y-66544040D01*
X110446166Y-66479471D01*
X110446166Y-66479470D01*
X110447590Y-66474156D01*
X110467547Y-66246052D01*
X110447590Y-66017948D01*
X110388327Y-65796775D01*
X110386004Y-65791793D01*
X110293884Y-65594240D01*
X110293881Y-65594235D01*
X110291558Y-65589253D01*
X110171519Y-65417819D01*
X110163382Y-65406198D01*
X110163380Y-65406195D01*
X110160223Y-65401687D01*
X109998313Y-65239777D01*
X109966743Y-65217671D01*
X109867248Y-65148004D01*
X109810748Y-65108442D01*
X109805766Y-65106119D01*
X109805761Y-65106116D01*
X109608207Y-65013996D01*
X109608206Y-65013996D01*
X109603225Y-65011673D01*
X109597917Y-65010251D01*
X109597915Y-65010250D01*
X109387367Y-64953834D01*
X109387365Y-64953834D01*
X109382052Y-64952410D01*
X109153948Y-64932453D01*
X108925844Y-64952410D01*
X108920531Y-64953834D01*
X108920529Y-64953834D01*
X108709981Y-65010250D01*
X108709979Y-65010251D01*
X108704671Y-65011673D01*
X108699690Y-65013995D01*
X108699689Y-65013996D01*
X108502136Y-65106116D01*
X108502131Y-65106119D01*
X108497149Y-65108442D01*
X108492642Y-65111598D01*
X108492640Y-65111599D01*
X108314094Y-65236618D01*
X108314091Y-65236620D01*
X108309583Y-65239777D01*
X108190349Y-65359011D01*
X108128037Y-65393037D01*
X108057222Y-65387972D01*
X108000386Y-65345425D01*
X107983410Y-65308206D01*
X107981523Y-65308836D01*
X107927865Y-65148004D01*
X107925547Y-65141056D01*
X107832475Y-64990654D01*
X107707300Y-64865697D01*
X107702762Y-64862900D01*
X107662173Y-64805649D01*
X107658943Y-64734726D01*
X107694569Y-64673315D01*
X107703065Y-64665940D01*
X107713204Y-64657904D01*
X107827736Y-64543173D01*
X107836748Y-64531762D01*
X107921813Y-64393759D01*
X107927960Y-64380578D01*
X107979135Y-64226292D01*
X107982002Y-64212916D01*
X107991669Y-64118564D01*
X107991997Y-64112148D01*
X107991997Y-63918016D01*
X108011999Y-63849895D01*
X108065655Y-63803402D01*
X108135929Y-63793298D01*
X108199828Y-63822205D01*
X108261065Y-63874507D01*
X108269049Y-63880307D01*
X108462990Y-63999155D01*
X108471785Y-64003637D01*
X108681940Y-64090686D01*
X108691314Y-64093732D01*
X108882333Y-64139592D01*
X108896417Y-64138887D01*
X108899948Y-64130006D01*
X108899948Y-64082908D01*
X108919950Y-64014787D01*
X108973606Y-63968294D01*
X109036930Y-63957388D01*
X109148391Y-63967140D01*
X109148402Y-63967140D01*
X109153877Y-63967619D01*
X109159352Y-63967140D01*
X109270966Y-63957375D01*
X109340571Y-63971364D01*
X109391564Y-64020764D01*
X109407948Y-64082896D01*
X109407948Y-64125706D01*
X109411921Y-64139237D01*
X109421379Y-64140597D01*
X109616582Y-64093732D01*
X109625956Y-64090686D01*
X109836111Y-64003637D01*
X109844906Y-63999155D01*
X110038847Y-63880307D01*
X110046831Y-63874507D01*
X110219806Y-63726772D01*
X110226770Y-63719808D01*
X110374505Y-63546833D01*
X110380305Y-63538849D01*
X110499153Y-63344908D01*
X110503635Y-63336113D01*
X110590684Y-63125958D01*
X110593730Y-63116584D01*
X110639590Y-62925565D01*
X110638885Y-62911481D01*
X110630004Y-62907950D01*
X110582765Y-62907950D01*
X110514644Y-62887948D01*
X110468151Y-62834292D01*
X110457245Y-62770968D01*
X110466997Y-62659506D01*
X110466997Y-62659495D01*
X110467476Y-62654020D01*
X110457232Y-62536932D01*
X110471221Y-62467327D01*
X110520621Y-62416335D01*
X110582753Y-62399950D01*
X110625704Y-62399950D01*
X110639235Y-62395977D01*
X110640595Y-62386519D01*
X110593730Y-62191316D01*
X110590684Y-62181942D01*
X110503635Y-61971787D01*
X110499153Y-61962992D01*
X110380305Y-61769051D01*
X110374505Y-61761067D01*
X110226770Y-61588092D01*
X110219806Y-61581128D01*
X110046831Y-61433393D01*
X110038847Y-61427593D01*
X109844906Y-61308745D01*
X109836111Y-61304263D01*
X109625956Y-61217214D01*
X109616582Y-61214168D01*
X109425563Y-61168308D01*
X109411479Y-61169013D01*
X109407948Y-61177894D01*
X109407948Y-61225144D01*
X109387946Y-61293265D01*
X109334290Y-61339758D01*
X109270966Y-61350665D01*
X109159352Y-61340900D01*
X109153877Y-61340421D01*
X109148402Y-61340900D01*
X109148391Y-61340900D01*
X109036930Y-61350652D01*
X108967325Y-61336664D01*
X108916333Y-61287265D01*
X108899948Y-61225132D01*
X108899948Y-61182194D01*
X108895975Y-61168663D01*
X108886517Y-61167303D01*
X108691314Y-61214168D01*
X108681940Y-61217214D01*
X108471785Y-61304263D01*
X108462990Y-61308745D01*
X108269049Y-61427593D01*
X108261065Y-61433393D01*
X108088090Y-61581128D01*
X108081126Y-61588092D01*
X107933391Y-61761067D01*
X107927591Y-61769051D01*
X107808743Y-61962992D01*
X107804261Y-61971787D01*
X107717212Y-62181942D01*
X107714166Y-62191316D01*
X107668306Y-62382335D01*
X107669011Y-62396419D01*
X107677892Y-62399950D01*
X107725001Y-62399950D01*
X107793122Y-62419952D01*
X107839615Y-62473608D01*
X107850522Y-62536932D01*
X107840278Y-62654020D01*
X107840757Y-62659495D01*
X107840757Y-62659506D01*
X107850509Y-62770968D01*
X107836521Y-62840573D01*
X107787122Y-62891565D01*
X107724989Y-62907950D01*
X107664078Y-62907950D01*
X107664078Y-62905969D01*
X107617948Y-62905970D01*
X107587327Y-62892333D01*
X107562752Y-62877185D01*
X107549573Y-62871039D01*
X107395287Y-62819864D01*
X107381911Y-62816997D01*
X107287559Y-62807330D01*
X107281142Y-62807002D01*
X107031112Y-62807002D01*
X107015873Y-62811477D01*
X107014668Y-62812867D01*
X107012997Y-62820550D01*
X107012997Y-63943002D01*
X106992995Y-64011123D01*
X106939339Y-64057616D01*
X106886997Y-64069002D01*
X105544113Y-64069002D01*
X105528874Y-64073477D01*
X105527669Y-64074867D01*
X105525998Y-64082550D01*
X105525998Y-64112097D01*
X105526335Y-64118616D01*
X105536254Y-64214208D01*
X105539146Y-64227602D01*
X105590585Y-64381786D01*
X105596758Y-64394964D01*
X105682060Y-64532809D01*
X105691096Y-64544210D01*
X105805825Y-64658740D01*
X105814759Y-64665796D01*
X105855820Y-64723714D01*
X105859050Y-64794637D01*
X105823423Y-64856048D01*
X105815590Y-64862848D01*
X105809649Y-64866524D01*
X105684692Y-64991699D01*
X105591882Y-65142264D01*
X105536200Y-65310141D01*
X105525497Y-65414602D01*
X105525497Y-66015402D01*
X105108499Y-66015402D01*
X105108499Y-63542887D01*
X105525997Y-63542887D01*
X105530472Y-63558126D01*
X105531862Y-63559331D01*
X105539545Y-63561002D01*
X106486882Y-63561002D01*
X106502121Y-63556527D01*
X106503326Y-63555137D01*
X106504997Y-63547454D01*
X106504997Y-62825118D01*
X106500522Y-62809879D01*
X106499132Y-62808674D01*
X106491449Y-62807003D01*
X106236902Y-62807003D01*
X106230383Y-62807340D01*
X106134791Y-62817259D01*
X106121397Y-62820151D01*
X105967213Y-62871590D01*
X105954035Y-62877763D01*
X105816190Y-62963065D01*
X105804789Y-62972101D01*
X105690258Y-63086831D01*
X105681246Y-63098242D01*
X105596181Y-63236245D01*
X105590034Y-63249426D01*
X105538859Y-63403712D01*
X105535992Y-63417088D01*
X105526325Y-63511440D01*
X105525997Y-63517857D01*
X105525997Y-63542887D01*
X105108499Y-63542887D01*
X105108499Y-58734501D01*
X105128501Y-58666380D01*
X105182157Y-58619887D01*
X105234499Y-58608501D01*
X116665499Y-58608501D01*
X116733620Y-58628503D01*
G37*
G04 #@! TD.AperFunction*
M02*
