G04 #@! TF.GenerationSoftware,KiCad,Pcbnew,(6.0.7)*
G04 #@! TF.CreationDate,2022-08-12T15:34:28-07:00*
G04 #@! TF.ProjectId,mlx90614-breakout,6d6c7839-3036-4313-942d-627265616b6f,rev?*
G04 #@! TF.SameCoordinates,Original*
G04 #@! TF.FileFunction,Legend,Top*
G04 #@! TF.FilePolarity,Positive*
%FSLAX46Y46*%
G04 Gerber Fmt 4.6, Leading zero omitted, Abs format (unit mm)*
G04 Created by KiCad (PCBNEW (6.0.7)) date 2022-08-12 15:34:28*
%MOMM*%
%LPD*%
G01*
G04 APERTURE LIST*
%ADD10C,0.050000*%
%ADD11C,0.100000*%
%ADD12C,0.075000*%
%ADD13C,0.125000*%
%ADD14C,0.120000*%
%ADD15C,0.203200*%
G04 APERTURE END LIST*
D10*
X116148284Y-82707715D02*
X116133999Y-82693429D01*
X116119713Y-82664858D01*
X116119713Y-82593429D01*
X116133999Y-82564858D01*
X116148284Y-82550572D01*
X116176856Y-82536286D01*
X116205427Y-82536286D01*
X116248284Y-82550572D01*
X116419713Y-82722001D01*
X116419713Y-82536286D01*
X116119713Y-82350572D02*
X116119713Y-82322001D01*
X116133999Y-82293429D01*
X116148284Y-82279143D01*
X116176856Y-82264858D01*
X116233999Y-82250572D01*
X116305427Y-82250572D01*
X116362570Y-82264858D01*
X116391141Y-82279143D01*
X116405427Y-82293429D01*
X116419713Y-82322001D01*
X116419713Y-82350572D01*
X116405427Y-82379143D01*
X116391141Y-82393429D01*
X116362570Y-82407715D01*
X116305427Y-82422001D01*
X116233999Y-82422001D01*
X116176856Y-82407715D01*
X116148284Y-82393429D01*
X116133999Y-82379143D01*
X116119713Y-82350572D01*
X116148284Y-82136286D02*
X116133999Y-82122001D01*
X116119713Y-82093429D01*
X116119713Y-82022001D01*
X116133999Y-81993429D01*
X116148284Y-81979143D01*
X116176856Y-81964858D01*
X116205427Y-81964858D01*
X116248284Y-81979143D01*
X116419713Y-82150572D01*
X116419713Y-81964858D01*
X116148284Y-81850572D02*
X116133999Y-81836286D01*
X116119713Y-81807715D01*
X116119713Y-81736286D01*
X116133999Y-81707715D01*
X116148284Y-81693429D01*
X116176856Y-81679143D01*
X116205427Y-81679143D01*
X116248284Y-81693429D01*
X116419713Y-81864858D01*
X116419713Y-81679143D01*
X116305427Y-81550572D02*
X116305427Y-81322001D01*
X116119713Y-81122001D02*
X116119713Y-81093429D01*
X116133999Y-81064858D01*
X116148284Y-81050572D01*
X116176856Y-81036286D01*
X116233999Y-81022001D01*
X116305427Y-81022001D01*
X116362570Y-81036286D01*
X116391141Y-81050572D01*
X116405427Y-81064858D01*
X116419713Y-81093429D01*
X116419713Y-81122001D01*
X116405427Y-81150572D01*
X116391141Y-81164858D01*
X116362570Y-81179143D01*
X116305427Y-81193429D01*
X116233999Y-81193429D01*
X116176856Y-81179143D01*
X116148284Y-81164858D01*
X116133999Y-81150572D01*
X116119713Y-81122001D01*
X116248284Y-80850572D02*
X116233999Y-80879143D01*
X116219713Y-80893429D01*
X116191141Y-80907715D01*
X116176856Y-80907715D01*
X116148284Y-80893429D01*
X116133999Y-80879143D01*
X116119713Y-80850572D01*
X116119713Y-80793429D01*
X116133999Y-80764858D01*
X116148284Y-80750572D01*
X116176856Y-80736286D01*
X116191141Y-80736286D01*
X116219713Y-80750572D01*
X116233999Y-80764858D01*
X116248284Y-80793429D01*
X116248284Y-80850572D01*
X116262570Y-80879143D01*
X116276856Y-80893429D01*
X116305427Y-80907715D01*
X116362570Y-80907715D01*
X116391141Y-80893429D01*
X116405427Y-80879143D01*
X116419713Y-80850572D01*
X116419713Y-80793429D01*
X116405427Y-80764858D01*
X116391141Y-80750572D01*
X116362570Y-80736286D01*
X116305427Y-80736286D01*
X116276856Y-80750572D01*
X116262570Y-80764858D01*
X116248284Y-80793429D01*
D11*
X106549999Y-59641429D02*
X106549999Y-59241429D01*
X106549999Y-59298572D02*
X106578570Y-59270001D01*
X106635713Y-59241429D01*
X106721427Y-59241429D01*
X106778570Y-59270001D01*
X106807141Y-59327143D01*
X106807141Y-59641429D01*
X106807141Y-59327143D02*
X106835713Y-59270001D01*
X106892856Y-59241429D01*
X106978570Y-59241429D01*
X107035713Y-59270001D01*
X107064284Y-59327143D01*
X107064284Y-59641429D01*
X107435713Y-59641429D02*
X107378570Y-59612858D01*
X107349999Y-59555715D01*
X107349999Y-59041429D01*
X107607141Y-59641429D02*
X107921427Y-59241429D01*
X107607141Y-59241429D02*
X107921427Y-59641429D01*
X108178570Y-59641429D02*
X108292856Y-59641429D01*
X108349999Y-59612858D01*
X108378570Y-59584286D01*
X108435713Y-59498572D01*
X108464284Y-59384286D01*
X108464284Y-59155715D01*
X108435713Y-59098572D01*
X108407141Y-59070001D01*
X108349999Y-59041429D01*
X108235713Y-59041429D01*
X108178570Y-59070001D01*
X108149999Y-59098572D01*
X108121427Y-59155715D01*
X108121427Y-59298572D01*
X108149999Y-59355715D01*
X108178570Y-59384286D01*
X108235713Y-59412858D01*
X108349999Y-59412858D01*
X108407141Y-59384286D01*
X108435713Y-59355715D01*
X108464284Y-59298572D01*
X108835713Y-59041429D02*
X108892856Y-59041429D01*
X108949999Y-59070001D01*
X108978570Y-59098572D01*
X109007141Y-59155715D01*
X109035713Y-59270001D01*
X109035713Y-59412858D01*
X109007141Y-59527143D01*
X108978570Y-59584286D01*
X108949999Y-59612858D01*
X108892856Y-59641429D01*
X108835713Y-59641429D01*
X108778570Y-59612858D01*
X108749999Y-59584286D01*
X108721427Y-59527143D01*
X108692856Y-59412858D01*
X108692856Y-59270001D01*
X108721427Y-59155715D01*
X108749999Y-59098572D01*
X108778570Y-59070001D01*
X108835713Y-59041429D01*
X109549999Y-59041429D02*
X109435713Y-59041429D01*
X109378570Y-59070001D01*
X109349999Y-59098572D01*
X109292856Y-59184286D01*
X109264284Y-59298572D01*
X109264284Y-59527143D01*
X109292856Y-59584286D01*
X109321427Y-59612858D01*
X109378570Y-59641429D01*
X109492856Y-59641429D01*
X109549999Y-59612858D01*
X109578570Y-59584286D01*
X109607141Y-59527143D01*
X109607141Y-59384286D01*
X109578570Y-59327143D01*
X109549999Y-59298572D01*
X109492856Y-59270001D01*
X109378570Y-59270001D01*
X109321427Y-59298572D01*
X109292856Y-59327143D01*
X109264284Y-59384286D01*
X110178570Y-59641429D02*
X109835713Y-59641429D01*
X110007141Y-59641429D02*
X110007141Y-59041429D01*
X109949999Y-59127143D01*
X109892856Y-59184286D01*
X109835713Y-59212858D01*
X110692856Y-59241429D02*
X110692856Y-59641429D01*
X110549999Y-59012858D02*
X110407141Y-59441429D01*
X110778570Y-59441429D01*
X111007141Y-59412858D02*
X111464284Y-59412858D01*
X111749999Y-59641429D02*
X111749999Y-59041429D01*
X111749999Y-59270001D02*
X111807141Y-59241429D01*
X111921427Y-59241429D01*
X111978570Y-59270001D01*
X112007141Y-59298572D01*
X112035713Y-59355715D01*
X112035713Y-59527143D01*
X112007141Y-59584286D01*
X111978570Y-59612858D01*
X111921427Y-59641429D01*
X111807141Y-59641429D01*
X111749999Y-59612858D01*
X112292856Y-59641429D02*
X112292856Y-59241429D01*
X112292856Y-59355715D02*
X112321427Y-59298572D01*
X112349999Y-59270001D01*
X112407141Y-59241429D01*
X112464284Y-59241429D01*
X112892856Y-59612858D02*
X112835713Y-59641429D01*
X112721427Y-59641429D01*
X112664284Y-59612858D01*
X112635713Y-59555715D01*
X112635713Y-59327143D01*
X112664284Y-59270001D01*
X112721427Y-59241429D01*
X112835713Y-59241429D01*
X112892856Y-59270001D01*
X112921427Y-59327143D01*
X112921427Y-59384286D01*
X112635713Y-59441429D01*
X113435713Y-59641429D02*
X113435713Y-59327143D01*
X113407141Y-59270001D01*
X113349999Y-59241429D01*
X113235713Y-59241429D01*
X113178570Y-59270001D01*
X113435713Y-59612858D02*
X113378570Y-59641429D01*
X113235713Y-59641429D01*
X113178570Y-59612858D01*
X113149999Y-59555715D01*
X113149999Y-59498572D01*
X113178570Y-59441429D01*
X113235713Y-59412858D01*
X113378570Y-59412858D01*
X113435713Y-59384286D01*
X113721427Y-59641429D02*
X113721427Y-59041429D01*
X113778570Y-59412858D02*
X113949999Y-59641429D01*
X113949999Y-59241429D02*
X113721427Y-59470001D01*
X114292856Y-59641429D02*
X114235713Y-59612858D01*
X114207141Y-59584286D01*
X114178570Y-59527143D01*
X114178570Y-59355715D01*
X114207141Y-59298572D01*
X114235713Y-59270001D01*
X114292856Y-59241429D01*
X114378570Y-59241429D01*
X114435713Y-59270001D01*
X114464284Y-59298572D01*
X114492856Y-59355715D01*
X114492856Y-59527143D01*
X114464284Y-59584286D01*
X114435713Y-59612858D01*
X114378570Y-59641429D01*
X114292856Y-59641429D01*
X115007141Y-59241429D02*
X115007141Y-59641429D01*
X114749999Y-59241429D02*
X114749999Y-59555715D01*
X114778570Y-59612858D01*
X114835713Y-59641429D01*
X114921427Y-59641429D01*
X114978570Y-59612858D01*
X115007141Y-59584286D01*
X115207141Y-59241429D02*
X115435713Y-59241429D01*
X115292856Y-59041429D02*
X115292856Y-59555715D01*
X115321427Y-59612858D01*
X115378570Y-59641429D01*
X115435713Y-59641429D01*
D12*
X113402760Y-73542381D02*
X113474189Y-73566191D01*
X113593237Y-73566191D01*
X113640856Y-73542381D01*
X113664665Y-73518572D01*
X113688475Y-73470953D01*
X113688475Y-73423334D01*
X113664665Y-73375715D01*
X113640856Y-73351905D01*
X113593237Y-73328096D01*
X113497999Y-73304286D01*
X113450379Y-73280477D01*
X113426570Y-73256667D01*
X113402760Y-73209048D01*
X113402760Y-73161429D01*
X113426570Y-73113810D01*
X113450379Y-73090001D01*
X113497999Y-73066191D01*
X113617046Y-73066191D01*
X113688475Y-73090001D01*
X114188475Y-73518572D02*
X114164665Y-73542381D01*
X114093237Y-73566191D01*
X114045618Y-73566191D01*
X113974189Y-73542381D01*
X113926570Y-73494762D01*
X113902760Y-73447143D01*
X113878951Y-73351905D01*
X113878951Y-73280477D01*
X113902760Y-73185239D01*
X113926570Y-73137620D01*
X113974189Y-73090001D01*
X114045618Y-73066191D01*
X114093237Y-73066191D01*
X114164665Y-73090001D01*
X114188475Y-73113810D01*
X114640856Y-73566191D02*
X114402760Y-73566191D01*
X114402760Y-73066191D01*
X107521046Y-73090001D02*
X107473427Y-73066191D01*
X107401999Y-73066191D01*
X107330570Y-73090001D01*
X107282951Y-73137620D01*
X107259141Y-73185239D01*
X107235332Y-73280477D01*
X107235332Y-73351905D01*
X107259141Y-73447143D01*
X107282951Y-73494762D01*
X107330570Y-73542381D01*
X107401999Y-73566191D01*
X107449618Y-73566191D01*
X107521046Y-73542381D01*
X107544856Y-73518572D01*
X107544856Y-73351905D01*
X107449618Y-73351905D01*
X107759141Y-73566191D02*
X107759141Y-73066191D01*
X108044856Y-73566191D01*
X108044856Y-73066191D01*
X108282951Y-73566191D02*
X108282951Y-73066191D01*
X108401999Y-73066191D01*
X108473427Y-73090001D01*
X108521046Y-73137620D01*
X108544856Y-73185239D01*
X108568665Y-73280477D01*
X108568665Y-73351905D01*
X108544856Y-73447143D01*
X108521046Y-73494762D01*
X108473427Y-73542381D01*
X108401999Y-73566191D01*
X108282951Y-73566191D01*
X113704332Y-77638191D02*
X113704332Y-77995334D01*
X113680522Y-78066762D01*
X113632903Y-78114381D01*
X113561475Y-78138191D01*
X113513856Y-78138191D01*
X114204332Y-78138191D02*
X113918618Y-78138191D01*
X114061475Y-78138191D02*
X114061475Y-77638191D01*
X114013856Y-77709620D01*
X113966237Y-77757239D01*
X113918618Y-77781048D01*
X109267332Y-73066191D02*
X109433999Y-73566191D01*
X109600665Y-73066191D01*
X109767332Y-73566191D02*
X109767332Y-73066191D01*
X109886379Y-73066191D01*
X109957808Y-73090001D01*
X110005427Y-73137620D01*
X110029237Y-73185239D01*
X110053046Y-73280477D01*
X110053046Y-73351905D01*
X110029237Y-73447143D01*
X110005427Y-73494762D01*
X109957808Y-73542381D01*
X109886379Y-73566191D01*
X109767332Y-73566191D01*
X110267332Y-73566191D02*
X110267332Y-73066191D01*
X110386379Y-73066191D01*
X110457808Y-73090001D01*
X110505427Y-73137620D01*
X110529237Y-73185239D01*
X110553046Y-73280477D01*
X110553046Y-73351905D01*
X110529237Y-73447143D01*
X110505427Y-73494762D01*
X110457808Y-73542381D01*
X110386379Y-73566191D01*
X110267332Y-73566191D01*
D13*
X106937570Y-62247334D02*
X106961379Y-62271143D01*
X106985189Y-62342572D01*
X106985189Y-62390191D01*
X106961379Y-62461620D01*
X106913760Y-62509239D01*
X106866141Y-62533048D01*
X106770903Y-62556858D01*
X106699475Y-62556858D01*
X106604237Y-62533048D01*
X106556618Y-62509239D01*
X106508999Y-62461620D01*
X106485189Y-62390191D01*
X106485189Y-62342572D01*
X106508999Y-62271143D01*
X106532808Y-62247334D01*
X106985189Y-61771143D02*
X106985189Y-62056858D01*
X106985189Y-61914001D02*
X106485189Y-61914001D01*
X106556618Y-61961620D01*
X106604237Y-62009239D01*
X106628046Y-62056858D01*
D12*
X111358856Y-73542381D02*
X111430284Y-73566191D01*
X111549332Y-73566191D01*
X111596951Y-73542381D01*
X111620760Y-73518572D01*
X111644570Y-73470953D01*
X111644570Y-73423334D01*
X111620760Y-73375715D01*
X111596951Y-73351905D01*
X111549332Y-73328096D01*
X111454094Y-73304286D01*
X111406475Y-73280477D01*
X111382665Y-73256667D01*
X111358856Y-73209048D01*
X111358856Y-73161429D01*
X111382665Y-73113810D01*
X111406475Y-73090001D01*
X111454094Y-73066191D01*
X111573141Y-73066191D01*
X111644570Y-73090001D01*
X111858856Y-73566191D02*
X111858856Y-73066191D01*
X111977903Y-73066191D01*
X112049332Y-73090001D01*
X112096951Y-73137620D01*
X112120760Y-73185239D01*
X112144570Y-73280477D01*
X112144570Y-73351905D01*
X112120760Y-73447143D01*
X112096951Y-73494762D01*
X112049332Y-73542381D01*
X111977903Y-73566191D01*
X111858856Y-73566191D01*
X112335046Y-73423334D02*
X112573141Y-73423334D01*
X112287427Y-73566191D02*
X112454094Y-73066191D01*
X112620760Y-73566191D01*
D14*
X114697999Y-73783001D02*
X114697999Y-75183001D01*
X114697999Y-75183001D02*
X113297999Y-75183001D01*
X113297999Y-75183001D02*
X113297999Y-73783001D01*
X113297999Y-73783001D02*
X114697999Y-73783001D01*
X108601999Y-75183001D02*
X107201999Y-75183001D01*
X108601999Y-73783001D02*
X108601999Y-75183001D01*
X107201999Y-73783001D02*
X108601999Y-73783001D01*
X107201999Y-75183001D02*
X107201999Y-73783001D01*
D15*
X107943999Y-80428001D02*
X107943999Y-78778001D01*
X107943999Y-78778001D02*
X108693999Y-78778001D01*
X113193999Y-78778001D02*
X113943999Y-78778001D01*
X113943999Y-78778001D02*
X113943999Y-80428001D01*
X109443999Y-83028001D02*
X112443999Y-83028001D01*
X108545599Y-78128001D02*
G75*
G03*
X108545599Y-78128001I-101600J0D01*
G01*
D14*
X110633999Y-73783001D02*
X110633999Y-75183001D01*
X110633999Y-75183001D02*
X109233999Y-75183001D01*
X109233999Y-75183001D02*
X109233999Y-73783001D01*
X109233999Y-73783001D02*
X110633999Y-73783001D01*
X106023997Y-65026254D02*
X106023997Y-64503750D01*
X107493997Y-65026254D02*
X107493997Y-64503750D01*
X112665999Y-75183001D02*
X111265999Y-75183001D01*
X111265999Y-73783001D02*
X112665999Y-73783001D01*
X111265999Y-75183001D02*
X111265999Y-73783001D01*
X112665999Y-73783001D02*
X112665999Y-75183001D01*
M02*
