G04 #@! TF.GenerationSoftware,KiCad,Pcbnew,(6.0.7)*
G04 #@! TF.CreationDate,2022-08-12T15:34:28-07:00*
G04 #@! TF.ProjectId,mlx90614-breakout,6d6c7839-3036-4313-942d-627265616b6f,rev?*
G04 #@! TF.SameCoordinates,Original*
G04 #@! TF.FileFunction,Copper,L2,Bot*
G04 #@! TF.FilePolarity,Positive*
%FSLAX46Y46*%
G04 Gerber Fmt 4.6, Leading zero omitted, Abs format (unit mm)*
G04 Created by KiCad (PCBNEW (6.0.7)) date 2022-08-12 15:34:28*
%MOMM*%
%LPD*%
G01*
G04 APERTURE LIST*
G04 #@! TA.AperFunction,EtchedComponent*
%ADD10C,0.010000*%
G04 #@! TD*
G04 #@! TA.AperFunction,ComponentPad*
%ADD11C,0.700000*%
G04 #@! TD*
G04 #@! TA.AperFunction,ComponentPad*
%ADD12C,2.000000*%
G04 #@! TD*
G04 APERTURE END LIST*
G36*
X111839849Y-75194201D02*
G01*
X111662049Y-75194201D01*
X111662049Y-74102001D01*
X111839849Y-74102001D01*
X111839849Y-75194201D01*
G37*
D10*
X111839849Y-75194201D02*
X111662049Y-75194201D01*
X111662049Y-74102001D01*
X111839849Y-74102001D01*
X111839849Y-75194201D01*
G36*
X109797689Y-74279801D02*
G01*
X109614809Y-74279801D01*
X109614809Y-74102001D01*
X109797689Y-74102001D01*
X109797689Y-74279801D01*
G37*
X109797689Y-74279801D02*
X109614809Y-74279801D01*
X109614809Y-74102001D01*
X109797689Y-74102001D01*
X109797689Y-74279801D01*
G36*
X110672574Y-74486811D02*
G01*
X110623496Y-74549379D01*
X110580603Y-74604303D01*
X110543695Y-74651845D01*
X110512576Y-74692265D01*
X110487048Y-74725825D01*
X110466913Y-74752787D01*
X110451973Y-74773413D01*
X110442031Y-74787963D01*
X110436890Y-74796699D01*
X110436111Y-74799699D01*
X110439816Y-74804815D01*
X110449083Y-74817170D01*
X110463289Y-74835945D01*
X110481810Y-74860321D01*
X110504022Y-74889477D01*
X110529301Y-74922593D01*
X110557024Y-74958850D01*
X110584711Y-74995007D01*
X110614099Y-75033413D01*
X110641565Y-75069414D01*
X110666495Y-75102197D01*
X110688272Y-75130948D01*
X110706284Y-75154853D01*
X110719914Y-75173099D01*
X110728548Y-75184873D01*
X110731562Y-75189317D01*
X110727250Y-75191012D01*
X110713538Y-75192383D01*
X110691183Y-75193395D01*
X110660941Y-75194012D01*
X110627038Y-75194201D01*
X110520820Y-75194201D01*
X110427224Y-75073836D01*
X110403468Y-75043279D01*
X110381581Y-75015112D01*
X110362383Y-74990394D01*
X110346696Y-74970181D01*
X110335339Y-74955529D01*
X110329133Y-74947497D01*
X110328363Y-74946489D01*
X110325484Y-74946213D01*
X110319873Y-74950276D01*
X110311001Y-74959292D01*
X110298341Y-74973877D01*
X110281364Y-74994644D01*
X110259540Y-75022209D01*
X110232342Y-75057187D01*
X110224879Y-75066853D01*
X110126661Y-75194201D01*
X110020595Y-75194201D01*
X109989015Y-75194027D01*
X109961187Y-75193542D01*
X109938599Y-75192799D01*
X109922736Y-75191852D01*
X109915086Y-75190753D01*
X109914614Y-75190391D01*
X109917635Y-75185722D01*
X109926265Y-75173803D01*
X109939903Y-75155429D01*
X109957953Y-75131393D01*
X109979814Y-75102489D01*
X110004889Y-75069511D01*
X110032579Y-75033252D01*
X110062284Y-74994508D01*
X110064400Y-74991754D01*
X110099117Y-74946499D01*
X110128056Y-74908584D01*
X110151690Y-74877337D01*
X110170490Y-74852088D01*
X110184930Y-74832166D01*
X110195482Y-74816901D01*
X110202618Y-74805622D01*
X110206812Y-74797658D01*
X110208536Y-74792340D01*
X110208261Y-74788995D01*
X110207825Y-74788227D01*
X110203385Y-74782348D01*
X110193456Y-74769369D01*
X110178761Y-74750231D01*
X110160022Y-74725872D01*
X110137963Y-74697233D01*
X110113307Y-74665254D01*
X110086776Y-74630873D01*
X110083439Y-74626549D01*
X110057014Y-74592250D01*
X110032649Y-74560483D01*
X110011021Y-74532140D01*
X109992806Y-74508114D01*
X109978681Y-74489299D01*
X109969322Y-74476586D01*
X109965405Y-74470870D01*
X109965329Y-74470666D01*
X109970162Y-74469817D01*
X109983681Y-74469085D01*
X110004408Y-74468506D01*
X110030869Y-74468118D01*
X110061589Y-74467958D01*
X110073279Y-74467963D01*
X110181229Y-74468165D01*
X110249809Y-74559100D01*
X110269693Y-74585335D01*
X110287539Y-74608629D01*
X110302446Y-74627828D01*
X110313511Y-74641773D01*
X110319833Y-74649310D01*
X110320929Y-74650314D01*
X110324640Y-74646565D01*
X110333652Y-74635901D01*
X110347056Y-74619448D01*
X110363938Y-74598331D01*
X110383389Y-74573674D01*
X110394589Y-74559350D01*
X110465709Y-74468107D01*
X110576625Y-74467934D01*
X110687542Y-74467761D01*
X110672574Y-74486811D01*
G37*
X110672574Y-74486811D02*
X110623496Y-74549379D01*
X110580603Y-74604303D01*
X110543695Y-74651845D01*
X110512576Y-74692265D01*
X110487048Y-74725825D01*
X110466913Y-74752787D01*
X110451973Y-74773413D01*
X110442031Y-74787963D01*
X110436890Y-74796699D01*
X110436111Y-74799699D01*
X110439816Y-74804815D01*
X110449083Y-74817170D01*
X110463289Y-74835945D01*
X110481810Y-74860321D01*
X110504022Y-74889477D01*
X110529301Y-74922593D01*
X110557024Y-74958850D01*
X110584711Y-74995007D01*
X110614099Y-75033413D01*
X110641565Y-75069414D01*
X110666495Y-75102197D01*
X110688272Y-75130948D01*
X110706284Y-75154853D01*
X110719914Y-75173099D01*
X110728548Y-75184873D01*
X110731562Y-75189317D01*
X110727250Y-75191012D01*
X110713538Y-75192383D01*
X110691183Y-75193395D01*
X110660941Y-75194012D01*
X110627038Y-75194201D01*
X110520820Y-75194201D01*
X110427224Y-75073836D01*
X110403468Y-75043279D01*
X110381581Y-75015112D01*
X110362383Y-74990394D01*
X110346696Y-74970181D01*
X110335339Y-74955529D01*
X110329133Y-74947497D01*
X110328363Y-74946489D01*
X110325484Y-74946213D01*
X110319873Y-74950276D01*
X110311001Y-74959292D01*
X110298341Y-74973877D01*
X110281364Y-74994644D01*
X110259540Y-75022209D01*
X110232342Y-75057187D01*
X110224879Y-75066853D01*
X110126661Y-75194201D01*
X110020595Y-75194201D01*
X109989015Y-75194027D01*
X109961187Y-75193542D01*
X109938599Y-75192799D01*
X109922736Y-75191852D01*
X109915086Y-75190753D01*
X109914614Y-75190391D01*
X109917635Y-75185722D01*
X109926265Y-75173803D01*
X109939903Y-75155429D01*
X109957953Y-75131393D01*
X109979814Y-75102489D01*
X110004889Y-75069511D01*
X110032579Y-75033252D01*
X110062284Y-74994508D01*
X110064400Y-74991754D01*
X110099117Y-74946499D01*
X110128056Y-74908584D01*
X110151690Y-74877337D01*
X110170490Y-74852088D01*
X110184930Y-74832166D01*
X110195482Y-74816901D01*
X110202618Y-74805622D01*
X110206812Y-74797658D01*
X110208536Y-74792340D01*
X110208261Y-74788995D01*
X110207825Y-74788227D01*
X110203385Y-74782348D01*
X110193456Y-74769369D01*
X110178761Y-74750231D01*
X110160022Y-74725872D01*
X110137963Y-74697233D01*
X110113307Y-74665254D01*
X110086776Y-74630873D01*
X110083439Y-74626549D01*
X110057014Y-74592250D01*
X110032649Y-74560483D01*
X110011021Y-74532140D01*
X109992806Y-74508114D01*
X109978681Y-74489299D01*
X109969322Y-74476586D01*
X109965405Y-74470870D01*
X109965329Y-74470666D01*
X109970162Y-74469817D01*
X109983681Y-74469085D01*
X110004408Y-74468506D01*
X110030869Y-74468118D01*
X110061589Y-74467958D01*
X110073279Y-74467963D01*
X110181229Y-74468165D01*
X110249809Y-74559100D01*
X110269693Y-74585335D01*
X110287539Y-74608629D01*
X110302446Y-74627828D01*
X110313511Y-74641773D01*
X110319833Y-74649310D01*
X110320929Y-74650314D01*
X110324640Y-74646565D01*
X110333652Y-74635901D01*
X110347056Y-74619448D01*
X110363938Y-74598331D01*
X110383389Y-74573674D01*
X110394589Y-74559350D01*
X110465709Y-74468107D01*
X110576625Y-74467934D01*
X110687542Y-74467761D01*
X110672574Y-74486811D01*
G36*
X113808399Y-74016548D02*
G01*
X113808741Y-74016879D01*
X113810326Y-74022018D01*
X113814325Y-74036379D01*
X113820575Y-74059358D01*
X113828917Y-74090347D01*
X113839189Y-74128741D01*
X113851229Y-74173934D01*
X113864878Y-74225321D01*
X113879974Y-74282296D01*
X113896355Y-74344252D01*
X113913862Y-74410583D01*
X113932333Y-74480685D01*
X113951607Y-74553951D01*
X113965156Y-74605521D01*
X114119070Y-75191661D01*
X114032667Y-75193054D01*
X114004010Y-75193293D01*
X113978958Y-75193077D01*
X113959248Y-75192456D01*
X113946617Y-75191480D01*
X113942806Y-75190514D01*
X113940960Y-75185040D01*
X113936793Y-75170560D01*
X113930528Y-75147907D01*
X113922386Y-75117912D01*
X113912592Y-75081406D01*
X113901367Y-75039221D01*
X113888934Y-74992187D01*
X113875516Y-74941137D01*
X113861336Y-74886902D01*
X113856362Y-74867811D01*
X113842001Y-74812811D01*
X113828342Y-74760817D01*
X113815605Y-74712646D01*
X113804010Y-74669115D01*
X113793777Y-74631044D01*
X113785128Y-74599248D01*
X113778281Y-74574547D01*
X113773457Y-74557758D01*
X113770876Y-74549699D01*
X113770542Y-74549092D01*
X113768171Y-74553667D01*
X113762195Y-74566892D01*
X113752925Y-74588041D01*
X113740670Y-74616389D01*
X113725740Y-74651210D01*
X113708446Y-74691779D01*
X113689098Y-74737369D01*
X113668005Y-74787256D01*
X113645478Y-74840713D01*
X113621827Y-74897015D01*
X113620586Y-74899975D01*
X113596858Y-74956472D01*
X113574218Y-75010212D01*
X113552978Y-75060464D01*
X113533452Y-75106496D01*
X113515952Y-75147575D01*
X113500790Y-75182971D01*
X113488279Y-75211950D01*
X113478731Y-75233783D01*
X113472460Y-75247736D01*
X113469778Y-75253078D01*
X113469747Y-75253104D01*
X113465757Y-75250301D01*
X113459819Y-75240587D01*
X113456554Y-75233691D01*
X113453030Y-75225450D01*
X113445907Y-75208657D01*
X113435529Y-75184124D01*
X113422239Y-75152661D01*
X113406379Y-75115082D01*
X113388291Y-75072197D01*
X113368319Y-75024821D01*
X113346805Y-74973763D01*
X113324092Y-74919836D01*
X113307674Y-74880843D01*
X113276953Y-74808098D01*
X113249990Y-74744734D01*
X113226763Y-74690700D01*
X113207249Y-74645949D01*
X113191426Y-74610428D01*
X113179273Y-74584090D01*
X113170767Y-74566883D01*
X113165886Y-74558759D01*
X113164669Y-74558263D01*
X113162783Y-74564605D01*
X113158599Y-74579907D01*
X113152348Y-74603288D01*
X113144262Y-74633868D01*
X113134571Y-74670767D01*
X113123507Y-74713103D01*
X113111300Y-74759998D01*
X113098183Y-74810570D01*
X113084387Y-74863939D01*
X113084371Y-74864001D01*
X113070508Y-74917656D01*
X113057281Y-74968740D01*
X113044926Y-75016341D01*
X113033683Y-75059547D01*
X113023790Y-75097447D01*
X113015483Y-75129131D01*
X113009001Y-75153686D01*
X113004581Y-75170201D01*
X113002486Y-75177691D01*
X112997301Y-75194201D01*
X112820095Y-75194201D01*
X112822976Y-75182771D01*
X112831734Y-75148306D01*
X112842259Y-75107365D01*
X112854362Y-75060666D01*
X112867848Y-75008925D01*
X112882528Y-74952862D01*
X112898210Y-74893194D01*
X112914701Y-74830638D01*
X112931811Y-74765913D01*
X112949347Y-74699736D01*
X112967118Y-74632825D01*
X112984932Y-74565899D01*
X113002598Y-74499674D01*
X113019924Y-74434869D01*
X113036718Y-74372202D01*
X113052789Y-74312390D01*
X113067946Y-74256151D01*
X113081995Y-74204203D01*
X113094747Y-74157264D01*
X113106008Y-74116051D01*
X113115588Y-74081283D01*
X113123295Y-74053678D01*
X113128938Y-74033953D01*
X113132324Y-74022825D01*
X113133253Y-74020538D01*
X113135855Y-74025480D01*
X113142060Y-74039114D01*
X113151575Y-74060751D01*
X113164104Y-74089702D01*
X113179355Y-74125276D01*
X113197032Y-74166783D01*
X113216842Y-74213533D01*
X113238491Y-74264838D01*
X113261684Y-74320006D01*
X113286128Y-74378348D01*
X113302692Y-74417991D01*
X113327740Y-74477874D01*
X113351704Y-74534912D01*
X113374292Y-74588427D01*
X113395215Y-74637745D01*
X113414182Y-74682188D01*
X113430904Y-74721081D01*
X113445089Y-74753749D01*
X113456448Y-74779514D01*
X113464690Y-74797701D01*
X113469526Y-74807634D01*
X113470717Y-74809333D01*
X113473125Y-74804163D01*
X113479147Y-74790337D01*
X113488479Y-74768571D01*
X113500817Y-74739583D01*
X113515859Y-74704091D01*
X113533299Y-74662812D01*
X113552836Y-74616465D01*
X113574165Y-74565766D01*
X113596984Y-74511433D01*
X113620987Y-74454184D01*
X113628067Y-74437281D01*
X113658463Y-74364697D01*
X113685177Y-74300920D01*
X113708450Y-74245385D01*
X113728527Y-74197527D01*
X113745649Y-74156782D01*
X113760059Y-74122586D01*
X113772001Y-74094372D01*
X113781715Y-74071578D01*
X113789446Y-74053638D01*
X113795436Y-74039987D01*
X113799927Y-74030062D01*
X113803163Y-74023297D01*
X113805385Y-74019128D01*
X113806837Y-74016990D01*
X113807760Y-74016318D01*
X113808399Y-74016548D01*
G37*
X113808399Y-74016548D02*
X113808741Y-74016879D01*
X113810326Y-74022018D01*
X113814325Y-74036379D01*
X113820575Y-74059358D01*
X113828917Y-74090347D01*
X113839189Y-74128741D01*
X113851229Y-74173934D01*
X113864878Y-74225321D01*
X113879974Y-74282296D01*
X113896355Y-74344252D01*
X113913862Y-74410583D01*
X113932333Y-74480685D01*
X113951607Y-74553951D01*
X113965156Y-74605521D01*
X114119070Y-75191661D01*
X114032667Y-75193054D01*
X114004010Y-75193293D01*
X113978958Y-75193077D01*
X113959248Y-75192456D01*
X113946617Y-75191480D01*
X113942806Y-75190514D01*
X113940960Y-75185040D01*
X113936793Y-75170560D01*
X113930528Y-75147907D01*
X113922386Y-75117912D01*
X113912592Y-75081406D01*
X113901367Y-75039221D01*
X113888934Y-74992187D01*
X113875516Y-74941137D01*
X113861336Y-74886902D01*
X113856362Y-74867811D01*
X113842001Y-74812811D01*
X113828342Y-74760817D01*
X113815605Y-74712646D01*
X113804010Y-74669115D01*
X113793777Y-74631044D01*
X113785128Y-74599248D01*
X113778281Y-74574547D01*
X113773457Y-74557758D01*
X113770876Y-74549699D01*
X113770542Y-74549092D01*
X113768171Y-74553667D01*
X113762195Y-74566892D01*
X113752925Y-74588041D01*
X113740670Y-74616389D01*
X113725740Y-74651210D01*
X113708446Y-74691779D01*
X113689098Y-74737369D01*
X113668005Y-74787256D01*
X113645478Y-74840713D01*
X113621827Y-74897015D01*
X113620586Y-74899975D01*
X113596858Y-74956472D01*
X113574218Y-75010212D01*
X113552978Y-75060464D01*
X113533452Y-75106496D01*
X113515952Y-75147575D01*
X113500790Y-75182971D01*
X113488279Y-75211950D01*
X113478731Y-75233783D01*
X113472460Y-75247736D01*
X113469778Y-75253078D01*
X113469747Y-75253104D01*
X113465757Y-75250301D01*
X113459819Y-75240587D01*
X113456554Y-75233691D01*
X113453030Y-75225450D01*
X113445907Y-75208657D01*
X113435529Y-75184124D01*
X113422239Y-75152661D01*
X113406379Y-75115082D01*
X113388291Y-75072197D01*
X113368319Y-75024821D01*
X113346805Y-74973763D01*
X113324092Y-74919836D01*
X113307674Y-74880843D01*
X113276953Y-74808098D01*
X113249990Y-74744734D01*
X113226763Y-74690700D01*
X113207249Y-74645949D01*
X113191426Y-74610428D01*
X113179273Y-74584090D01*
X113170767Y-74566883D01*
X113165886Y-74558759D01*
X113164669Y-74558263D01*
X113162783Y-74564605D01*
X113158599Y-74579907D01*
X113152348Y-74603288D01*
X113144262Y-74633868D01*
X113134571Y-74670767D01*
X113123507Y-74713103D01*
X113111300Y-74759998D01*
X113098183Y-74810570D01*
X113084387Y-74863939D01*
X113084371Y-74864001D01*
X113070508Y-74917656D01*
X113057281Y-74968740D01*
X113044926Y-75016341D01*
X113033683Y-75059547D01*
X113023790Y-75097447D01*
X113015483Y-75129131D01*
X113009001Y-75153686D01*
X113004581Y-75170201D01*
X113002486Y-75177691D01*
X112997301Y-75194201D01*
X112820095Y-75194201D01*
X112822976Y-75182771D01*
X112831734Y-75148306D01*
X112842259Y-75107365D01*
X112854362Y-75060666D01*
X112867848Y-75008925D01*
X112882528Y-74952862D01*
X112898210Y-74893194D01*
X112914701Y-74830638D01*
X112931811Y-74765913D01*
X112949347Y-74699736D01*
X112967118Y-74632825D01*
X112984932Y-74565899D01*
X113002598Y-74499674D01*
X113019924Y-74434869D01*
X113036718Y-74372202D01*
X113052789Y-74312390D01*
X113067946Y-74256151D01*
X113081995Y-74204203D01*
X113094747Y-74157264D01*
X113106008Y-74116051D01*
X113115588Y-74081283D01*
X113123295Y-74053678D01*
X113128938Y-74033953D01*
X113132324Y-74022825D01*
X113133253Y-74020538D01*
X113135855Y-74025480D01*
X113142060Y-74039114D01*
X113151575Y-74060751D01*
X113164104Y-74089702D01*
X113179355Y-74125276D01*
X113197032Y-74166783D01*
X113216842Y-74213533D01*
X113238491Y-74264838D01*
X113261684Y-74320006D01*
X113286128Y-74378348D01*
X113302692Y-74417991D01*
X113327740Y-74477874D01*
X113351704Y-74534912D01*
X113374292Y-74588427D01*
X113395215Y-74637745D01*
X113414182Y-74682188D01*
X113430904Y-74721081D01*
X113445089Y-74753749D01*
X113456448Y-74779514D01*
X113464690Y-74797701D01*
X113469526Y-74807634D01*
X113470717Y-74809333D01*
X113473125Y-74804163D01*
X113479147Y-74790337D01*
X113488479Y-74768571D01*
X113500817Y-74739583D01*
X113515859Y-74704091D01*
X113533299Y-74662812D01*
X113552836Y-74616465D01*
X113574165Y-74565766D01*
X113596984Y-74511433D01*
X113620987Y-74454184D01*
X113628067Y-74437281D01*
X113658463Y-74364697D01*
X113685177Y-74300920D01*
X113708450Y-74245385D01*
X113728527Y-74197527D01*
X113745649Y-74156782D01*
X113760059Y-74122586D01*
X113772001Y-74094372D01*
X113781715Y-74071578D01*
X113789446Y-74053638D01*
X113795436Y-74039987D01*
X113799927Y-74030062D01*
X113803163Y-74023297D01*
X113805385Y-74019128D01*
X113806837Y-74016990D01*
X113807760Y-74016318D01*
X113808399Y-74016548D01*
G36*
X109260487Y-74451627D02*
G01*
X109290719Y-74455953D01*
X109317697Y-74464276D01*
X109344774Y-74477588D01*
X109370936Y-74493946D01*
X109403917Y-74521464D01*
X109429594Y-74554209D01*
X109447834Y-74590766D01*
X109458506Y-74629722D01*
X109461479Y-74669664D01*
X109456621Y-74709176D01*
X109443799Y-74746846D01*
X109422884Y-74781260D01*
X109399960Y-74805740D01*
X109391494Y-74812851D01*
X109381984Y-74819869D01*
X109370394Y-74827350D01*
X109355688Y-74835851D01*
X109336829Y-74845927D01*
X109312781Y-74858135D01*
X109282506Y-74873031D01*
X109244969Y-74891170D01*
X109205148Y-74910236D01*
X109171960Y-74928484D01*
X109148888Y-74946741D01*
X109135888Y-74965095D01*
X109132916Y-74983633D01*
X109139928Y-75002441D01*
X109151373Y-75016440D01*
X109176303Y-75034602D01*
X109205309Y-75044375D01*
X109236878Y-75045856D01*
X109269497Y-75039141D01*
X109301654Y-75024327D01*
X109327762Y-75005203D01*
X109351640Y-74984184D01*
X109418454Y-75016704D01*
X109442461Y-75028479D01*
X109463278Y-75038861D01*
X109479153Y-75046962D01*
X109488339Y-75051898D01*
X109489758Y-75052796D01*
X109489649Y-75058718D01*
X109483499Y-75070126D01*
X109472538Y-75085407D01*
X109457995Y-75102951D01*
X109441099Y-75121145D01*
X109427654Y-75134220D01*
X109385669Y-75166695D01*
X109339367Y-75191001D01*
X109290184Y-75206741D01*
X109239561Y-75213518D01*
X109188934Y-75210933D01*
X109165965Y-75206474D01*
X109123499Y-75191669D01*
X109082838Y-75168998D01*
X109046057Y-75140089D01*
X109015233Y-75106567D01*
X108992863Y-75070920D01*
X108978365Y-75031452D01*
X108971654Y-74989801D01*
X108973251Y-74949376D01*
X108973832Y-74945848D01*
X108984033Y-74907970D01*
X109001021Y-74873509D01*
X109025393Y-74841892D01*
X109057746Y-74812544D01*
X109098678Y-74784891D01*
X109148786Y-74758358D01*
X109186255Y-74741569D01*
X109223881Y-74724772D01*
X109252521Y-74709808D01*
X109273036Y-74696022D01*
X109286291Y-74682756D01*
X109293147Y-74669356D01*
X109294607Y-74659197D01*
X109291645Y-74640799D01*
X109281790Y-74627689D01*
X109264305Y-74619415D01*
X109238456Y-74615524D01*
X109222727Y-74615081D01*
X109200639Y-74616454D01*
X109180201Y-74621250D01*
X109158653Y-74630477D01*
X109133235Y-74645147D01*
X109123362Y-74651462D01*
X109091655Y-74672098D01*
X109040337Y-74627079D01*
X109020391Y-74609650D01*
X109002391Y-74594048D01*
X108988130Y-74581817D01*
X108979399Y-74574503D01*
X108978608Y-74573871D01*
X108973845Y-74569560D01*
X108972898Y-74565431D01*
X108976855Y-74559808D01*
X108986804Y-74551014D01*
X109000672Y-74539883D01*
X109036443Y-74513980D01*
X109075333Y-74490102D01*
X109113614Y-74470425D01*
X109135163Y-74461380D01*
X109151061Y-74456120D01*
X109166977Y-74452769D01*
X109185870Y-74450958D01*
X109210697Y-74450314D01*
X109223649Y-74450304D01*
X109260487Y-74451627D01*
G37*
X109260487Y-74451627D02*
X109290719Y-74455953D01*
X109317697Y-74464276D01*
X109344774Y-74477588D01*
X109370936Y-74493946D01*
X109403917Y-74521464D01*
X109429594Y-74554209D01*
X109447834Y-74590766D01*
X109458506Y-74629722D01*
X109461479Y-74669664D01*
X109456621Y-74709176D01*
X109443799Y-74746846D01*
X109422884Y-74781260D01*
X109399960Y-74805740D01*
X109391494Y-74812851D01*
X109381984Y-74819869D01*
X109370394Y-74827350D01*
X109355688Y-74835851D01*
X109336829Y-74845927D01*
X109312781Y-74858135D01*
X109282506Y-74873031D01*
X109244969Y-74891170D01*
X109205148Y-74910236D01*
X109171960Y-74928484D01*
X109148888Y-74946741D01*
X109135888Y-74965095D01*
X109132916Y-74983633D01*
X109139928Y-75002441D01*
X109151373Y-75016440D01*
X109176303Y-75034602D01*
X109205309Y-75044375D01*
X109236878Y-75045856D01*
X109269497Y-75039141D01*
X109301654Y-75024327D01*
X109327762Y-75005203D01*
X109351640Y-74984184D01*
X109418454Y-75016704D01*
X109442461Y-75028479D01*
X109463278Y-75038861D01*
X109479153Y-75046962D01*
X109488339Y-75051898D01*
X109489758Y-75052796D01*
X109489649Y-75058718D01*
X109483499Y-75070126D01*
X109472538Y-75085407D01*
X109457995Y-75102951D01*
X109441099Y-75121145D01*
X109427654Y-75134220D01*
X109385669Y-75166695D01*
X109339367Y-75191001D01*
X109290184Y-75206741D01*
X109239561Y-75213518D01*
X109188934Y-75210933D01*
X109165965Y-75206474D01*
X109123499Y-75191669D01*
X109082838Y-75168998D01*
X109046057Y-75140089D01*
X109015233Y-75106567D01*
X108992863Y-75070920D01*
X108978365Y-75031452D01*
X108971654Y-74989801D01*
X108973251Y-74949376D01*
X108973832Y-74945848D01*
X108984033Y-74907970D01*
X109001021Y-74873509D01*
X109025393Y-74841892D01*
X109057746Y-74812544D01*
X109098678Y-74784891D01*
X109148786Y-74758358D01*
X109186255Y-74741569D01*
X109223881Y-74724772D01*
X109252521Y-74709808D01*
X109273036Y-74696022D01*
X109286291Y-74682756D01*
X109293147Y-74669356D01*
X109294607Y-74659197D01*
X109291645Y-74640799D01*
X109281790Y-74627689D01*
X109264305Y-74619415D01*
X109238456Y-74615524D01*
X109222727Y-74615081D01*
X109200639Y-74616454D01*
X109180201Y-74621250D01*
X109158653Y-74630477D01*
X109133235Y-74645147D01*
X109123362Y-74651462D01*
X109091655Y-74672098D01*
X109040337Y-74627079D01*
X109020391Y-74609650D01*
X109002391Y-74594048D01*
X108988130Y-74581817D01*
X108979399Y-74574503D01*
X108978608Y-74573871D01*
X108973845Y-74569560D01*
X108972898Y-74565431D01*
X108976855Y-74559808D01*
X108986804Y-74551014D01*
X109000672Y-74539883D01*
X109036443Y-74513980D01*
X109075333Y-74490102D01*
X109113614Y-74470425D01*
X109135163Y-74461380D01*
X109151061Y-74456120D01*
X109166977Y-74452769D01*
X109185870Y-74450958D01*
X109210697Y-74450314D01*
X109223649Y-74450304D01*
X109260487Y-74451627D01*
G36*
X110794488Y-74663691D02*
G01*
X110819935Y-74619022D01*
X110852662Y-74577019D01*
X110869569Y-74558944D01*
X110914690Y-74518851D01*
X110962394Y-74488230D01*
X111013759Y-74466603D01*
X111069862Y-74453495D01*
X111118489Y-74448839D01*
X111148286Y-74447998D01*
X111171890Y-74448655D01*
X111193197Y-74451120D01*
X111216102Y-74455702D01*
X111221931Y-74457071D01*
X111278965Y-74475813D01*
X111332022Y-74503344D01*
X111380184Y-74538764D01*
X111422529Y-74581174D01*
X111458138Y-74629673D01*
X111486091Y-74683361D01*
X111503055Y-74732081D01*
X111508924Y-74762952D01*
X111512009Y-74800232D01*
X111512355Y-74840573D01*
X111510008Y-74880624D01*
X111505012Y-74917038D01*
X111500292Y-74937432D01*
X111478826Y-74995060D01*
X111449040Y-75047725D01*
X111411751Y-75094620D01*
X111367773Y-75134937D01*
X111317923Y-75167870D01*
X111263016Y-75192614D01*
X111232789Y-75201962D01*
X111204043Y-75207427D01*
X111168935Y-75210926D01*
X111131092Y-75212357D01*
X111094138Y-75211616D01*
X111061700Y-75208599D01*
X111052719Y-75207108D01*
X110996019Y-75192066D01*
X110941611Y-75169422D01*
X110891203Y-75140214D01*
X110846505Y-75105481D01*
X110809225Y-75066262D01*
X110799224Y-75053050D01*
X110787983Y-75037264D01*
X110847826Y-74992225D01*
X110869473Y-74975999D01*
X110888560Y-74961816D01*
X110903461Y-74950874D01*
X110912552Y-74944372D01*
X110914225Y-74943266D01*
X110921492Y-74944790D01*
X110934566Y-74954468D01*
X110953320Y-74972206D01*
X110953578Y-74972466D01*
X110990726Y-75004277D01*
X111030322Y-75026701D01*
X111073750Y-75040454D01*
X111090348Y-75043386D01*
X111136423Y-75045632D01*
X111180969Y-75039449D01*
X111222592Y-75025501D01*
X111259899Y-75004450D01*
X111291496Y-74976959D01*
X111315990Y-74943691D01*
X111321343Y-74933519D01*
X111329694Y-74915217D01*
X111336433Y-74898561D01*
X111339829Y-74888131D01*
X111343110Y-74874161D01*
X110751527Y-74874161D01*
X110755050Y-74829711D01*
X110762723Y-74767433D01*
X110773382Y-74722217D01*
X110955929Y-74722217D01*
X110960856Y-74723365D01*
X110975027Y-74724388D01*
X110997526Y-74725264D01*
X111027439Y-74725970D01*
X111063849Y-74726481D01*
X111105841Y-74726776D01*
X111138939Y-74726841D01*
X111321949Y-74726841D01*
X111314358Y-74712161D01*
X111302526Y-74694976D01*
X111284793Y-74675773D01*
X111264177Y-74657395D01*
X111243699Y-74642686D01*
X111235959Y-74638334D01*
X111194956Y-74622940D01*
X111151526Y-74616076D01*
X111107740Y-74617645D01*
X111065670Y-74627549D01*
X111027387Y-74645693D01*
X111023401Y-74648250D01*
X111009298Y-74659118D01*
X110993792Y-74673452D01*
X110978803Y-74689146D01*
X110966251Y-74704094D01*
X110958059Y-74716191D01*
X110955929Y-74722217D01*
X110773382Y-74722217D01*
X110775643Y-74712627D01*
X110794488Y-74663691D01*
G37*
X110794488Y-74663691D02*
X110819935Y-74619022D01*
X110852662Y-74577019D01*
X110869569Y-74558944D01*
X110914690Y-74518851D01*
X110962394Y-74488230D01*
X111013759Y-74466603D01*
X111069862Y-74453495D01*
X111118489Y-74448839D01*
X111148286Y-74447998D01*
X111171890Y-74448655D01*
X111193197Y-74451120D01*
X111216102Y-74455702D01*
X111221931Y-74457071D01*
X111278965Y-74475813D01*
X111332022Y-74503344D01*
X111380184Y-74538764D01*
X111422529Y-74581174D01*
X111458138Y-74629673D01*
X111486091Y-74683361D01*
X111503055Y-74732081D01*
X111508924Y-74762952D01*
X111512009Y-74800232D01*
X111512355Y-74840573D01*
X111510008Y-74880624D01*
X111505012Y-74917038D01*
X111500292Y-74937432D01*
X111478826Y-74995060D01*
X111449040Y-75047725D01*
X111411751Y-75094620D01*
X111367773Y-75134937D01*
X111317923Y-75167870D01*
X111263016Y-75192614D01*
X111232789Y-75201962D01*
X111204043Y-75207427D01*
X111168935Y-75210926D01*
X111131092Y-75212357D01*
X111094138Y-75211616D01*
X111061700Y-75208599D01*
X111052719Y-75207108D01*
X110996019Y-75192066D01*
X110941611Y-75169422D01*
X110891203Y-75140214D01*
X110846505Y-75105481D01*
X110809225Y-75066262D01*
X110799224Y-75053050D01*
X110787983Y-75037264D01*
X110847826Y-74992225D01*
X110869473Y-74975999D01*
X110888560Y-74961816D01*
X110903461Y-74950874D01*
X110912552Y-74944372D01*
X110914225Y-74943266D01*
X110921492Y-74944790D01*
X110934566Y-74954468D01*
X110953320Y-74972206D01*
X110953578Y-74972466D01*
X110990726Y-75004277D01*
X111030322Y-75026701D01*
X111073750Y-75040454D01*
X111090348Y-75043386D01*
X111136423Y-75045632D01*
X111180969Y-75039449D01*
X111222592Y-75025501D01*
X111259899Y-75004450D01*
X111291496Y-74976959D01*
X111315990Y-74943691D01*
X111321343Y-74933519D01*
X111329694Y-74915217D01*
X111336433Y-74898561D01*
X111339829Y-74888131D01*
X111343110Y-74874161D01*
X110751527Y-74874161D01*
X110755050Y-74829711D01*
X110762723Y-74767433D01*
X110773382Y-74722217D01*
X110955929Y-74722217D01*
X110960856Y-74723365D01*
X110975027Y-74724388D01*
X110997526Y-74725264D01*
X111027439Y-74725970D01*
X111063849Y-74726481D01*
X111105841Y-74726776D01*
X111138939Y-74726841D01*
X111321949Y-74726841D01*
X111314358Y-74712161D01*
X111302526Y-74694976D01*
X111284793Y-74675773D01*
X111264177Y-74657395D01*
X111243699Y-74642686D01*
X111235959Y-74638334D01*
X111194956Y-74622940D01*
X111151526Y-74616076D01*
X111107740Y-74617645D01*
X111065670Y-74627549D01*
X111027387Y-74645693D01*
X111023401Y-74648250D01*
X111009298Y-74659118D01*
X110993792Y-74673452D01*
X110978803Y-74689146D01*
X110966251Y-74704094D01*
X110958059Y-74716191D01*
X110955929Y-74722217D01*
X110773382Y-74722217D01*
X110775643Y-74712627D01*
X110794488Y-74663691D01*
G36*
X112052830Y-74631022D02*
G01*
X112087076Y-74582713D01*
X112128284Y-74540230D01*
X112175890Y-74504435D01*
X112229329Y-74476191D01*
X112258949Y-74464870D01*
X112301471Y-74454287D01*
X112349085Y-74448636D01*
X112397883Y-74448125D01*
X112443960Y-74452965D01*
X112451989Y-74454487D01*
X112505988Y-74470463D01*
X112558304Y-74495339D01*
X112606910Y-74527860D01*
X112649779Y-74566772D01*
X112668847Y-74588756D01*
X112702703Y-74637076D01*
X112727294Y-74685871D01*
X112743396Y-74737166D01*
X112751785Y-74792990D01*
X112752780Y-74808121D01*
X112751698Y-74872404D01*
X112741587Y-74932176D01*
X112722259Y-74987938D01*
X112693523Y-75040190D01*
X112655189Y-75089435D01*
X112639838Y-75105679D01*
X112617959Y-75126854D01*
X112598808Y-75142693D01*
X112578794Y-75155816D01*
X112554325Y-75168842D01*
X112550938Y-75170514D01*
X112526890Y-75181607D01*
X112502313Y-75191769D01*
X112480972Y-75199490D01*
X112472309Y-75202064D01*
X112442833Y-75207592D01*
X112407044Y-75211062D01*
X112368596Y-75212376D01*
X112331143Y-75211437D01*
X112298342Y-75208146D01*
X112291128Y-75206913D01*
X112227954Y-75189926D01*
X112169053Y-75163873D01*
X112147034Y-75151089D01*
X112123173Y-75134362D01*
X112097307Y-75113211D01*
X112072244Y-75090185D01*
X112050788Y-75067834D01*
X112038012Y-75052022D01*
X112027798Y-75037677D01*
X112087493Y-74992385D01*
X112109097Y-74976067D01*
X112128166Y-74961801D01*
X112143074Y-74950792D01*
X112152197Y-74944245D01*
X112153890Y-74943129D01*
X112161036Y-74944518D01*
X112174117Y-74953739D01*
X112193262Y-74970885D01*
X112197864Y-74975306D01*
X112230319Y-75003375D01*
X112262218Y-75023261D01*
X112296326Y-75036381D01*
X112330874Y-75043531D01*
X112378617Y-75045816D01*
X112424172Y-75039093D01*
X112466373Y-75023936D01*
X112504057Y-75000916D01*
X112536059Y-74970607D01*
X112561216Y-74933581D01*
X112563538Y-74929077D01*
X112569665Y-74917525D01*
X112575117Y-74907700D01*
X112579203Y-74899464D01*
X112581232Y-74892678D01*
X112580514Y-74887204D01*
X112576356Y-74882903D01*
X112568068Y-74879637D01*
X112554959Y-74877267D01*
X112536338Y-74875656D01*
X112511513Y-74874664D01*
X112479795Y-74874154D01*
X112440492Y-74873986D01*
X112392912Y-74874022D01*
X112336366Y-74874124D01*
X112289429Y-74874161D01*
X112227519Y-74874146D01*
X112175000Y-74874087D01*
X112131101Y-74873960D01*
X112095052Y-74873742D01*
X112066082Y-74873410D01*
X112043422Y-74872939D01*
X112026302Y-74872307D01*
X112013951Y-74871490D01*
X112005601Y-74870465D01*
X112000479Y-74869209D01*
X111997817Y-74867697D01*
X111996845Y-74865907D01*
X111996765Y-74865271D01*
X111997514Y-74802281D01*
X112007485Y-74741668D01*
X112013386Y-74723492D01*
X112195449Y-74723492D01*
X112200340Y-74724260D01*
X112214257Y-74724967D01*
X112236067Y-74725590D01*
X112264637Y-74726110D01*
X112298833Y-74726506D01*
X112337521Y-74726756D01*
X112378329Y-74726841D01*
X112420295Y-74726757D01*
X112458870Y-74726519D01*
X112492921Y-74726145D01*
X112521313Y-74725657D01*
X112542913Y-74725071D01*
X112556588Y-74724409D01*
X112561209Y-74723711D01*
X112558014Y-74716612D01*
X112549763Y-74704664D01*
X112538455Y-74690330D01*
X112526088Y-74676071D01*
X112514664Y-74664351D01*
X112509161Y-74659614D01*
X112471059Y-74636383D01*
X112430175Y-74621744D01*
X112387956Y-74615535D01*
X112345850Y-74617590D01*
X112305303Y-74627745D01*
X112267763Y-74645836D01*
X112234678Y-74671698D01*
X112216020Y-74692897D01*
X112205615Y-74707141D01*
X112198217Y-74718153D01*
X112195449Y-74723492D01*
X112013386Y-74723492D01*
X112026112Y-74684294D01*
X112052830Y-74631022D01*
G37*
X112052830Y-74631022D02*
X112087076Y-74582713D01*
X112128284Y-74540230D01*
X112175890Y-74504435D01*
X112229329Y-74476191D01*
X112258949Y-74464870D01*
X112301471Y-74454287D01*
X112349085Y-74448636D01*
X112397883Y-74448125D01*
X112443960Y-74452965D01*
X112451989Y-74454487D01*
X112505988Y-74470463D01*
X112558304Y-74495339D01*
X112606910Y-74527860D01*
X112649779Y-74566772D01*
X112668847Y-74588756D01*
X112702703Y-74637076D01*
X112727294Y-74685871D01*
X112743396Y-74737166D01*
X112751785Y-74792990D01*
X112752780Y-74808121D01*
X112751698Y-74872404D01*
X112741587Y-74932176D01*
X112722259Y-74987938D01*
X112693523Y-75040190D01*
X112655189Y-75089435D01*
X112639838Y-75105679D01*
X112617959Y-75126854D01*
X112598808Y-75142693D01*
X112578794Y-75155816D01*
X112554325Y-75168842D01*
X112550938Y-75170514D01*
X112526890Y-75181607D01*
X112502313Y-75191769D01*
X112480972Y-75199490D01*
X112472309Y-75202064D01*
X112442833Y-75207592D01*
X112407044Y-75211062D01*
X112368596Y-75212376D01*
X112331143Y-75211437D01*
X112298342Y-75208146D01*
X112291128Y-75206913D01*
X112227954Y-75189926D01*
X112169053Y-75163873D01*
X112147034Y-75151089D01*
X112123173Y-75134362D01*
X112097307Y-75113211D01*
X112072244Y-75090185D01*
X112050788Y-75067834D01*
X112038012Y-75052022D01*
X112027798Y-75037677D01*
X112087493Y-74992385D01*
X112109097Y-74976067D01*
X112128166Y-74961801D01*
X112143074Y-74950792D01*
X112152197Y-74944245D01*
X112153890Y-74943129D01*
X112161036Y-74944518D01*
X112174117Y-74953739D01*
X112193262Y-74970885D01*
X112197864Y-74975306D01*
X112230319Y-75003375D01*
X112262218Y-75023261D01*
X112296326Y-75036381D01*
X112330874Y-75043531D01*
X112378617Y-75045816D01*
X112424172Y-75039093D01*
X112466373Y-75023936D01*
X112504057Y-75000916D01*
X112536059Y-74970607D01*
X112561216Y-74933581D01*
X112563538Y-74929077D01*
X112569665Y-74917525D01*
X112575117Y-74907700D01*
X112579203Y-74899464D01*
X112581232Y-74892678D01*
X112580514Y-74887204D01*
X112576356Y-74882903D01*
X112568068Y-74879637D01*
X112554959Y-74877267D01*
X112536338Y-74875656D01*
X112511513Y-74874664D01*
X112479795Y-74874154D01*
X112440492Y-74873986D01*
X112392912Y-74874022D01*
X112336366Y-74874124D01*
X112289429Y-74874161D01*
X112227519Y-74874146D01*
X112175000Y-74874087D01*
X112131101Y-74873960D01*
X112095052Y-74873742D01*
X112066082Y-74873410D01*
X112043422Y-74872939D01*
X112026302Y-74872307D01*
X112013951Y-74871490D01*
X112005601Y-74870465D01*
X112000479Y-74869209D01*
X111997817Y-74867697D01*
X111996845Y-74865907D01*
X111996765Y-74865271D01*
X111997514Y-74802281D01*
X112007485Y-74741668D01*
X112013386Y-74723492D01*
X112195449Y-74723492D01*
X112200340Y-74724260D01*
X112214257Y-74724967D01*
X112236067Y-74725590D01*
X112264637Y-74726110D01*
X112298833Y-74726506D01*
X112337521Y-74726756D01*
X112378329Y-74726841D01*
X112420295Y-74726757D01*
X112458870Y-74726519D01*
X112492921Y-74726145D01*
X112521313Y-74725657D01*
X112542913Y-74725071D01*
X112556588Y-74724409D01*
X112561209Y-74723711D01*
X112558014Y-74716612D01*
X112549763Y-74704664D01*
X112538455Y-74690330D01*
X112526088Y-74676071D01*
X112514664Y-74664351D01*
X112509161Y-74659614D01*
X112471059Y-74636383D01*
X112430175Y-74621744D01*
X112387956Y-74615535D01*
X112345850Y-74617590D01*
X112305303Y-74627745D01*
X112267763Y-74645836D01*
X112234678Y-74671698D01*
X112216020Y-74692897D01*
X112205615Y-74707141D01*
X112198217Y-74718153D01*
X112195449Y-74723492D01*
X112013386Y-74723492D01*
X112026112Y-74684294D01*
X112052830Y-74631022D01*
G36*
X109797689Y-75194201D02*
G01*
X109614809Y-75194201D01*
X109614809Y-74467761D01*
X109797689Y-74467761D01*
X109797689Y-75194201D01*
G37*
X109797689Y-75194201D02*
X109614809Y-75194201D01*
X109614809Y-74467761D01*
X109797689Y-74467761D01*
X109797689Y-75194201D01*
D11*
X112746050Y-62653950D03*
X112746050Y-66246052D03*
X109153948Y-66246052D03*
D12*
X109153948Y-62653950D03*
G04 #@! TA.AperFunction,Conductor*
G36*
X116733620Y-58628503D02*
G01*
X116780113Y-58682159D01*
X116791499Y-58734501D01*
X116791499Y-82865501D01*
X116771497Y-82933622D01*
X116717841Y-82980115D01*
X116665499Y-82991501D01*
X105234499Y-82991501D01*
X105166378Y-82971499D01*
X105119885Y-82917843D01*
X105108499Y-82865501D01*
X105108499Y-75880001D01*
X106885999Y-75880001D01*
X115013999Y-75880001D01*
X115013999Y-73086001D01*
X106885999Y-73086001D01*
X106885999Y-75880001D01*
X105108499Y-75880001D01*
X105108499Y-66246052D01*
X108290719Y-66246052D01*
X108309583Y-66425527D01*
X108365349Y-66597159D01*
X108455581Y-66753445D01*
X108576335Y-66887556D01*
X108722333Y-66993630D01*
X108728361Y-66996314D01*
X108728363Y-66996315D01*
X108881165Y-67064347D01*
X108887196Y-67067032D01*
X108975456Y-67085792D01*
X109057259Y-67103180D01*
X109057263Y-67103180D01*
X109063716Y-67104552D01*
X109244180Y-67104552D01*
X109250633Y-67103180D01*
X109250637Y-67103180D01*
X109332440Y-67085792D01*
X109420700Y-67067032D01*
X109426731Y-67064347D01*
X109579533Y-66996315D01*
X109579535Y-66996314D01*
X109585563Y-66993630D01*
X109731561Y-66887556D01*
X109852315Y-66753445D01*
X109942547Y-66597159D01*
X109998313Y-66425527D01*
X110017177Y-66246052D01*
X111882821Y-66246052D01*
X111901685Y-66425527D01*
X111957451Y-66597159D01*
X112047683Y-66753445D01*
X112168437Y-66887556D01*
X112314435Y-66993630D01*
X112320463Y-66996314D01*
X112320465Y-66996315D01*
X112473267Y-67064347D01*
X112479298Y-67067032D01*
X112567558Y-67085792D01*
X112649361Y-67103180D01*
X112649365Y-67103180D01*
X112655818Y-67104552D01*
X112836282Y-67104552D01*
X112842735Y-67103180D01*
X112842739Y-67103180D01*
X112924542Y-67085792D01*
X113012802Y-67067032D01*
X113018833Y-67064347D01*
X113171635Y-66996315D01*
X113171637Y-66996314D01*
X113177665Y-66993630D01*
X113323663Y-66887556D01*
X113444417Y-66753445D01*
X113534649Y-66597159D01*
X113590415Y-66425527D01*
X113609279Y-66246052D01*
X113590415Y-66066577D01*
X113534649Y-65894945D01*
X113444417Y-65738659D01*
X113323663Y-65604548D01*
X113177665Y-65498474D01*
X113171637Y-65495790D01*
X113171635Y-65495789D01*
X113018833Y-65427757D01*
X113018831Y-65427757D01*
X113012802Y-65425072D01*
X112924542Y-65406312D01*
X112842739Y-65388924D01*
X112842735Y-65388924D01*
X112836282Y-65387552D01*
X112655818Y-65387552D01*
X112649365Y-65388924D01*
X112649361Y-65388924D01*
X112567558Y-65406312D01*
X112479298Y-65425072D01*
X112473269Y-65427756D01*
X112473267Y-65427757D01*
X112320466Y-65495789D01*
X112320464Y-65495790D01*
X112314436Y-65498474D01*
X112309095Y-65502354D01*
X112309094Y-65502355D01*
X112173781Y-65600665D01*
X112173779Y-65600667D01*
X112168437Y-65604548D01*
X112047683Y-65738659D01*
X111957451Y-65894945D01*
X111901685Y-66066577D01*
X111882821Y-66246052D01*
X110017177Y-66246052D01*
X109998313Y-66066577D01*
X109942547Y-65894945D01*
X109852315Y-65738659D01*
X109731561Y-65604548D01*
X109585563Y-65498474D01*
X109579535Y-65495790D01*
X109579533Y-65495789D01*
X109426731Y-65427757D01*
X109426729Y-65427757D01*
X109420700Y-65425072D01*
X109332440Y-65406312D01*
X109250637Y-65388924D01*
X109250633Y-65388924D01*
X109244180Y-65387552D01*
X109063716Y-65387552D01*
X109057263Y-65388924D01*
X109057259Y-65388924D01*
X108975456Y-65406312D01*
X108887196Y-65425072D01*
X108881167Y-65427756D01*
X108881165Y-65427757D01*
X108728364Y-65495789D01*
X108728362Y-65495790D01*
X108722334Y-65498474D01*
X108716993Y-65502354D01*
X108716992Y-65502355D01*
X108581679Y-65600665D01*
X108581677Y-65600667D01*
X108576335Y-65604548D01*
X108455581Y-65738659D01*
X108365349Y-65894945D01*
X108309583Y-66066577D01*
X108290719Y-66246052D01*
X105108499Y-66246052D01*
X105108499Y-62921381D01*
X107667301Y-62921381D01*
X107714166Y-63116584D01*
X107717212Y-63125958D01*
X107804261Y-63336113D01*
X107808743Y-63344908D01*
X107927591Y-63538849D01*
X107933391Y-63546833D01*
X108081126Y-63719808D01*
X108088090Y-63726772D01*
X108261065Y-63874507D01*
X108269049Y-63880307D01*
X108462990Y-63999155D01*
X108471785Y-64003637D01*
X108681940Y-64090686D01*
X108691314Y-64093732D01*
X108882333Y-64139592D01*
X108896417Y-64138887D01*
X108899948Y-64130006D01*
X108899948Y-64125706D01*
X109407948Y-64125706D01*
X109411921Y-64139237D01*
X109421379Y-64140597D01*
X109616582Y-64093732D01*
X109625956Y-64090686D01*
X109836111Y-64003637D01*
X109844906Y-63999155D01*
X110038847Y-63880307D01*
X110046831Y-63874507D01*
X110219806Y-63726772D01*
X110226770Y-63719808D01*
X110374505Y-63546833D01*
X110380305Y-63538849D01*
X110499153Y-63344908D01*
X110503635Y-63336113D01*
X110590684Y-63125958D01*
X110593730Y-63116584D01*
X110639590Y-62925565D01*
X110638885Y-62911481D01*
X110630004Y-62907950D01*
X109426063Y-62907950D01*
X109410824Y-62912425D01*
X109409619Y-62913815D01*
X109407948Y-62921498D01*
X109407948Y-64125706D01*
X108899948Y-64125706D01*
X108899948Y-62926065D01*
X108895473Y-62910826D01*
X108894083Y-62909621D01*
X108886400Y-62907950D01*
X107682192Y-62907950D01*
X107668661Y-62911923D01*
X107667301Y-62921381D01*
X105108499Y-62921381D01*
X105108499Y-62653950D01*
X111882821Y-62653950D01*
X111901685Y-62833425D01*
X111957451Y-63005057D01*
X112047683Y-63161343D01*
X112168437Y-63295454D01*
X112314435Y-63401528D01*
X112320463Y-63404212D01*
X112320465Y-63404213D01*
X112473267Y-63472245D01*
X112479298Y-63474930D01*
X112567558Y-63493690D01*
X112649361Y-63511078D01*
X112649365Y-63511078D01*
X112655818Y-63512450D01*
X112836282Y-63512450D01*
X112842735Y-63511078D01*
X112842739Y-63511078D01*
X112924542Y-63493690D01*
X113012802Y-63474930D01*
X113018833Y-63472245D01*
X113171635Y-63404213D01*
X113171637Y-63404212D01*
X113177665Y-63401528D01*
X113323663Y-63295454D01*
X113444417Y-63161343D01*
X113534649Y-63005057D01*
X113590415Y-62833425D01*
X113609279Y-62653950D01*
X113590415Y-62474475D01*
X113534649Y-62302843D01*
X113444417Y-62146557D01*
X113323663Y-62012446D01*
X113177665Y-61906372D01*
X113171637Y-61903688D01*
X113171635Y-61903687D01*
X113018833Y-61835655D01*
X113018831Y-61835655D01*
X113012802Y-61832970D01*
X112924542Y-61814210D01*
X112842739Y-61796822D01*
X112842735Y-61796822D01*
X112836282Y-61795450D01*
X112655818Y-61795450D01*
X112649365Y-61796822D01*
X112649361Y-61796822D01*
X112567558Y-61814210D01*
X112479298Y-61832970D01*
X112473269Y-61835654D01*
X112473267Y-61835655D01*
X112320466Y-61903687D01*
X112320464Y-61903688D01*
X112314436Y-61906372D01*
X112309095Y-61910252D01*
X112309094Y-61910253D01*
X112173781Y-62008563D01*
X112173779Y-62008565D01*
X112168437Y-62012446D01*
X112047683Y-62146557D01*
X111957451Y-62302843D01*
X111901685Y-62474475D01*
X111882821Y-62653950D01*
X105108499Y-62653950D01*
X105108499Y-62382335D01*
X107668306Y-62382335D01*
X107669011Y-62396419D01*
X107677892Y-62399950D01*
X108881833Y-62399950D01*
X108897072Y-62395475D01*
X108898277Y-62394085D01*
X108899948Y-62386402D01*
X108899948Y-62381835D01*
X109407948Y-62381835D01*
X109412423Y-62397074D01*
X109413813Y-62398279D01*
X109421496Y-62399950D01*
X110625704Y-62399950D01*
X110639235Y-62395977D01*
X110640595Y-62386519D01*
X110593730Y-62191316D01*
X110590684Y-62181942D01*
X110503635Y-61971787D01*
X110499153Y-61962992D01*
X110380305Y-61769051D01*
X110374505Y-61761067D01*
X110226770Y-61588092D01*
X110219806Y-61581128D01*
X110046831Y-61433393D01*
X110038847Y-61427593D01*
X109844906Y-61308745D01*
X109836111Y-61304263D01*
X109625956Y-61217214D01*
X109616582Y-61214168D01*
X109425563Y-61168308D01*
X109411479Y-61169013D01*
X109407948Y-61177894D01*
X109407948Y-62381835D01*
X108899948Y-62381835D01*
X108899948Y-61182194D01*
X108895975Y-61168663D01*
X108886517Y-61167303D01*
X108691314Y-61214168D01*
X108681940Y-61217214D01*
X108471785Y-61304263D01*
X108462990Y-61308745D01*
X108269049Y-61427593D01*
X108261065Y-61433393D01*
X108088090Y-61581128D01*
X108081126Y-61588092D01*
X107933391Y-61761067D01*
X107927591Y-61769051D01*
X107808743Y-61962992D01*
X107804261Y-61971787D01*
X107717212Y-62181942D01*
X107714166Y-62191316D01*
X107668306Y-62382335D01*
X105108499Y-62382335D01*
X105108499Y-58734501D01*
X105128501Y-58666380D01*
X105182157Y-58619887D01*
X105234499Y-58608501D01*
X116665499Y-58608501D01*
X116733620Y-58628503D01*
G37*
G04 #@! TD.AperFunction*
M02*
